<?xml version="1.0" standalone="no"?>
<!DOCTYPE svg PUBLIC "-//W3C//DTD SVG 1.1//EN" "http://www.w3.org/Graphics/SVG/1.1/DTD/svg11.dtd" >
<svg xmlns="http://www.w3.org/2000/svg">
<metadata></metadata>
<defs>
<font id="dinpromedium" horiz-adv-x="1091" >
<font-face units-per-em="2048" ascent="1565" descent="-483" />
<missing-glyph horiz-adv-x="491" />
<glyph unicode="fi" horiz-adv-x="1193" d="M76 860v160h119v160q0 122 73 205t211 83h129v-178h-92q-113 0 -113 -121v-149h205v-160h-205v-860h-208v860h-119zM811 1278v186h223v-186h-223zM817 0v1020h209v-1020h-209z" />
<glyph unicode="fl" horiz-adv-x="1282" d="M76 860v160h119v160q0 122 73 205t211 83h129v-178h-92q-113 0 -113 -121v-149h205v-160h-205v-860h-208v860h-119zM813 287v1171h209v-1159q0 -62 26 -91.5t87 -29.5h92v-178h-129q-141 0 -213 81.5t-72 205.5z" />
<glyph unicode="&#xd;" horiz-adv-x="491" />
<glyph unicode=" "  horiz-adv-x="491" />
<glyph unicode="&#x09;" horiz-adv-x="491" />
<glyph unicode="&#xa0;" horiz-adv-x="491" />
<glyph unicode="!" horiz-adv-x="679" d="M248 1458h254l-45 -1024h-164zM260 0v223h229v-223h-229z" />
<glyph unicode="&#x22;" horiz-adv-x="909" d="M160 1067v391h207v-391h-207zM543 1067v391h207v-391h-207z" />
<glyph unicode="#" horiz-adv-x="1376" d="M139 426v192h193l41 254h-166v193h194l64 401h219l-63 -401h278l64 401h217l-64 -401h160v-193h-189l-40 -254h161v-192h-192l-68 -426h-217l68 426h-281l-65 -426h-220l68 426h-162zM549 618h280l39 254h-278z" />
<glyph unicode="$" horiz-adv-x="1245" d="M61 180l148 146q71 -71 153 -103t185 -37v455l-53 6q-172 21 -275 117q-108 102 -108 278t111 290.5t306 133.5v185h168v-183q122 -8 215 -46.5t176 -116.5l-141 -140q-104 98 -268 111v-442l70 -11q99 -15 162 -40.5t110 -67.5q119 -104 119 -299q0 -180 -120.5 -291.5 t-322.5 -130.5v-227h-168v221q-149 6 -260.5 51t-206.5 141zM326 1051q0 -87 55 -136q59 -53 166 -67v426q-105 -10 -163 -71t-58 -152zM678 190q115 11 178.5 68t63.5 152q0 99 -58 151q-8 7 -17 13.5t-16 11t-18 9t-17 7t-19 6t-17.5 5t-20 4t-18.5 3t-20.5 3t-20.5 2.5 v-435z" />
<glyph unicode="%" horiz-adv-x="1724" d="M119 985v207q0 129 81.5 205t205.5 76q123 0 204.5 -76t81.5 -205v-207q0 -128 -81 -203t-205 -75t-205.5 75t-81.5 203zM276 991q0 -145 130 -145q129 0 129 145v195q0 147 -129 147q-130 0 -130 -147v-195zM434 0l688 1458h166l-686 -1458h-168zM1032 266v207 q0 129 81.5 205t205.5 76t205.5 -76t81.5 -205v-207q0 -129 -81.5 -204.5t-205.5 -75.5t-205.5 75.5t-81.5 204.5zM1190 272q0 -147 129 -147t129 147v195q0 147 -129 147t-129 -147v-195z" />
<glyph unicode="&#x26;" horiz-adv-x="1495" d="M139 422q0 73 23.5 135.5t69 113t89 86t107.5 77.5q-33 38 -53 64t-46.5 68.5t-39.5 87.5t-13 93q0 141 98 232t259 91q154 0 250 -92t96 -233q0 -151 -156 -258q-71 -49 -106 -74l307 -367q40 57 58.5 125.5t19.5 167.5h201q-9 -288 -146 -448l244 -291h-268l-119 143 q-33 -29 -61 -49t-79.5 -48t-118.5 -43t-145 -15q-224 0 -347.5 116.5t-123.5 317.5zM346 426q0 -108 75 -178t189 -70q77 0 143.5 25.5t135.5 87.5l-346 411q-40 -28 -62.5 -45t-52 -45t-44.5 -52.5t-26.5 -59.5t-11.5 -74zM489 1145q0 -42 26.5 -86.5t86.5 -114.5l70 47 q50 34 78 69.5t28 82.5q0 62 -40.5 103.5t-104.5 41.5q-66 0 -105 -40t-39 -103z" />
<glyph unicode="'" horiz-adv-x="526" d="M160 1067v391h207v-391h-207z" />
<glyph unicode="(" horiz-adv-x="649" d="M176 240v979q0 75 9 130t38 107q8 14 17 27.5t16.5 24.5t20 25.5t19.5 22.5t23 24.5t21.5 22.5t24.5 24.5t24 23.5l141 -142q-7 -7 -23 -22.5t-22 -22l-18 -19.5t-19 -22t-15.5 -22t-16.5 -27q-31 -60 -31 -168v-954q0 -108 31 -168q9 -17 17.5 -30t23 -29.5t19.5 -22 t28 -28t26 -25.5l-141 -142q-5 5 -24 23.5t-24.5 24.5t-21.5 22.5t-23 24.5t-19.5 22.5t-20 25.5t-16.5 24.5t-17 27.5q-29 52 -38 107.5t-9 130.5z" />
<glyph unicode=")" horiz-adv-x="649" d="M119 -49l15 15l15.5 15.5l13.5 13.5t13 14t11.5 13.5t12 14.5t10.5 14.5t11 17t10 17.5q31 60 31 166v954q0 106 -31 166q-6 11 -12 21t-11 17t-13.5 17t-12.5 15t-14.5 16t-14 14.5l-17 17l-17.5 17.5l143 144q48 -48 66 -67t48.5 -56t49.5 -72q49 -87 49 -237v-979 q0 -151 -49 -238q-19 -35 -49.5 -72t-48.5 -56t-66 -67z" />
<glyph unicode="*" horiz-adv-x="993" d="M125 954l235 125l-235 127l76 133l227 -141l-8 266h153l-8 -266l228 141l75 -133l-235 -127l235 -125l-75 -133l-228 142l8 -269h-153l8 269l-227 -142z" />
<glyph unicode="+" d="M104 461v194h345v342h194v-342h344v-194h-344v-344h-194v344h-345z" />
<glyph unicode="," horiz-adv-x="557" d="M160 238h237v-361l-237 -194v555z" />
<glyph unicode="-" horiz-adv-x="872" d="M137 471v195h598v-195h-598z" />
<glyph unicode="." horiz-adv-x="569" d="M160 0v250h250v-250h-250z" />
<glyph unicode="/" horiz-adv-x="778" d="M0 -152l584 1762h200l-583 -1762h-201z" />
<glyph unicode="0" d="M125 406v647q0 126 57 222.5t152 145.5t211 49t211.5 -49t153 -145.5t57.5 -222.5v-647q0 -126 -57.5 -222.5t-153 -146t-211.5 -49.5q-179 0 -299.5 114t-120.5 304zM334 412q0 -107 56.5 -172.5t154.5 -65.5q99 0 156 65.5t57 172.5v635q0 107 -57 172t-156 65 q-98 0 -154.5 -65t-56.5 -172v-635z" />
<glyph unicode="1" d="M233 981v231l285 246h209v-1458h-209v1231z" />
<glyph unicode="2" d="M129 0v186l561 682q42 52 60 96t18 99q0 100 -56.5 160.5t-156.5 60.5q-92 0 -153.5 -55t-61.5 -170h-209q0 185 118.5 298t305.5 113q189 0 305.5 -111t116.5 -298q0 -91 -31.5 -157.5t-105.5 -158.5l-457 -559h594v-186h-848z" />
<glyph unicode="3" d="M86 395h209q6 -111 72.5 -166t164.5 -55q104 0 171 64.5t67 177.5t-62 176t-182 63h-34v183h34q111 0 166.5 59t55.5 162q0 106 -61.5 165.5t-154.5 59.5q-95 0 -153 -56t-66 -153h-209q9 182 129 290t299 108q187 0 305.5 -113.5t118.5 -294.5q0 -222 -182 -311 q205 -90 205 -344q0 -136 -61.5 -233.5t-161 -144t-224.5 -46.5q-90 0 -167.5 24.5t-139.5 72.5t-99 128t-40 184z" />
<glyph unicode="4" d="M72 219v195l514 1044h225l-512 -1044h363v340h202v-340h156v-195h-156v-219h-202v219h-590z" />
<glyph unicode="5" d="M129 377h209q25 -203 213 -203q94 0 151 57q42 42 56 105t14 151q0 55 -6 99t-21 83.5t-38.5 66t-61 42t-86.5 15.5q-84 0 -136 -36.5t-71 -94.5h-190v796h786v-186h-598v-385q81 84 242 84q168 0 262 -94q76 -76 101.5 -171.5t25.5 -218.5q0 -133 -24.5 -223t-98.5 -164 q-114 -114 -307 -114q-100 0 -180.5 31t-130.5 81q-97 97 -111 279z" />
<glyph unicode="6" d="M115 424q0 83 27.5 166.5t80.5 191.5l332 676h223l-313 -627q56 23 129 23q162 0 272.5 -117t110.5 -305q0 -200 -120 -322t-310 -122q-192 0 -312 118t-120 318zM324 428q0 -116 61 -185t160 -69t161 69t62 185q0 110 -60.5 181t-162.5 71q-100 0 -160.5 -67.5 t-60.5 -184.5z" />
<glyph unicode="7" d="M129 1042v416h868v-186l-487 -1272h-225l489 1272h-444v-230h-201z" />
<glyph unicode="8" d="M96 412q0 222 201 342q-78 47 -127 126t-49 187q0 180 121 291.5t303 111.5t304 -111.5t122 -291.5q0 -108 -49 -187t-127 -126q200 -120 200 -342q0 -193 -128.5 -308.5t-321.5 -115.5t-321 115.5t-128 308.5zM305 416q0 -101 69.5 -171.5t170.5 -70.5t170 70t69 172 t-69 172.5t-170 70.5t-170.5 -70.5t-69.5 -172.5zM330 1061q0 -97 60 -159t155 -62t156 62t61 159q0 96 -61 159.5t-156 63.5q-94 0 -154.5 -63.5t-60.5 -159.5z" />
<glyph unicode="9" d="M115 1026q0 200 120 322t310 122q192 0 312 -118t120 -318q0 -82 -27.5 -165.5t-81.5 -192.5l-331 -676h-224l314 627q-56 -23 -131 -23q-162 0 -271.5 117t-109.5 305zM324 1030q0 -110 59.5 -181t161.5 -71q100 0 161.5 67.5t61.5 184.5q0 116 -62 185t-161 69 t-160 -69t-61 -185z" />
<glyph unicode=":" horiz-adv-x="620" d="M213 0v250h248v-250h-248zM213 584v250h248v-250h-248z" />
<glyph unicode=";" horiz-adv-x="620" d="M213 584v250h248v-250h-248zM217 238h238v-361l-238 -194v555z" />
<glyph unicode="&#x3c;" d="M168 475v187l756 362v-221l-502 -236l502 -233v-221z" />
<glyph unicode="=" d="M104 272v195h883v-195h-883zM104 670v194h883v-194h-883z" />
<glyph unicode="&#x3e;" d="M168 113v221l502 233l-502 236v221l756 -362v-187z" />
<glyph unicode="?" horiz-adv-x="1046" d="M145 1077q0 172 116.5 282.5t291.5 110.5q173 0 291.5 -107.5t118.5 -283.5q0 -68 -25.5 -127t-73.5 -125l-157 -221q-37 -50 -37 -110v-62h-209v72q0 62 16 107.5t53 95.5l160 215q64 85 64 155q0 87 -56.5 146t-144.5 59q-92 0 -145.5 -60t-53.5 -147h-209zM449 0v223 h231v-223h-231z" />
<glyph unicode="@" horiz-adv-x="1507" d="M131 334v651q0 234 121 358q121 121 352 121h299q229 0 350 -121q123 -123 123 -358v-989l-196 4v102q-51 -60 -112 -88t-148 -28q-169 0 -269 114q-55 63 -73.5 146.5t-18.5 232.5q0 146 17.5 230.5t70.5 146.5q45 55 116 86t155 31q158 0 258 -115v125q0 74 -17 126 t-59 95q-76 76 -217 76h-258q-139 0 -215 -76q-44 -44 -60 -94t-16 -127v-639q0 -86 21 -132t81 -93l-143 -144q-93 75 -127.5 150t-34.5 209zM760 479q0 -72 8.5 -124.5t30 -98t64 -69t104.5 -23.5t104.5 23.5t64.5 69t31 98.5t9 124q0 72 -9 125t-31 99t-64.5 70 t-104.5 24t-104.5 -24t-64 -70t-30 -99t-8.5 -125z" />
<glyph unicode="A" horiz-adv-x="1280" d="M16 0l535 1458h178l535 -1458h-236l-100 293h-576l-100 -293h-236zM418 481h448l-221 647z" />
<glyph unicode="B" horiz-adv-x="1357" d="M190 0v1458h568q203 0 321.5 -107.5t118.5 -291.5q0 -111 -58 -194t-139 -115q94 -38 157 -123.5t63 -214.5q0 -196 -121 -304t-320 -108h-590zM412 199h348q113 0 176 62t63 161t-63 160t-176 61h-348v-444zM412 842h327q108 0 173 55t65 154t-65 154t-173 55h-327v-418 z" />
<glyph unicode="C" horiz-adv-x="1286" d="M137 729q0 80 0.5 115t3 97.5t7.5 93t15 77t25.5 76t38 63.5t52.5 64q155 155 383 155q204 0 343 -116.5t177 -331.5h-226q-27 115 -102 182.5t-192 67.5q-134 0 -216 -88q-54 -58 -71 -146.5t-17 -308.5t17 -308.5t71 -146.5q82 -88 216 -88q117 0 193 67.5t103 182.5 h224q-36 -214 -176.5 -331t-343.5 -117q-228 0 -383 155q-30 30 -52.5 64t-38 63.5t-25.5 76t-15 77t-7.5 93t-3 97.5t-0.5 115z" />
<glyph unicode="D" horiz-adv-x="1363" d="M190 0v1458h512q240 0 377 -137q36 -36 62.5 -76.5t42.5 -89.5t25 -86.5t13 -99t4.5 -93.5t0.5 -101v-12.5v-11v-12.5q0 -203 -9 -279q-24 -208 -139 -323q-137 -137 -377 -137h-512zM412 199h268q160 0 248 98q27 30 44 73t24 107.5t8.5 116t1.5 145.5q0 182 -13 273.5 t-65 148.5q-89 99 -248 99h-268v-1061z" />
<glyph unicode="E" horiz-adv-x="1234" d="M190 0v1458h932v-198h-710v-426h606v-197h-606v-438h710v-199h-932z" />
<glyph unicode="F" horiz-adv-x="1198" d="M190 0v1458h932v-198h-710v-445h606v-199h-606v-616h-222z" />
<glyph unicode="G" horiz-adv-x="1329" d="M137 729q0 80 0.5 115t3 97.5t7.5 93t15 77t25.5 76t38 63.5t52.5 64q155 155 383 155q113 0 207 -35t159 -97.5t106.5 -143.5t57.5 -176h-223q-28 121 -106.5 187.5t-200.5 66.5q-64 0 -120.5 -24t-95.5 -66q-54 -59 -71 -146t-17 -307t17 -308.5t71 -146.5 q82 -88 216 -88q148 0 237 103q74 85 74 229v82h-311v188h532v-223q0 -143 -30 -239.5t-101 -171.5q-157 -166 -401 -166q-228 0 -383 155q-30 30 -52.5 64t-38 63.5t-25.5 76t-15 77t-7.5 93t-3 97.5t-0.5 115z" />
<glyph unicode="H" horiz-adv-x="1415" d="M190 0v1458h222v-622h592v622h221v-1458h-221v637h-592v-637h-222z" />
<glyph unicode="I" horiz-adv-x="602" d="M190 0v1458h222v-1458h-222z" />
<glyph unicode="J" horiz-adv-x="1036" d="M27 129l147 145q44 -44 89 -66t118 -22q125 0 194.5 75t69.5 216v981h221v-997q0 -147 -66 -256t-174.5 -163t-244.5 -54q-113 0 -196 33t-158 108z" />
<glyph unicode="K" horiz-adv-x="1347" d="M190 0v1458h222v-733l596 733h270l-473 -571l522 -887h-260l-410 719l-245 -295v-424h-222z" />
<glyph unicode="L" horiz-adv-x="1175" d="M190 0v1458h222v-1259h702v-199h-924z" />
<glyph unicode="M" horiz-adv-x="1665" d="M190 0v1458h222l426 -907l417 907h222v-1458h-222v975l-335 -711h-164l-344 711v-975h-222z" />
<glyph unicode="N" horiz-adv-x="1478" d="M190 0v1458h203l674 -1024v1024h221v-1458h-203l-673 1026v-1026h-222z" />
<glyph unicode="O" horiz-adv-x="1323" d="M137 729q0 80 0.5 115t3 97.5t7.5 93t15 77t25.5 76t38 63.5t52.5 64q155 155 383 155q230 0 385 -155q34 -34 58.5 -69.5t39.5 -81t23.5 -81t12.5 -100t4.5 -105t0.5 -127.5v-22v-22q0 -86 -0.5 -127t-4.5 -105.5t-12.5 -100t-23.5 -81t-39.5 -81t-58.5 -69.5 q-155 -155 -385 -155q-228 0 -383 155q-30 30 -52.5 64t-38 63.5t-25.5 76t-15 77t-7.5 93t-3 97.5t-0.5 115zM358 729q0 -222 16 -308.5t70 -144.5q39 -42 96.5 -66t121.5 -24t121 24t96 66q54 58 70 144.5t16 308.5t-16 308.5t-70 144.5q-39 42 -96 66t-121 24t-121.5 -24 t-96.5 -66q-54 -58 -70 -144.5t-16 -308.5z" />
<glyph unicode="P" horiz-adv-x="1288" d="M190 0v1458h553q211 0 339 -124.5t128 -317.5t-128 -318t-339 -125h-331v-573h-222zM412 774h319q117 0 187.5 64t70.5 178t-70.5 179t-187.5 65h-319v-486z" />
<glyph unicode="Q" horiz-adv-x="1323" d="M137 729q0 80 0.5 115t3 97.5t7.5 93t15 77t25.5 76t38 63.5t52.5 64q155 155 383 155q230 0 385 -155q34 -34 58.5 -69.5t39.5 -81t23.5 -81t12.5 -100t4.5 -105t0.5 -127.5v-22q0 -101 -0.5 -141t-5 -111.5t-14 -109t-28 -84t-46.5 -84.5l143 -142l-123 -123l-145 146 q-131 -92 -305 -92q-228 0 -383 155q-30 30 -52.5 64t-38 63.5t-25.5 76t-15 77t-7.5 93t-3 97.5t-0.5 115zM358 729q0 -222 16 -308.5t70 -144.5q39 -42 96.5 -66t121.5 -24q84 0 149 47l-154 154l123 123l142 -141q26 53 34.5 131t8.5 229q0 222 -16 308.5t-70 144.5 q-39 42 -96 66t-121 24t-121.5 -24t-96.5 -66q-54 -58 -70 -144.5t-16 -308.5z" />
<glyph unicode="R" horiz-adv-x="1341" d="M190 0v1458h566q205 0 328.5 -119t123.5 -307q0 -151 -80.5 -251.5t-209.5 -135.5l335 -645h-258l-307 614h-276v-614h-222zM412 803h327q112 0 180 60.5t68 166.5t-68 168t-180 62h-327v-457z" />
<glyph unicode="S" horiz-adv-x="1208" d="M61 180l148 146q77 -77 166 -108.5t207 -31.5q142 0 221.5 59t79.5 165q0 99 -58 151q-28 27 -61.5 40t-97.5 22l-172 24q-178 24 -277 117q-106 100 -106 278q0 193 131 310.5t356 117.5q145 0 252.5 -39t200.5 -126l-142 -140q-118 113 -317 113q-125 0 -195.5 -63.5 t-70.5 -163.5q0 -87 55 -136q58 -51 164 -67l166 -25q99 -15 162 -40.5t110 -67.5q119 -104 119 -299q0 -198 -145.5 -313t-378.5 -115q-169 0 -292 44.5t-225 147.5z" />
<glyph unicode="T" horiz-adv-x="1146" d="M61 1260v198h1024v-198h-401v-1260h-221v1260h-402z" />
<glyph unicode="U" horiz-adv-x="1382" d="M168 492v966h221v-956q0 -146 82 -231t219 -85t220 85.5t83 230.5v956h221v-966q0 -148 -69 -263.5t-188 -178t-267 -62.5q-225 0 -373.5 140.5t-148.5 363.5z" />
<glyph unicode="V" horiz-adv-x="1155" d="M10 1458h230l335 -1061l336 1061h234l-483 -1458h-173z" />
<glyph unicode="W" horiz-adv-x="1783" d="M23 1458h233l254 -1042l293 1042h178l293 -1042l254 1042h233l-381 -1458h-192l-297 1022l-295 -1022h-193z" />
<glyph unicode="X" horiz-adv-x="1183" d="M20 0l451 748l-422 710h254l287 -522l289 522h254l-422 -710l452 -748h-256l-317 559l-316 -559h-254z" />
<glyph unicode="Y" horiz-adv-x="1114" d="M10 1458h242l305 -641l305 641h242l-436 -858v-600h-222v600z" />
<glyph unicode="Z" horiz-adv-x="1130" d="M98 0v190l674 1070h-645v198h905v-180l-678 -1079h678v-199h-934z" />
<glyph unicode="[" horiz-adv-x="710" d="M176 -152v1762h447v-187h-238v-1388h238v-187h-447z" />
<glyph unicode="\" horiz-adv-x="778" d="M0 1593h201l577 -1745h-200z" />
<glyph unicode="]" horiz-adv-x="710" d="M88 33h242v1392h-242v185h447v-1762h-447v185z" />
<glyph unicode="^" horiz-adv-x="1169" d="M137 821l352 652h191l350 -652h-217l-229 424l-230 -424h-217z" />
<glyph unicode="_" horiz-adv-x="1169" d="M0 -209h1169v-143h-1169v143z" />
<glyph unicode="`" horiz-adv-x="1024" d="M233 1559h232l153 -332h-157z" />
<glyph unicode="a" horiz-adv-x="1085" d="M88 305q0 135 92.5 217t265.5 82h275v74q0 100 -53.5 147t-173.5 47q-86 0 -135.5 -22t-92.5 -78l-137 129q72 84 156.5 117t216.5 33q428 0 428 -357v-694h-205v94q-58 -58 -119.5 -82t-156.5 -24q-185 0 -279 94q-82 85 -82 223zM291 309q0 -147 190 -147q69 0 113 11 t82 48q45 45 45 154v84h-244q-91 0 -138.5 -39.5t-47.5 -110.5z" />
<glyph unicode="b" horiz-adv-x="1132" d="M166 0v1458h209v-524q55 65 119.5 91t152.5 26q159 0 252 -93q70 -70 93.5 -180.5t23.5 -257.5q0 -148 -23.5 -259t-93.5 -181q-43 -43 -110 -67.5t-144 -24.5q-88 0 -153 27.5t-121 95.5v-111h-205zM375 520q0 -61 4.5 -107.5t18 -93.5t36.5 -77t63 -49t95 -19t94.5 19 t62.5 49t36.5 77.5t17.5 93.5t4 107t-4 107t-17.5 93t-36.5 76.5t-62.5 48.5t-94.5 19t-95 -19t-63 -48.5t-36.5 -76.5t-18 -93t-4.5 -107z" />
<glyph unicode="c" horiz-adv-x="993" d="M113 520q0 113 26 204t69.5 151t103.5 100.5t125.5 58t137.5 17.5q108 0 189 -34t154 -112l-144 -139q-50 54 -94 76t-105 22q-122 0 -192 -92q-33 -42 -47 -101t-14 -151q0 -177 61 -254q70 -92 192 -92q61 0 105 22t94 76l144 -137q-73 -78 -154 -112.5t-189 -34.5 q-72 0 -137.5 17.5t-125.5 58t-103.5 100.5t-69.5 151.5t-26 204.5z" />
<glyph unicode="d" horiz-adv-x="1132" d="M117 520q0 148 23 258t93 180q93 93 252 93q88 0 153 -26t120 -91v524h209v-1458h-205v111q-56 -68 -121 -95.5t-154 -27.5q-77 0 -144 24.5t-110 67.5q-70 70 -93 180.5t-23 259.5zM326 520q0 -61 4.5 -107.5t18 -93.5t36.5 -77t63 -49t95 -19t94.5 19t62.5 49 t36.5 77.5t17.5 93.5t4 107t-4 107t-17.5 93t-36.5 76.5t-62.5 48.5t-94.5 19t-95 -19t-63 -48.5t-36.5 -76.5t-18 -93t-4.5 -107z" />
<glyph unicode="e" horiz-adv-x="1103" d="M113 520q0 249 119 390t321 141q206 0 323 -137.5t117 -362.5v-92h-674q0 -135 69.5 -213t195.5 -78q85 0 139.5 24t112.5 82l133 -124q-84 -84 -171.5 -123t-217.5 -39q-81 0 -149 17t-127.5 56.5t-101 100t-65.5 151.5t-24 207zM319 604h467q-3 81 -28 141t-79 96 t-126 36t-127 -36t-80 -96q-24 -57 -27 -141z" />
<glyph unicode="f" horiz-adv-x="671" d="M80 860v160h119v160q0 122 73 205t211 83h131v-178h-92q-114 0 -114 -121v-149h206v-160h-206v-860h-209v860h-119z" />
<glyph unicode="g" horiz-adv-x="1124" d="M117 539q0 151 23.5 252t92.5 170q90 90 250 90q87 0 152 -27.5t121 -95.5v110h202v-1032q0 -194 -120 -316t-324 -122q-119 0 -202 31t-165 106l134 133q53 -49 102.5 -70.5t122.5 -21.5q124 0 184 75t60 189v133q-55 -65 -120 -91.5t-149 -26.5q-156 0 -248 92 q-69 69 -92.5 170t-23.5 252zM326 539q0 -55 4 -97.5t17 -87.5t35.5 -74t62.5 -48t94 -19t93.5 19t62 48t35.5 74.5t16.5 87t3.5 97.5t-3.5 97.5t-16.5 87t-35.5 74t-62 47.5t-93.5 19t-94 -19t-62.5 -47.5t-35.5 -73.5t-17 -87.5t-4 -97.5z" />
<glyph unicode="h" horiz-adv-x="1159" d="M166 0v1458h209v-524q108 117 268 117q170 0 265.5 -104.5t95.5 -276.5v-670h-209v637q0 113 -58 170t-151 57t-152 -57.5t-59 -169.5v-637h-209z" />
<glyph unicode="i" horiz-adv-x="540" d="M160 1243v221h221v-221h-221zM166 0v1038h209v-1038h-209z" />
<glyph unicode="j" horiz-adv-x="540" d="M-39 -246h92q61 0 87 29.5t26 91.5v1163h209v-1175q0 -124 -72 -205.5t-213 -81.5h-129v178zM160 1243v221h221v-221h-221z" />
<glyph unicode="k" horiz-adv-x="1122" d="M166 0v1458h209v-899l403 479h254l-360 -407l405 -631h-258l-291 479l-153 -174v-305h-209z" />
<glyph unicode="l" horiz-adv-x="636" d="M160 287v1171h209v-1159q0 -62 25.5 -91.5t86.5 -29.5h92v-178h-129q-141 0 -212.5 81t-71.5 206z" />
<glyph unicode="m" horiz-adv-x="1796" d="M166 0v1038h205v-104q52 56 124.5 86.5t151.5 30.5q195 0 295 -152q125 152 326 152q79 0 147.5 -25t114.5 -70q110 -107 110 -292v-664h-208v633q0 116 -58 173.5t-151 57.5q-91 0 -153 -57t-62 -164v-643h-209v633q0 116 -58 173.5t-151 57.5q-94 0 -154.5 -58.5 t-60.5 -172.5v-633h-209z" />
<glyph unicode="n" horiz-adv-x="1163" d="M166 0v1038h205v-104q108 117 276 117q158 0 256 -95q105 -102 105 -292v-664h-209v633q0 116 -58 173.5t-151 57.5q-94 0 -154.5 -58.5t-60.5 -172.5v-633h-209z" />
<glyph unicode="o" horiz-adv-x="1099" d="M117 520q0 141 26.5 238.5t96.5 169.5q119 123 309 123q192 0 311 -123q70 -72 96.5 -169.5t26.5 -238.5q0 -142 -26.5 -239t-96.5 -170q-119 -123 -311 -123q-190 0 -309 123q-70 73 -96.5 170t-26.5 239zM326 520q0 -102 14 -171.5t57 -112.5q62 -62 152 -62 q91 0 153 62q43 43 57.5 113t14.5 171t-14.5 171.5t-57.5 113.5q-59 59 -153 59q-93 0 -152 -59q-43 -43 -57 -113t-14 -172z" />
<glyph unicode="p" horiz-adv-x="1132" d="M166 -420v1458h205v-110q56 68 121 95.5t153 27.5q77 0 144 -25t110 -68q70 -70 93.5 -180.5t23.5 -257.5q0 -148 -23.5 -259t-93.5 -181q-92 -92 -252 -92q-87 0 -152 26.5t-120 91.5v-526h-209zM375 520q0 -61 4.5 -107.5t18 -93.5t36.5 -77t63 -49t95 -19t94.5 19 t62.5 49t36.5 77.5t17.5 93.5t4 107t-4 107t-17.5 93t-36.5 76.5t-62.5 48.5t-94.5 19t-95 -19t-63 -48.5t-36.5 -76.5t-18 -93t-4.5 -107z" />
<glyph unicode="q" horiz-adv-x="1132" d="M117 520q0 148 23 258t93 180q43 43 110 68t144 25q89 0 154 -27.5t121 -95.5v110h205v-1458h-209v526q-55 -65 -120 -91.5t-153 -26.5q-160 0 -252 92q-70 70 -93 180.5t-23 259.5zM326 520q0 -61 4.5 -107.5t18 -93.5t36.5 -77t63 -49t95 -19t94.5 19t62.5 49 t36.5 77.5t17.5 93.5t4 107t-4 107t-17.5 93t-36.5 76.5t-62.5 48.5t-94.5 19t-95 -19t-63 -48.5t-36.5 -76.5t-18 -93t-4.5 -107z" />
<glyph unicode="r" horiz-adv-x="899" d="M166 0v1038h205v-112q40 56 114.5 90.5t161.5 34.5q149 0 248 -99l-158 -157q-38 38 -71 53.5t-84 15.5q-87 0 -147 -64t-60 -169v-631h-209z" />
<glyph unicode="s" horiz-adv-x="1021" d="M66 137l137 137q105 -108 299 -108q101 0 164 36.5t63 106.5q0 112 -139 123l-166 14q-307 25 -307 287q0 148 111 233t280 85q251 0 385 -117l-131 -133q-91 76 -256 76q-91 0 -140 -37t-49 -97q0 -105 144 -118l164 -15q150 -12 229.5 -85t79.5 -208 q0 -158 -119.5 -243.5t-312.5 -85.5q-140 0 -245 32t-191 117z" />
<glyph unicode="t" horiz-adv-x="700" d="M72 860v160h118v315h209v-315h201v-160h-201v-561q0 -121 115 -121h86v-178h-125q-138 0 -211.5 83.5t-73.5 205.5v571h-118z" />
<glyph unicode="u" horiz-adv-x="1163" d="M156 375v663h209v-632q0 -116 57.5 -174t150.5 -58q94 0 154.5 59t60.5 173v632h209v-1038h-204v104q-107 -116 -277 -116q-159 0 -256 94q-104 101 -104 293z" />
<glyph unicode="v" horiz-adv-x="964" d="M16 1038h222l245 -731l244 731h221l-381 -1038h-170z" />
<glyph unicode="w" horiz-adv-x="1521" d="M16 1038h222l200 -731l242 731h162l239 -731l201 731h223l-323 -1038h-178l-244 725l-242 -725h-180z" />
<glyph unicode="x" horiz-adv-x="1030" d="M45 0l356 530l-342 508h252l205 -338l203 338h252l-340 -508l354 -530h-252l-217 354l-219 -354h-252z" />
<glyph unicode="y" horiz-adv-x="958" d="M16 1038h222l247 -731l242 731h223l-458 -1245q-29 -82 -76 -129q-76 -76 -213 -76h-84v189h53q65 0 95.5 23t54.5 87l57 162z" />
<glyph unicode="z" horiz-adv-x="960" d="M88 0v166l516 686h-487v186h745v-166l-520 -686h520v-186h-774z" />
<glyph unicode="{" horiz-adv-x="833" d="M92 637v184h76q59 0 98 39q37 37 37 123v342q0 141 74 215q70 70 219 70h145v-187h-79q-52 0 -78.5 -5.5t-40.5 -22.5q-31 -31 -31 -131v-330q0 -48 -11 -83.5t-32.5 -58.5t-42 -36.5t-49.5 -26.5q29 -13 49.5 -26.5t42 -36.5t32.5 -58.5t11 -83.5v-329q0 -101 31 -132 q14 -17 40.5 -22.5t78.5 -5.5h79v-187h-145q-149 0 -219 70q-74 74 -74 215v342q0 86 -37 123q-39 39 -98 39h-76z" />
<glyph unicode="|" horiz-adv-x="692" d="M242 -152v1762h209v-1762h-209z" />
<glyph unicode="}" horiz-adv-x="833" d="M92 35h80q52 0 78.5 5.5t40.5 22.5q31 31 31 132v329q0 47 11.5 83t33 59t42 36.5t50.5 26.5q-30 13 -50.5 26.5t-42 36.5t-33 59t-11.5 83v330q0 100 -31 131q-14 17 -40.5 22.5t-78.5 5.5h-80v187h146q149 0 219 -70q39 -39 56 -89.5t17 -125.5v-342q0 -86 37 -123 q39 -39 101 -39h73v-184h-73q-62 0 -101 -39q-37 -37 -37 -123v-342q0 -75 -17 -125.5t-56 -89.5q-70 -70 -219 -70h-146v187z" />
<glyph unicode="~" horiz-adv-x="1175" d="M88 571q91 91 155.5 125.5t145.5 34.5q55 0 105 -16t122 -51q98 -50 164 -50q46 0 82 17.5t92 73.5l133 -132q-91 -91 -156 -125t-147 -34q-56 0 -107 16t-122 51q-96 49 -162 49q-46 0 -82.5 -17.5t-91.5 -72.5z" />
<glyph unicode="&#xa1;" horiz-adv-x="679" d="M178 -420l45 1024h164l45 -1024h-254zM190 815v223h230v-223h-230z" />
<glyph unicode="&#xa2;" horiz-adv-x="1019" d="M113 750q0 222 102 357.5t272 164.5v186h164v-184q87 -10 155.5 -46.5t133.5 -105.5l-139 -135q-40 45 -79 68t-89 30v-671q50 7 89 30t79 68l139 -135q-65 -69 -133.5 -105.5t-155.5 -46.5v-225h-164v227q-170 29 -272 165t-102 358zM322 750q0 -166 63 -252 q49 -65 121 -80v663q-69 -14 -119 -80q-65 -89 -65 -251z" />
<glyph unicode="&#xa3;" horiz-adv-x="1155" d="M88 641v160h127v196q0 147 66.5 256t175.5 163t245 54q113 0 196.5 -33t158.5 -108l-148 -145q-44 44 -89 66t-118 22q-125 0 -194.5 -75t-69.5 -216v-180h264v-160h-264v-442h619v-199h-842v641h-127z" />
<glyph unicode="&#xa4;" horiz-adv-x="1361" d="M139 166l150 151q-78 115 -78 254t78 254l-150 150l137 137l150 -149q110 75 254 75t254 -75l151 149l138 -137l-152 -150q78 -115 78 -254t-78 -254l152 -151l-138 -137l-151 151q-115 -78 -254 -78t-254 78l-150 -151zM401 571q0 -115 81.5 -196.5t197.5 -81.5 t197 81.5t81 196.5t-81 196t-197 81t-197.5 -81t-81.5 -196z" />
<glyph unicode="&#xa5;" horiz-adv-x="1114" d="M10 1458h242l307 -643l303 643h240l-299 -594h178v-159h-260l-53 -105v-106h313v-160h-313v-334h-222v334h-313v160h313v106l-53 105h-260v159h178z" />
<glyph unicode="&#xa6;" horiz-adv-x="704" d="M242 -152v717h209v-717h-209zM242 893v717h209v-717h-209z" />
<glyph unicode="&#xa7;" horiz-adv-x="1112" d="M152 530q0 111 59 195.5t139 124.5q-82 40 -127 104t-45 170q0 148 102.5 247t278.5 99q177 0 278.5 -92.5t106.5 -244.5h-201q-11 155 -184 155q-86 0 -133 -41.5t-47 -116.5q0 -118 153 -165l144 -43q291 -88 291 -381q0 -110 -59.5 -194.5t-139.5 -125.5 q82 -36 131 -108t49 -181q0 -112 -55 -196.5t-143 -126t-193 -41.5q-77 0 -146 21t-124.5 62.5t-89.5 109.5t-37 155h205q6 -76 56.5 -119t135.5 -43q87 0 136.5 46t49.5 126q0 59 -39 107t-120 73l-144 44q-288 87 -288 380zM356 535q0 -100 58 -162q55 -58 145 -58 q88 0 143 58q60 64 60 162q0 106 -60 163q-61 58 -143 58q-90 0 -145 -58q-58 -61 -58 -163z" />
<glyph unicode="&#xa8;" horiz-adv-x="1024" d="M197 1237v221h188v-221h-188zM639 1237v221h188v-221h-188z" />
<glyph unicode="&#xa9;" horiz-adv-x="1765" d="M141 729q0 202 99.5 372.5t270 269.5t372.5 99q151 0 288.5 -58.5t236.5 -157.5t157.5 -236.5t58.5 -288.5t-58.5 -288.5t-157.5 -236.5t-236.5 -157.5t-288.5 -58.5q-202 0 -372.5 99t-270 269.5t-99.5 372.5zM291 729q0 -166 78.5 -304.5t214.5 -218t299 -79.5 t299 79.5t214.5 218t78.5 304.5t-78.5 304.5t-214.5 218t-299 79.5t-299 -79.5t-214.5 -218t-78.5 -304.5zM528 729q0 187 100.5 298.5t266.5 111.5q83 0 144 -26t124 -81l-94 -96q-46 40 -84 56t-90 16q-112 0 -166.5 -76t-54.5 -203t54.5 -202.5t166.5 -75.5q52 0 90 15.5 t84 55.5l94 -96q-61 -55 -123 -81t-145 -26q-166 0 -266.5 111.5t-100.5 298.5z" />
<glyph unicode="&#xaa;" horiz-adv-x="925" d="M106 872q0 108 74 174t211 66h215v57q0 78 -42 115t-136 37q-66 0 -104 -17.5t-74 -62.5l-113 107q57 67 125 92.5t174 25.5q340 0 340 -284v-553h-166v73q-44 -44 -93 -62.5t-124 -18.5q-148 0 -221 73q-66 66 -66 178zM272 877q0 -113 146 -113q55 0 90 8.5t63 36.5 q35 32 35 119v65h-190q-144 0 -144 -116z" />
<glyph unicode="&#xab;" horiz-adv-x="1212" d="M76 557l471 469v-252l-219 -217l219 -219v-252zM594 557l471 469v-252l-221 -217l221 -219v-252z" />
<glyph unicode="&#xac;" d="M98 489v195h893v-483h-194v288h-699z" />
<glyph unicode="&#xad;" horiz-adv-x="872" d="M137 471v195h598v-195h-598z" />
<glyph unicode="&#xae;" horiz-adv-x="1765" d="M141 729q0 202 99.5 372.5t270 269.5t372.5 99q151 0 288.5 -58.5t236.5 -157.5t157.5 -236.5t58.5 -288.5t-58.5 -288.5t-157.5 -236.5t-236.5 -157.5t-288.5 -58.5q-202 0 -372.5 99t-270 269.5t-99.5 372.5zM289 729q0 -166 78.5 -305t215.5 -219t300 -80t299.5 80 t214.5 219t78 305t-78 305t-214.5 219t-299.5 80t-300 -80t-215.5 -219t-78.5 -305zM625 330v800h301q112 0 185 -71.5t73 -173.5q0 -81 -44 -136.5t-114 -80.5l178 -338h-166l-164 317h-102v-317h-147zM772 764h135q58 0 94.5 34.5t36.5 86.5t-36.5 86.5t-94.5 34.5h-135 v-242z" />
<glyph unicode="&#xaf;" horiz-adv-x="1024" d="M195 1266v149h632v-149h-632z" />
<glyph unicode="&#xb0;" horiz-adv-x="964" d="M125 1124q0 148 104.5 253.5t251.5 105.5q148 0 253.5 -105.5t105.5 -253.5q0 -147 -105.5 -251.5t-253.5 -104.5t-252 104t-104 252zM297 1124q0 -80 53 -134t131 -54t132.5 54.5t54.5 133.5q0 80 -54.5 135.5t-132.5 55.5t-131 -55.5t-53 -135.5z" />
<glyph unicode="&#xb1;" d="M104 0v195h883v-195h-883zM104 647v195h345v344h194v-344h344v-195h-344v-346h-194v346h-345z" />
<glyph unicode="&#xb2;" horiz-adv-x="716" d="M92 584v141l330 381q45 53 45 106q0 52 -28.5 82.5t-80.5 30.5q-47 0 -77.5 -26.5t-30.5 -86.5h-158q0 116 75 185t191 69q118 0 192.5 -69t74.5 -185q0 -58 -21.5 -98t-73.5 -102l-247 -287h342v-141h-533z" />
<glyph unicode="&#xb3;" horiz-adv-x="741" d="M92 831h158q1 -57 36.5 -86.5t86.5 -29.5q54 0 86.5 33t32.5 92q0 57 -32.5 90t-92.5 33h-23v135h23q56 0 85 31t29 81q0 55 -31.5 85t-78.5 30q-48 0 -78 -28t-33 -78h-156q3 114 79 180.5t188 66.5q116 0 191 -69.5t75 -179.5q0 -129 -102 -183q114 -60 114 -198 q0 -125 -78.5 -194t-197.5 -69q-55 0 -104 15t-89 45t-63.5 81t-24.5 117z" />
<glyph unicode="&#xb4;" horiz-adv-x="1024" d="M406 1227l153 332h232l-228 -332h-157z" />
<glyph unicode="&#xb5;" horiz-adv-x="1165" d="M156 -420v1458h209v-632q0 -116 58.5 -174t151.5 -58t153 59t60 173v632h209v-1038h-204v104q-107 -116 -275 -116q-93 0 -153 51v-459h-209z" />
<glyph unicode="&#xb6;" horiz-adv-x="1304" d="M78 1051q0 184 125.5 295.5t335.5 111.5h575v-1878h-209v1680h-221v-1680h-209v1069q-167 0 -282 119.5t-115 282.5z" />
<glyph unicode="&#xb7;" horiz-adv-x="569" d="M160 444v250h250v-250h-250z" />
<glyph unicode="&#xb8;" horiz-adv-x="1024" d="M342 -432l143 301h168l-104 -301h-207z" />
<glyph unicode="&#xb9;" horiz-adv-x="567" d="M82 1126v179l178 153h158v-874h-158v698z" />
<glyph unicode="&#xba;" horiz-adv-x="937" d="M125 1044q0 113 20.5 189.5t77.5 134.5q94 98 246 98q154 0 248 -98q57 -58 77.5 -134.5t20.5 -189.5q0 -115 -20.5 -191t-77.5 -134q-94 -98 -248 -98q-152 0 -246 98q-57 58 -77.5 134t-20.5 191zM295 1044q0 -82 10.5 -136.5t44.5 -88.5q47 -47 119 -47q74 0 121 47 q24 24 36.5 64t14.5 72.5t2 88.5t-2 88.5t-14.5 72t-36.5 63.5q-47 47 -121 47q-72 0 -119 -47q-34 -34 -44.5 -88t-10.5 -136z" />
<glyph unicode="&#xbb;" horiz-adv-x="1212" d="M147 86v252l222 219l-222 217v252l474 -469zM666 86v252l219 219l-219 217v252l473 -469z" />
<glyph unicode="&#xbc;" horiz-adv-x="1654" d="M82 1126v179l178 153h158v-874h-158v698zM369 0l686 1458h166l-686 -1458h-166zM983 125v145l301 604h170l-301 -604h186v170h152v-170h82v-145h-82v-125h-152v125h-356z" />
<glyph unicode="&#xbd;" horiz-adv-x="1693" d="M82 1126v179l178 153h158v-874h-158v698zM352 0l686 1458h166l-686 -1458h-166zM1071 0v141l328 381q45 53 45 107q0 52 -28.5 82t-80.5 30q-47 0 -77.5 -26t-30.5 -86h-156q0 116 74 185t190 69q118 0 192.5 -69t74.5 -185q0 -58 -21.5 -99t-73.5 -102l-247 -287h342 v-141h-531z" />
<glyph unicode="&#xbe;" horiz-adv-x="1728" d="M92 831h158q1 -57 36.5 -86.5t86.5 -29.5q54 0 86.5 33t32.5 92q0 57 -32.5 90t-92.5 33h-23v135h23q56 0 85 31t29 81q0 55 -31.5 85t-78.5 30q-48 0 -78 -28t-33 -78h-156q3 114 79 180.5t188 66.5q116 0 191 -69.5t75 -179.5q0 -129 -102 -183q114 -60 114 -198 q0 -125 -78.5 -194t-197.5 -69q-55 0 -104 15t-89 45t-63.5 81t-24.5 117zM455 0l686 1458h166l-686 -1458h-166zM1059 125v145l299 604h172l-301 -604h186v170h150v-170h82v-145h-82v-125h-150v125h-356z" />
<glyph unicode="&#xbf;" horiz-adv-x="1046" d="M84 -39q0 119 96 252l160 221q37 50 37 111v61h209v-74q0 -61 -16.5 -105.5t-55.5 -96.5l-158 -215q-63 -83 -63 -156q0 -87 55.5 -145t143.5 -58q92 0 146 59t54 146h209q0 -172 -117 -282.5t-292 -110.5q-172 0 -290 108t-118 285zM367 815v223h229v-223h-229z" />
<glyph unicode="&#xc0;" horiz-adv-x="1280" d="M16 0l535 1458h178l535 -1458h-236l-100 293h-576l-100 -293h-236zM354 1931h232l153 -332h-157zM418 481h448l-221 647z" />
<glyph unicode="&#xc1;" horiz-adv-x="1280" d="M16 0l535 1458h178l535 -1458h-236l-100 293h-576l-100 -293h-236zM418 481h448l-221 647zM528 1599l154 332h231l-227 -332h-158z" />
<glyph unicode="&#xc2;" horiz-adv-x="1280" d="M16 0l535 1458h178l535 -1458h-236l-100 293h-576l-100 -293h-236zM283 1599l264 330h176l264 -330h-174l-178 199l-178 -199h-174zM418 481h448l-221 647z" />
<glyph unicode="&#xc3;" horiz-adv-x="1280" d="M16 0l535 1458h178l535 -1458h-236l-100 293h-576l-100 -293h-236zM281 1741q66 66 113 89t100 23q42 0 75.5 -11.5t77.5 -37.5q64 -39 113 -39q57 0 121 64l98 -96q-65 -65 -113.5 -89t-99.5 -24q-74 0 -154 47q-66 39 -114 39q-31 0 -55.5 -11t-63.5 -50zM418 481h448 l-221 647z" />
<glyph unicode="&#xc4;" horiz-adv-x="1280" d="M16 0l535 1458h178l535 -1458h-236l-100 293h-576l-100 -293h-236zM324 1610v221h188v-221h-188zM418 481h448l-221 647zM766 1610v221h188v-221h-188z" />
<glyph unicode="&#xc5;" horiz-adv-x="1280" d="M16 0l535 1458h178l535 -1458h-236l-100 293h-576l-100 -293h-236zM379 1792q0 106 75 181t181 75t181 -75t75 -181t-75 -181t-181 -75t-181 75t-75 181zM418 481h448l-221 647zM504 1792q0 -54 38.5 -91.5t92.5 -37.5t92.5 37.5t38.5 91.5t-38.5 91.5t-92.5 37.5 t-92.5 -37.5t-38.5 -91.5z" />
<glyph unicode="&#xc6;" horiz-adv-x="1949" d="M10 0l766 1458h1061v-198h-711v-429h607v-198h-607v-434h711v-199h-932v332h-481l-172 -332h-242zM520 520h385v740z" />
<glyph unicode="&#xc7;" horiz-adv-x="1286" d="M137 729q0 80 0.5 115t3 97.5t7.5 93t15 77t25.5 76t38 63.5t52.5 64q155 155 383 155q204 0 343 -116.5t177 -331.5h-226q-27 115 -102 182.5t-192 67.5q-134 0 -216 -88q-54 -58 -71 -146.5t-17 -308.5t17 -308.5t71 -146.5q82 -88 216 -88q117 0 193 67.5t103 182.5 h224q-36 -214 -176.5 -331t-343.5 -117q-228 0 -383 155q-30 30 -52.5 64t-38 63.5t-25.5 76t-15 77t-7.5 93t-3 97.5t-0.5 115zM455 -432l143 301h168l-104 -301h-207z" />
<glyph unicode="&#xc8;" horiz-adv-x="1234" d="M190 0v1458h932v-198h-710v-426h606v-197h-606v-438h710v-199h-932zM358 1931h232l153 -332h-157z" />
<glyph unicode="&#xc9;" horiz-adv-x="1234" d="M190 0v1458h932v-198h-710v-426h606v-197h-606v-438h710v-199h-932zM530 1599l154 332h231l-227 -332h-158z" />
<glyph unicode="&#xca;" horiz-adv-x="1234" d="M190 0v1458h932v-198h-710v-426h606v-197h-606v-438h710v-199h-932zM285 1599l264 330h176l264 -330h-174l-178 199l-178 -199h-174z" />
<glyph unicode="&#xcb;" horiz-adv-x="1234" d="M190 0v1458h932v-198h-710v-426h606v-197h-606v-438h710v-199h-932zM322 1610v221h188v-221h-188zM764 1610v221h188v-221h-188z" />
<glyph unicode="&#xcc;" horiz-adv-x="602" d="M-4 1931h231l154 -332h-158zM190 0v1458h222v-1458h-222z" />
<glyph unicode="&#xcd;" horiz-adv-x="602" d="M190 0v1458h222v-1458h-222zM221 1599l154 332h231l-227 -332h-158z" />
<glyph unicode="&#xce;" horiz-adv-x="602" d="M-49 1599l264 330h176l264 -330h-174l-178 199l-178 -199h-174zM190 0v1458h222v-1458h-222z" />
<glyph unicode="&#xcf;" horiz-adv-x="602" d="M-12 1610v221h188v-221h-188zM190 0v1458h222v-1458h-222zM430 1610v221h188v-221h-188z" />
<glyph unicode="&#xd0;" horiz-adv-x="1400" d="M78 651v170h151v637h512q262 0 412 -194q28 -36 47 -67.5t31.5 -73t19 -71.5t9.5 -90.5t3.5 -101t0.5 -131.5q0 -244 -18 -343.5t-93 -192.5q-72 -90 -178.5 -141.5t-239.5 -51.5h-506v651h-151zM451 197h264q184 0 272 129q36 55 45.5 123t9.5 274q0 205 -11 280 t-52 132q-47 66 -110 96.5t-154 30.5h-264v-441h282v-170h-282v-454z" />
<glyph unicode="&#xd1;" horiz-adv-x="1478" d="M190 0v1458h203l674 -1024v1024h221v-1458h-203l-673 1026v-1026h-222zM387 1741q66 66 113 89t100 23q72 0 154 -49q64 -39 112 -39q57 0 121 64l98 -96q-65 -65 -113.5 -89t-99.5 -24q-73 0 -153 47q-66 39 -115 39q-31 0 -55.5 -11t-63.5 -50z" />
<glyph unicode="&#xd2;" horiz-adv-x="1323" d="M137 729q0 80 0.5 115t3 97.5t7.5 93t15 77t25.5 76t38 63.5t52.5 64q155 155 383 155q230 0 385 -155q34 -34 58.5 -69.5t39.5 -81t23.5 -81t12.5 -100t4.5 -105t0.5 -127.5v-22v-22q0 -86 -0.5 -127t-4.5 -105.5t-12.5 -100t-23.5 -81t-39.5 -81t-58.5 -69.5 q-155 -155 -385 -155q-228 0 -383 155q-30 30 -52.5 64t-38 63.5t-25.5 76t-15 77t-7.5 93t-3 97.5t-0.5 115zM358 729q0 -222 16 -308.5t70 -144.5q39 -42 96.5 -66t121.5 -24t121 24t96 66q54 58 70 144.5t16 308.5t-16 308.5t-70 144.5q-39 42 -96 66t-121 24t-121.5 -24 t-96.5 -66q-54 -58 -70 -144.5t-16 -308.5zM383 1931h231l154 -332h-158z" />
<glyph unicode="&#xd3;" horiz-adv-x="1323" d="M137 729q0 80 0.5 115t3 97.5t7.5 93t15 77t25.5 76t38 63.5t52.5 64q155 155 383 155q230 0 385 -155q34 -34 58.5 -69.5t39.5 -81t23.5 -81t12.5 -100t4.5 -105t0.5 -127.5v-22v-22q0 -86 -0.5 -127t-4.5 -105.5t-12.5 -100t-23.5 -81t-39.5 -81t-58.5 -69.5 q-155 -155 -385 -155q-228 0 -383 155q-30 30 -52.5 64t-38 63.5t-25.5 76t-15 77t-7.5 93t-3 97.5t-0.5 115zM358 729q0 -222 16 -308.5t70 -144.5q39 -42 96.5 -66t121.5 -24t121 24t96 66q54 58 70 144.5t16 308.5t-16 308.5t-70 144.5q-39 42 -96 66t-121 24t-121.5 -24 t-96.5 -66q-54 -58 -70 -144.5t-16 -308.5zM555 1599l154 332h231l-227 -332h-158z" />
<glyph unicode="&#xd4;" horiz-adv-x="1323" d="M137 729q0 80 0.5 115t3 97.5t7.5 93t15 77t25.5 76t38 63.5t52.5 64q155 155 383 155q230 0 385 -155q34 -34 58.5 -69.5t39.5 -81t23.5 -81t12.5 -100t4.5 -105t0.5 -127.5v-22v-22q0 -86 -0.5 -127t-4.5 -105.5t-12.5 -100t-23.5 -81t-39.5 -81t-58.5 -69.5 q-155 -155 -385 -155q-228 0 -383 155q-30 30 -52.5 64t-38 63.5t-25.5 76t-15 77t-7.5 93t-3 97.5t-0.5 115zM309 1599l264 330h177l264 -330h-174l-178 199l-179 -199h-174zM358 729q0 -222 16 -308.5t70 -144.5q39 -42 96.5 -66t121.5 -24t121 24t96 66q54 58 70 144.5 t16 308.5t-16 308.5t-70 144.5q-39 42 -96 66t-121 24t-121.5 -24t-96.5 -66q-54 -58 -70 -144.5t-16 -308.5z" />
<glyph unicode="&#xd5;" horiz-adv-x="1323" d="M137 729q0 80 0.5 115t3 97.5t7.5 93t15 77t25.5 76t38 63.5t52.5 64q155 155 383 155q230 0 385 -155q34 -34 58.5 -69.5t39.5 -81t23.5 -81t12.5 -100t4.5 -105t0.5 -127.5v-22v-22q0 -86 -0.5 -127t-4.5 -105.5t-12.5 -100t-23.5 -81t-39.5 -81t-58.5 -69.5 q-155 -155 -385 -155q-228 0 -383 155q-30 30 -52.5 64t-38 63.5t-25.5 76t-15 77t-7.5 93t-3 97.5t-0.5 115zM309 1741q66 66 113 89t100 23q72 0 154 -49q64 -39 112 -39q57 0 121 64l99 -96q-65 -65 -113.5 -89t-99.5 -24q-74 0 -154 47q-66 39 -115 39q-31 0 -55 -11 t-63 -50zM358 729q0 -222 16 -308.5t70 -144.5q39 -42 96.5 -66t121.5 -24t121 24t96 66q54 58 70 144.5t16 308.5t-16 308.5t-70 144.5q-39 42 -96 66t-121 24t-121.5 -24t-96.5 -66q-54 -58 -70 -144.5t-16 -308.5z" />
<glyph unicode="&#xd6;" horiz-adv-x="1325" d="M137 729q0 80 0.5 115t3 97.5t7.5 93t15 77t25.5 76t38 63.5t52.5 64q155 155 383 155q230 0 385 -155q34 -34 58.5 -69.5t39.5 -81t23.5 -81t12.5 -100t4.5 -105t0.5 -127.5v-22v-22q0 -86 -0.5 -127t-4.5 -105.5t-12.5 -100t-23.5 -81t-39.5 -81t-58.5 -69.5 q-155 -155 -385 -155q-228 0 -383 155q-30 30 -52.5 64t-38 63.5t-25.5 76t-15 77t-7.5 93t-3 97.5t-0.5 115zM346 1610v221h189v-221h-189zM358 729q0 -222 16 -308.5t70 -144.5q39 -42 96.5 -66t121.5 -24t121 24t96 66q54 58 70 144.5t16 308.5t-16 308.5t-70 144.5 q-39 42 -96 66t-121 24t-121.5 -24t-96.5 -66q-54 -58 -70 -144.5t-16 -308.5zM788 1610v221h189v-221h-189z" />
<glyph unicode="&#xd7;" d="M117 270l299 299l-299 299l131 131l297 -299l299 299l131 -131l-299 -299l299 -299l-131 -129l-299 297l-297 -297z" />
<glyph unicode="&#xd8;" horiz-adv-x="1335" d="M137 729q0 80 0.5 115t3 97.5t7.5 93t15 77t25.5 76t38 63.5t52.5 64q155 155 383 155q132 0 245 -55l62 133h170l-107 -221q2 -2 7.5 -6t7.5 -6q34 -34 58.5 -69.5t39.5 -81t23.5 -81t12.5 -100t4.5 -105t0.5 -127.5v-22v-22q0 -86 -0.5 -127t-4.5 -105.5t-12.5 -100 t-23.5 -81t-39.5 -81t-58.5 -69.5q-155 -155 -385 -155q-131 0 -244 55l-64 -133h-168l105 221l-12 12q-30 30 -52.5 64t-38 63.5t-25.5 76t-15 77t-7.5 93t-3 97.5t-0.5 115zM360 729q0 -168 8.5 -253t32.5 -136l424 887q-73 45 -163 45q-64 0 -120.5 -24t-95.5 -66 q-54 -58 -70 -144.5t-16 -308.5zM500 231q70 -45 162 -45q64 0 121 24t96 66q54 58 70 144.5t16 308.5q0 173 -8 256t-33 133z" />
<glyph unicode="&#xd9;" horiz-adv-x="1382" d="M168 492v966h221v-956q0 -146 82 -231t219 -85t220 85.5t83 230.5v956h221v-966q0 -148 -69 -263.5t-188 -178t-267 -62.5q-225 0 -373.5 140.5t-148.5 363.5zM414 1931h231l154 -332h-158z" />
<glyph unicode="&#xda;" horiz-adv-x="1382" d="M168 492v966h221v-956q0 -146 82 -231t219 -85t220 85.5t83 230.5v956h221v-966q0 -148 -69 -263.5t-188 -178t-267 -62.5q-225 0 -373.5 140.5t-148.5 363.5zM586 1599l153 332h232l-228 -332h-157z" />
<glyph unicode="&#xdb;" horiz-adv-x="1382" d="M168 492v966h221v-956q0 -146 82 -231t219 -85t220 85.5t83 230.5v956h221v-966q0 -148 -69 -263.5t-188 -178t-267 -62.5q-225 0 -373.5 140.5t-148.5 363.5zM340 1599l264 330h176l264 -330h-174l-178 199l-178 -199h-174z" />
<glyph unicode="&#xdc;" horiz-adv-x="1382" d="M168 492v966h221v-956q0 -146 82 -231t219 -85t220 85.5t83 230.5v956h221v-966q0 -148 -69 -263.5t-188 -178t-267 -62.5q-225 0 -373.5 140.5t-148.5 363.5zM375 1610v221h188v-221h-188zM817 1610v221h189v-221h-189z" />
<glyph unicode="&#xdd;" horiz-adv-x="1114" d="M10 1458h242l305 -641l305 641h242l-436 -858v-600h-222v600zM451 1599l153 332h232l-228 -332h-157z" />
<glyph unicode="&#xde;" horiz-adv-x="1304" d="M190 0v1458h222v-280h331q211 0 339 -125t128 -318t-128 -316.5t-339 -123.5h-331v-295h-222zM412 494h317q117 0 187.5 63.5t70.5 177.5t-70.5 179t-187.5 65h-317v-485z" />
<glyph unicode="&#xdf;" horiz-adv-x="1157" d="M166 0v1069q0 197 119 300.5t319 103.5q188 0 304 -88.5t116 -262.5q0 -156 -127 -237q68 -35 98.5 -88t30.5 -148v-338q0 -153 -84 -231q-86 -80 -233 -80h-109v178h66q65 0 106 35q43 34 43 117v319q0 75 -37 109q-39 39 -106 39h-72v166h64q67 0 109 40t42 113 q0 75 -51 123q-52 49 -166 49q-221 0 -221 -231v-1057h-211z" />
<glyph unicode="&#xe0;" horiz-adv-x="1085" d="M88 305q0 135 92.5 217t265.5 82h275v74q0 100 -53.5 147t-173.5 47q-86 0 -135.5 -22t-92.5 -78l-137 129q72 84 156.5 117t216.5 33q428 0 428 -357v-694h-205v94q-58 -58 -119.5 -82t-156.5 -24q-185 0 -279 94q-82 85 -82 223zM248 1559h231l154 -332h-158zM291 309 q0 -147 190 -147q69 0 113 11t82 48q45 45 45 154v84h-244q-91 0 -138.5 -39.5t-47.5 -110.5z" />
<glyph unicode="&#xe1;" horiz-adv-x="1085" d="M88 305q0 135 92.5 217t265.5 82h275v74q0 100 -53.5 147t-173.5 47q-86 0 -135.5 -22t-92.5 -78l-137 129q72 84 156.5 117t216.5 33q428 0 428 -357v-694h-205v94q-58 -58 -119.5 -82t-156.5 -24q-185 0 -279 94q-82 85 -82 223zM291 309q0 -147 190 -147q69 0 113 11 t82 48q45 45 45 154v84h-244q-91 0 -138.5 -39.5t-47.5 -110.5zM420 1227l153 332h232l-227 -332h-158z" />
<glyph unicode="&#xe2;" horiz-adv-x="1085" d="M88 305q0 135 92.5 217t265.5 82h275v74q0 100 -53.5 147t-173.5 47q-86 0 -135.5 -22t-92.5 -78l-137 129q72 84 156.5 117t216.5 33q428 0 428 -357v-694h-205v94q-58 -58 -119.5 -82t-156.5 -24q-185 0 -279 94q-82 85 -82 223zM174 1227l264 329h176l265 -329h-174 l-179 198l-178 -198h-174zM291 309q0 -147 190 -147q69 0 113 11t82 48q45 45 45 154v84h-244q-91 0 -138.5 -39.5t-47.5 -110.5z" />
<glyph unicode="&#xe3;" horiz-adv-x="1085" d="M88 305q0 135 92.5 217t265.5 82h275v74q0 100 -53.5 147t-173.5 47q-86 0 -135.5 -22t-92.5 -78l-137 129q72 84 156.5 117t216.5 33q428 0 428 -357v-694h-205v94q-58 -58 -119.5 -82t-156.5 -24q-185 0 -279 94q-82 85 -82 223zM172 1368q66 66 113 89.5t100 23.5 q72 0 154 -49q64 -39 112 -39q58 0 121 63l98 -96q-65 -65 -113.5 -89t-99.5 -24q-73 0 -153 47q-66 39 -115 39q-31 0 -55.5 -11t-63.5 -50zM291 309q0 -147 190 -147q69 0 113 11t82 48q45 45 45 154v84h-244q-91 0 -138.5 -39.5t-47.5 -110.5z" />
<glyph unicode="&#xe4;" horiz-adv-x="1083" d="M88 305q0 135 92.5 217t265.5 82h275v74q0 100 -53.5 147t-173.5 47q-86 0 -135.5 -22t-92.5 -78l-137 129q72 84 156.5 117t216.5 33q428 0 428 -357v-694h-205v94q-58 -58 -119.5 -82t-156.5 -24q-185 0 -279 94q-82 85 -82 223zM211 1237v221h188v-221h-188zM291 309 q0 -147 190 -147q69 0 113 11t82 48q45 45 45 154v84h-244q-91 0 -138.5 -39.5t-47.5 -110.5zM653 1237v221h189v-221h-189z" />
<glyph unicode="&#xe5;" horiz-adv-x="1085" d="M88 305q0 135 92.5 217t265.5 82h275v74q0 100 -53.5 147t-173.5 47q-86 0 -135.5 -22t-92.5 -78l-137 129q72 84 156.5 117t216.5 33q428 0 428 -357v-694h-205v94q-58 -58 -119.5 -82t-156.5 -24q-185 0 -279 94q-82 85 -82 223zM270 1436q0 106 75 181t181 75t181 -75 t75 -181t-75 -181t-181 -75t-181 75t-75 181zM291 309q0 -147 190 -147q69 0 113 11t82 48q45 45 45 154v84h-244q-91 0 -138.5 -39.5t-47.5 -110.5zM395 1436q0 -54 38.5 -91.5t92.5 -37.5t92.5 37.5t38.5 91.5t-38.5 91.5t-92.5 37.5t-92.5 -37.5t-38.5 -91.5z" />
<glyph unicode="&#xe6;" horiz-adv-x="1714" d="M88 305q0 135 92.5 217t265.5 82h275v74q0 100 -53.5 147t-173.5 47q-86 0 -135.5 -22t-92.5 -78l-137 129q72 84 156.5 117t216.5 33q255 0 352 -138q113 138 307 138q206 0 323.5 -137.5t117.5 -362.5v-92h-674q0 -136 68.5 -213.5t195.5 -77.5q85 0 139.5 24t112.5 82 l133 -124q-84 -84 -171.5 -123t-217.5 -39q-247 0 -367 162q-75 -93 -159.5 -127.5t-212.5 -34.5q-185 0 -279 94q-82 85 -82 223zM291 309q0 -147 190 -147q69 0 113 11t82 48q45 45 45 154v84h-244q-91 0 -138.5 -39.5t-47.5 -110.5zM928 604h467q-3 84 -27 141 q-25 60 -80 96t-127 36t-126 -36t-79 -96t-28 -141z" />
<glyph unicode="&#xe7;" horiz-adv-x="993" d="M113 520q0 113 26 204t69.5 151t103.5 100.5t125.5 58t137.5 17.5q108 0 189 -34t154 -112l-144 -139q-50 54 -94 76t-105 22q-122 0 -192 -92q-33 -42 -47 -101t-14 -151q0 -177 61 -254q70 -92 192 -92q61 0 105 22t94 76l144 -137q-73 -78 -154 -112.5t-189 -34.5 q-72 0 -137.5 17.5t-125.5 58t-103.5 100.5t-69.5 151.5t-26 204.5zM342 -432l143 301h168l-104 -301h-207z" />
<glyph unicode="&#xe8;" horiz-adv-x="1103" d="M113 520q0 249 119 390t321 141q206 0 323 -137.5t117 -362.5v-92h-674q0 -135 69.5 -213t195.5 -78q85 0 139.5 24t112.5 82l133 -124q-84 -84 -171.5 -123t-217.5 -39q-81 0 -149 17t-127.5 56.5t-101 100t-65.5 151.5t-24 207zM281 1559h231l154 -332h-158zM319 604 h467q-3 81 -28 141t-79 96t-126 36t-127 -36t-80 -96q-24 -57 -27 -141z" />
<glyph unicode="&#xe9;" horiz-adv-x="1103" d="M113 520q0 249 119 390t321 141q206 0 323 -137.5t117 -362.5v-92h-674q0 -135 69.5 -213t195.5 -78q85 0 139.5 24t112.5 82l133 -124q-84 -84 -171.5 -123t-217.5 -39q-81 0 -149 17t-127.5 56.5t-101 100t-65.5 151.5t-24 207zM319 604h467q-3 81 -28 141t-79 96 t-126 36t-127 -36t-80 -96q-24 -57 -27 -141zM453 1227l153 332h232l-228 -332h-157z" />
<glyph unicode="&#xea;" horiz-adv-x="1103" d="M113 520q0 249 119 390t321 141q206 0 323 -137.5t117 -362.5v-92h-674q0 -135 69.5 -213t195.5 -78q85 0 139.5 24t112.5 82l133 -124q-84 -84 -171.5 -123t-217.5 -39q-81 0 -149 17t-127.5 56.5t-101 100t-65.5 151.5t-24 207zM207 1227l264 329h176l264 -329h-174 l-178 198l-178 -198h-174zM319 604h467q-3 81 -28 141t-79 96t-126 36t-127 -36t-80 -96q-24 -57 -27 -141z" />
<glyph unicode="&#xeb;" horiz-adv-x="1103" d="M113 520q0 249 119 390t321 141q206 0 323 -137.5t117 -362.5v-92h-674q0 -135 69.5 -213t195.5 -78q85 0 139.5 24t112.5 82l133 -124q-84 -84 -171.5 -123t-217.5 -39q-81 0 -149 17t-127.5 56.5t-101 100t-65.5 151.5t-24 207zM242 1237v221h188v-221h-188zM319 604 h467q-3 81 -28 141t-79 96t-126 36t-127 -36t-80 -96q-24 -57 -27 -141zM684 1237v221h188v-221h-188z" />
<glyph unicode="&#xec;" horiz-adv-x="540" d="M-27 1559h232l153 -332h-157zM166 0v1038h209v-1038h-209z" />
<glyph unicode="&#xed;" horiz-adv-x="540" d="M166 0v1038h209v-1038h-209zM182 1227l154 332h231l-227 -332h-158z" />
<glyph unicode="&#xee;" horiz-adv-x="540" d="M-76 1227l264 329h177l264 -329h-174l-179 198l-178 -198h-174zM166 0v1038h209v-1038h-209z" />
<glyph unicode="&#xef;" horiz-adv-x="540" d="M-43 1237v221h188v-221h-188zM166 0v1038h209v-1038h-209zM399 1237v221h189v-221h-189z" />
<glyph unicode="&#xf0;" horiz-adv-x="1099" d="M125 510q0 140 26 235t95 166q81 84 213 105q83 14 155 -4l-92 166h-237v147h159l-79 143h221l80 -143h178v-147h-103l105 -193q78 -145 103.5 -239t25.5 -236q0 -140 -26 -235t-95 -166q-114 -121 -305 -121q-189 0 -303 121q-69 71 -95 166t-26 235zM334 510 q0 -100 13 -167t54 -110q59 -59 148 -59q90 0 149 59q41 43 54.5 110.5t13.5 166.5t-13 166t-55 110q-60 60 -149 60q-88 0 -148 -60q-41 -43 -54 -109.5t-13 -166.5z" />
<glyph unicode="&#xf1;" horiz-adv-x="1163" d="M166 0v1038h205v-104q108 117 276 117q158 0 256 -95q105 -102 105 -292v-664h-209v633q0 116 -58 173.5t-151 57.5q-94 0 -154.5 -58.5t-60.5 -172.5v-633h-209zM233 1368q66 66 113 89.5t100 23.5q72 0 154 -49q64 -39 113 -39q58 0 121 63l98 -96q-65 -65 -113.5 -89 t-99.5 -24q-74 0 -154 47q-66 39 -114 39q-31 0 -55.5 -11t-63.5 -50z" />
<glyph unicode="&#xf2;" horiz-adv-x="1099" d="M117 520q0 141 26.5 238.5t96.5 169.5q119 123 309 123q192 0 311 -123q70 -72 96.5 -169.5t26.5 -238.5q0 -142 -26.5 -239t-96.5 -170q-119 -123 -311 -123q-190 0 -309 123q-70 73 -96.5 170t-26.5 239zM256 1559h231l154 -332h-158zM326 520q0 -102 14 -171.5 t57 -112.5q62 -62 152 -62q91 0 153 62q43 43 57.5 113t14.5 171t-14.5 171.5t-57.5 113.5q-59 59 -153 59q-93 0 -152 -59q-43 -43 -57 -113t-14 -172z" />
<glyph unicode="&#xf3;" horiz-adv-x="1099" d="M117 520q0 141 26.5 238.5t96.5 169.5q119 123 309 123q192 0 311 -123q70 -72 96.5 -169.5t26.5 -238.5q0 -142 -26.5 -239t-96.5 -170q-119 -123 -311 -123q-190 0 -309 123q-70 73 -96.5 170t-26.5 239zM326 520q0 -102 14 -171.5t57 -112.5q62 -62 152 -62 q91 0 153 62q43 43 57.5 113t14.5 171t-14.5 171.5t-57.5 113.5q-59 59 -153 59q-93 0 -152 -59q-43 -43 -57 -113t-14 -172zM442 1227l154 332h231l-227 -332h-158z" />
<glyph unicode="&#xf4;" horiz-adv-x="1099" d="M117 520q0 141 26.5 238.5t96.5 169.5q119 123 309 123q192 0 311 -123q70 -72 96.5 -169.5t26.5 -238.5q0 -142 -26.5 -239t-96.5 -170q-119 -123 -311 -123q-190 0 -309 123q-70 73 -96.5 170t-26.5 239zM197 1227l264 329h176l264 -329h-174l-178 198l-178 -198h-174z M326 520q0 -102 14 -171.5t57 -112.5q62 -62 152 -62q91 0 153 62q43 43 57.5 113t14.5 171t-14.5 171.5t-57.5 113.5q-59 59 -153 59q-93 0 -152 -59q-43 -43 -57 -113t-14 -172z" />
<glyph unicode="&#xf5;" horiz-adv-x="1099" d="M117 520q0 141 26.5 238.5t96.5 169.5q119 123 309 123q192 0 311 -123q70 -72 96.5 -169.5t26.5 -238.5q0 -142 -26.5 -239t-96.5 -170q-119 -123 -311 -123q-190 0 -309 123q-70 73 -96.5 170t-26.5 239zM195 1368q66 66 113 89.5t100 23.5q42 0 75.5 -11.5t77.5 -37.5 q64 -39 113 -39q58 0 121 63l98 -96q-65 -65 -113.5 -89t-99.5 -24q-74 0 -154 47q-66 39 -114 39q-31 0 -55.5 -11t-63.5 -50zM326 520q0 -102 14 -171.5t57 -112.5q62 -62 152 -62q91 0 153 62q43 43 57.5 113t14.5 171t-14.5 171.5t-57.5 113.5q-59 59 -153 59 q-93 0 -152 -59q-43 -43 -57 -113t-14 -172z" />
<glyph unicode="&#xf6;" horiz-adv-x="1099" d="M117 520q0 141 26.5 238.5t96.5 169.5q119 123 309 123q192 0 311 -123q70 -72 96.5 -169.5t26.5 -238.5q0 -142 -26.5 -239t-96.5 -170q-119 -123 -311 -123q-190 0 -309 123q-70 73 -96.5 170t-26.5 239zM233 1237v221h189v-221h-189zM326 520q0 -102 14 -171.5 t57 -112.5q62 -62 152 -62q91 0 153 62q43 43 57.5 113t14.5 171t-14.5 171.5t-57.5 113.5q-59 59 -153 59q-93 0 -152 -59q-43 -43 -57 -113t-14 -172zM676 1237v221h188v-221h-188z" />
<glyph unicode="&#xf7;" d="M98 471v195h893v-195h-893zM434 68v223h223v-223h-223zM434 848v223h223v-223h-223z" />
<glyph unicode="&#xf8;" horiz-adv-x="1099" d="M117 520q0 141 26.5 238.5t96.5 169.5q119 123 309 123q119 0 215 -52l76 129h141l-121 -200q70 -72 96.5 -169.5t26.5 -238.5q0 -142 -26.5 -239t-96.5 -170q-119 -123 -311 -123q-119 0 -213 51l-76 -129h-141l119 203q-69 72 -95 168.5t-26 238.5zM326 520 q0 -155 30 -223l316 532q-53 35 -123 35q-93 0 -152 -59q-43 -43 -57 -113t-14 -172zM428 211q53 -37 121 -37q91 0 153 62q43 43 57.5 113t14.5 171q0 153 -31 223z" />
<glyph unicode="&#xf9;" horiz-adv-x="1163" d="M156 375v663h209v-632q0 -116 57.5 -174t150.5 -58q94 0 154.5 59t60.5 173v632h209v-1038h-204v104q-107 -116 -277 -116q-159 0 -256 94q-104 101 -104 293zM297 1559h231l154 -332h-158z" />
<glyph unicode="&#xfa;" horiz-adv-x="1163" d="M156 375v663h209v-632q0 -116 57.5 -174t150.5 -58q94 0 154.5 59t60.5 173v632h209v-1038h-204v104q-107 -116 -277 -116q-159 0 -256 94q-104 101 -104 293zM469 1227l154 332h231l-227 -332h-158z" />
<glyph unicode="&#xfb;" horiz-adv-x="1163" d="M156 375v663h209v-632q0 -116 57.5 -174t150.5 -58q94 0 154.5 59t60.5 173v632h209v-1038h-204v104q-107 -116 -277 -116q-159 0 -256 94q-104 101 -104 293zM223 1227l264 329h177l264 -329h-174l-179 198l-178 -198h-174z" />
<glyph unicode="&#xfc;" horiz-adv-x="1163" d="M156 375v663h209v-632q0 -116 57.5 -174t150.5 -58q94 0 154.5 59t60.5 173v632h209v-1038h-204v104q-107 -116 -277 -116q-159 0 -256 94q-104 101 -104 293zM258 1237v221h188v-221h-188zM700 1237v221h189v-221h-189z" />
<glyph unicode="&#xfd;" horiz-adv-x="958" d="M16 1038h222l247 -731l242 731h223l-458 -1245q-29 -82 -76 -129q-76 -76 -213 -76h-84v189h53q65 0 95.5 23t54.5 87l57 162zM377 1227l153 332h232l-227 -332h-158z" />
<glyph unicode="&#xfe;" horiz-adv-x="1134" d="M166 -420v1878h209v-524q55 65 119.5 91t152.5 26q159 0 252 -93q70 -70 93.5 -180.5t23.5 -257.5q0 -148 -23.5 -259t-93.5 -181q-92 -92 -252 -92q-87 0 -152 26.5t-120 91.5v-526h-209zM375 520q0 -61 4.5 -107.5t18 -93.5t36.5 -77t63 -49t95 -19t94.5 19t62.5 49 t36.5 77.5t17.5 93.5t4 107t-4 107t-17.5 93t-36.5 76.5t-62.5 48.5t-94.5 19t-95 -19t-63 -48.5t-36.5 -76.5t-18 -93t-4.5 -107z" />
<glyph unicode="&#xff;" horiz-adv-x="958" d="M16 1038h222l247 -731l242 731h223l-458 -1245q-29 -82 -76 -129q-76 -76 -213 -76h-84v189h53q65 0 95.5 23t54.5 87l57 162zM168 1237v221h188v-221h-188zM610 1237v221h189v-221h-189z" />
<glyph unicode="&#x100;" horiz-adv-x="1280" d="M16 0l535 1458h178l535 -1458h-236l-100 293h-576l-100 -293h-236zM322 1628v150h632v-150h-632zM418 481h448l-221 647z" />
<glyph unicode="&#x101;" horiz-adv-x="1083" d="M88 305q0 135 92.5 217t265.5 82h275v74q0 100 -53.5 147t-173.5 47q-86 0 -135.5 -22t-92.5 -78l-137 129q72 84 156.5 117t216.5 33q428 0 428 -357v-694h-205v94q-58 -58 -119.5 -82t-156.5 -24q-185 0 -279 94q-82 85 -82 223zM223 1266v149h633v-149h-633zM291 309 q0 -147 190 -147q69 0 113 11t82 48q45 45 45 154v84h-244q-91 0 -138.5 -39.5t-47.5 -110.5z" />
<glyph unicode="&#x102;" horiz-adv-x="1280" d="M16 0l535 1458h178l535 -1458h-236l-100 293h-576l-100 -293h-236zM307 1919h148q9 -70 60.5 -107.5t129.5 -37.5t130 37.5t61 107.5h147q-9 -149 -98.5 -223t-239.5 -74t-239.5 74t-98.5 223zM418 481h448l-221 647z" />
<glyph unicode="&#x103;" horiz-adv-x="1085" d="M88 305q0 135 92.5 217t265.5 82h275v74q0 100 -53.5 147t-173.5 47q-86 0 -135.5 -22t-92.5 -78l-137 129q72 84 156.5 117t216.5 33q428 0 428 -357v-694h-205v94q-58 -58 -119.5 -82t-156.5 -24q-185 0 -279 94q-82 85 -82 223zM168 1511h147q9 -70 60.5 -106.5 t130.5 -36.5q42 0 81 14t70 47.5t37 81.5h148q-9 -149 -97.5 -223t-238.5 -74q-151 0 -240 74t-98 223zM291 309q0 -147 190 -147q69 0 113 11t82 48q45 45 45 154v84h-244q-91 0 -138.5 -39.5t-47.5 -110.5z" />
<glyph unicode="&#x104;" horiz-adv-x="1280" d="M16 0l535 1458h178l535 -1458h-236l-100 293h-576l-100 -293h-236zM418 481h448l-221 647zM866 -432l144 301h168l-105 -301h-207z" />
<glyph unicode="&#x105;" horiz-adv-x="1085" d="M88 305q0 135 92.5 217t265.5 82h275v74q0 100 -53.5 147t-173.5 47q-86 0 -135.5 -22t-92.5 -78l-137 129q72 84 156.5 117t216.5 33q428 0 428 -357v-694h-205v94q-58 -58 -119.5 -82t-156.5 -24q-185 0 -279 94q-82 85 -82 223zM291 309q0 -147 190 -147q69 0 113 11 t82 48q45 45 45 154v84h-244q-91 0 -138.5 -39.5t-47.5 -110.5zM582 -432l143 301h168l-105 -301h-206z" />
<glyph unicode="&#x106;" horiz-adv-x="1286" d="M137 729q0 80 0.5 115t3 97.5t7.5 93t15 77t25.5 76t38 63.5t52.5 64q155 155 383 155q204 0 343 -116.5t177 -331.5h-226q-27 115 -102 182.5t-192 67.5q-134 0 -216 -88q-54 -58 -71 -146.5t-17 -308.5t17 -308.5t71 -146.5q82 -88 216 -88q117 0 193 67.5t103 182.5 h224q-36 -214 -176.5 -331t-343.5 -117q-228 0 -383 155q-30 30 -52.5 64t-38 63.5t-25.5 76t-15 77t-7.5 93t-3 97.5t-0.5 115zM537 1599l153 332h232l-228 -332h-157z" />
<glyph unicode="&#x107;" horiz-adv-x="993" d="M113 520q0 113 26 204t69.5 151t103.5 100.5t125.5 58t137.5 17.5q108 0 189 -34t154 -112l-144 -139q-50 54 -94 76t-105 22q-122 0 -192 -92q-33 -42 -47 -101t-14 -151q0 -177 61 -254q70 -92 192 -92q61 0 105 22t94 76l144 -137q-73 -78 -154 -112.5t-189 -34.5 q-72 0 -137.5 17.5t-125.5 58t-103.5 100.5t-69.5 151.5t-26 204.5zM436 1227l154 332h231l-227 -332h-158z" />
<glyph unicode="&#x108;" horiz-adv-x="1286" d="M137 729q0 80 0.5 115t3 97.5t7.5 93t15 77t25.5 76t38 63.5t52.5 64q155 155 383 155q204 0 343 -116.5t177 -331.5h-226q-27 115 -102 182.5t-192 67.5q-134 0 -216 -88q-54 -58 -71 -146.5t-17 -308.5t17 -308.5t71 -146.5q82 -88 216 -88q117 0 193 67.5t103 182.5 h224q-36 -214 -176.5 -331t-343.5 -117q-228 0 -383 155q-30 30 -52.5 64t-38 63.5t-25.5 76t-15 77t-7.5 93t-3 97.5t-0.5 115zM309 1599l264 330h177l264 -330h-174l-178 199l-179 -199h-174z" />
<glyph unicode="&#x109;" horiz-adv-x="1001" d="M113 520q0 113 26 204t69.5 151t103.5 100.5t125.5 58t137.5 17.5q108 0 189 -34t154 -112l-144 -139q-50 54 -94 76t-105 22q-122 0 -192 -92q-33 -42 -47 -101t-14 -151q0 -177 61 -254q70 -92 192 -92q61 0 105 22t94 76l144 -137q-73 -78 -154 -112.5t-189 -34.5 q-72 0 -137.5 17.5t-125.5 58t-103.5 100.5t-69.5 151.5t-26 204.5zM221 1227l264 329h177l264 -329h-174l-179 198l-178 -198h-174z" />
<glyph unicode="&#x10a;" horiz-adv-x="1286" d="M137 729q0 80 0.5 115t3 97.5t7.5 93t15 77t25.5 76t38 63.5t52.5 64q155 155 383 155q204 0 343 -116.5t177 -331.5h-226q-27 115 -102 182.5t-192 67.5q-134 0 -216 -88q-54 -58 -71 -146.5t-17 -308.5t17 -308.5t71 -146.5q82 -88 216 -88q117 0 193 67.5t103 182.5 h224q-36 -214 -176.5 -331t-343.5 -117q-228 0 -383 155q-30 30 -52.5 64t-38 63.5t-25.5 76t-15 77t-7.5 93t-3 97.5t-0.5 115zM557 1624v199h199v-199h-199z" />
<glyph unicode="&#x10b;" horiz-adv-x="993" d="M113 520q0 113 26 204t69.5 151t103.5 100.5t125.5 58t137.5 17.5q108 0 189 -34t154 -112l-144 -139q-50 54 -94 76t-105 22q-122 0 -192 -92q-33 -42 -47 -101t-14 -151q0 -177 61 -254q70 -92 192 -92q61 0 105 22t94 76l144 -137q-73 -78 -154 -112.5t-189 -34.5 q-72 0 -137.5 17.5t-125.5 58t-103.5 100.5t-69.5 151.5t-26 204.5zM473 1251v199h199v-199h-199z" />
<glyph unicode="&#x10c;" horiz-adv-x="1286" d="M137 729q0 80 0.5 115t3 97.5t7.5 93t15 77t25.5 76t38 63.5t52.5 64q155 155 383 155q204 0 343 -116.5t177 -331.5h-226q-27 115 -102 182.5t-192 67.5q-134 0 -216 -88q-54 -58 -71 -146.5t-17 -308.5t17 -308.5t71 -146.5q82 -88 216 -88q117 0 193 67.5t103 182.5 h224q-36 -214 -176.5 -331t-343.5 -117q-228 0 -383 155q-30 30 -52.5 64t-38 63.5t-25.5 76t-15 77t-7.5 93t-3 97.5t-0.5 115zM291 1929h174l178 -198l178 198h174l-264 -330h-176z" />
<glyph unicode="&#x10d;" horiz-adv-x="993" d="M113 520q0 113 26 204t69.5 151t103.5 100.5t125.5 58t137.5 17.5q108 0 189 -34t154 -112l-144 -139q-50 54 -94 76t-105 22q-122 0 -192 -92q-33 -42 -47 -101t-14 -151q0 -177 61 -254q70 -92 192 -92q61 0 105 22t94 76l144 -137q-73 -78 -154 -112.5t-189 -34.5 q-72 0 -137.5 17.5t-125.5 58t-103.5 100.5t-69.5 151.5t-26 204.5zM223 1556h174l178 -198l179 198h174l-264 -329h-177z" />
<glyph unicode="&#x10e;" horiz-adv-x="1363" d="M190 0v1458h512q240 0 377 -137q36 -36 62.5 -76.5t42.5 -89.5t25 -86.5t13 -99t4.5 -93.5t0.5 -101v-12.5v-11v-12.5q0 -203 -9 -279q-24 -208 -139 -323q-137 -137 -377 -137h-512zM330 1929h174l178 -198l178 198h174l-264 -330h-176zM412 199h268q160 0 248 98 q27 30 44 73t24 107.5t8.5 116t1.5 145.5q0 182 -13 273.5t-65 148.5q-89 99 -248 99h-268v-1061z" />
<glyph unicode="&#x10f;" horiz-adv-x="1132" d="M117 520q0 148 23 258t93 180q93 93 252 93q88 0 153 -26t120 -91v524h209v-1458h-205v111q-56 -68 -121 -95.5t-154 -27.5q-77 0 -144 24.5t-110 67.5q-70 70 -93 180.5t-23 259.5zM326 520q0 -61 4.5 -107.5t18 -93.5t36.5 -77t63 -49t95 -19t94.5 19t62.5 49 t36.5 77.5t17.5 93.5t4 107t-4 107t-17.5 93t-36.5 76.5t-62.5 48.5t-94.5 19t-95 -19t-63 -48.5t-36.5 -76.5t-18 -93t-4.5 -107zM1090 1169l75 326h193l-115 -326h-153z" />
<glyph unicode="&#x110;" horiz-adv-x="1400" d="M78 651v170h151v637h512q262 0 412 -194q28 -36 47 -67.5t31.5 -73t19 -71.5t9.5 -90.5t3.5 -101t0.5 -131.5q0 -244 -18 -343.5t-93 -192.5q-72 -90 -178.5 -141.5t-239.5 -51.5h-506v651h-151zM451 197h264q184 0 272 129q36 55 45.5 123t9.5 274q0 205 -11 280 t-52 132q-47 66 -110 96.5t-154 30.5h-264v-441h282v-170h-282v-454z" />
<glyph unicode="&#x111;" horiz-adv-x="1132" d="M117 520q0 148 23 258t93 180q93 93 252 93q88 0 153 -26t120 -91v231h-142v150h142v143h209v-143h120v-150h-120v-1165h-205v111q-56 -68 -121 -95.5t-154 -27.5q-77 0 -144 24.5t-110 67.5q-70 70 -93 180.5t-23 259.5zM326 520q0 -61 4.5 -107.5t18 -93.5t36.5 -77 t63 -49t95 -19t94.5 19t62.5 49t36.5 77.5t17.5 93.5t4 107t-4 107t-17.5 93t-36.5 76.5t-62.5 48.5t-94.5 19t-95 -19t-63 -48.5t-36.5 -76.5t-18 -93t-4.5 -107z" />
<glyph unicode="&#x112;" horiz-adv-x="1234" d="M190 0v1458h932v-198h-710v-426h606v-197h-606v-438h710v-199h-932zM315 1628v150h633v-150h-633z" />
<glyph unicode="&#x113;" horiz-adv-x="1103" d="M113 520q0 249 119 390t321 141q206 0 323 -137.5t117 -362.5v-92h-674q0 -135 69.5 -213t195.5 -78q85 0 139.5 24t112.5 82l133 -124q-84 -84 -171.5 -123t-217.5 -39q-81 0 -149 17t-127.5 56.5t-101 100t-65.5 151.5t-24 207zM233 1266v149h633v-149h-633zM319 604 h467q-3 81 -28 141t-79 96t-126 36t-127 -36t-80 -96q-24 -57 -27 -141z" />
<glyph unicode="&#x116;" horiz-adv-x="1234" d="M190 0v1458h932v-198h-710v-426h606v-197h-606v-438h710v-199h-932zM532 1624v199h199v-199h-199z" />
<glyph unicode="&#x117;" horiz-adv-x="1103" d="M113 520q0 249 119 390t321 141q206 0 323 -137.5t117 -362.5v-92h-674q0 -135 69.5 -213t195.5 -78q85 0 139.5 24t112.5 82l133 -124q-84 -84 -171.5 -123t-217.5 -39q-81 0 -149 17t-127.5 56.5t-101 100t-65.5 151.5t-24 207zM319 604h467q-3 81 -28 141t-79 96 t-126 36t-127 -36t-80 -96q-24 -57 -27 -141zM451 1251v199h198v-199h-198z" />
<glyph unicode="&#x118;" horiz-adv-x="1234" d="M190 0v1458h932v-198h-710v-426h606v-197h-606v-438h710v-199h-932zM811 -432l143 301h168l-104 -301h-207z" />
<glyph unicode="&#x119;" horiz-adv-x="1103" d="M113 520q0 249 119 390t321 141q206 0 323 -137.5t117 -362.5v-92h-674q0 -135 69.5 -213t195.5 -78q85 0 139.5 24t112.5 82l133 -124q-84 -84 -171.5 -123t-217.5 -39q-81 0 -149 17t-127.5 56.5t-101 100t-65.5 151.5t-24 207zM319 604h467q-3 81 -28 141t-79 96 t-126 36t-127 -36t-80 -96q-24 -57 -27 -141zM485 -432l144 301h168l-105 -301h-207z" />
<glyph unicode="&#x11a;" horiz-adv-x="1234" d="M190 0v1458h932v-198h-710v-426h606v-197h-606v-438h710v-199h-932zM281 1929h174l178 -198l178 198h174l-264 -330h-176z" />
<glyph unicode="&#x11b;" horiz-adv-x="1103" d="M113 520q0 249 119 390t321 141q206 0 323 -137.5t117 -362.5v-92h-674q0 -135 69.5 -213t195.5 -78q85 0 139.5 24t112.5 82l133 -124q-84 -84 -171.5 -123t-217.5 -39q-81 0 -149 17t-127.5 56.5t-101 100t-65.5 151.5t-24 207zM199 1556h174l178 -198l178 198h174 l-264 -329h-176zM319 604h467q-3 81 -28 141t-79 96t-126 36t-127 -36t-80 -96q-24 -57 -27 -141z" />
<glyph unicode="&#x11c;" horiz-adv-x="1329" d="M137 729q0 80 0.5 115t3 97.5t7.5 93t15 77t25.5 76t38 63.5t52.5 64q155 155 383 155q113 0 207 -35t159 -97.5t106.5 -143.5t57.5 -176h-223q-28 121 -106.5 187.5t-200.5 66.5q-64 0 -120.5 -24t-95.5 -66q-54 -59 -71 -146t-17 -307t17 -308.5t71 -146.5 q82 -88 216 -88q148 0 237 103q74 85 74 229v82h-311v188h532v-223q0 -143 -30 -239.5t-101 -171.5q-157 -166 -401 -166q-228 0 -383 155q-30 30 -52.5 64t-38 63.5t-25.5 76t-15 77t-7.5 93t-3 97.5t-0.5 115zM309 1599l264 330h177l264 -330h-174l-178 199l-179 -199 h-174z" />
<glyph unicode="&#x11d;" horiz-adv-x="1124" d="M117 539q0 151 23.5 252t92.5 170q90 90 250 90q87 0 152 -27.5t121 -95.5v110h202v-1032q0 -194 -120 -316t-324 -122q-119 0 -202 31t-165 106l134 133q53 -49 102.5 -70.5t122.5 -21.5q124 0 184 75t60 189v133q-55 -65 -120 -91.5t-149 -26.5q-156 0 -248 92 q-69 69 -92.5 170t-23.5 252zM186 1227l265 329h176l264 -329h-174l-178 198l-179 -198h-174zM326 539q0 -55 4 -97.5t17 -87.5t35.5 -74t62.5 -48t94 -19t93.5 19t62 48t35.5 74.5t16.5 87t3.5 97.5t-3.5 97.5t-16.5 87t-35.5 74t-62 47.5t-93.5 19t-94 -19t-62.5 -47.5 t-35.5 -73.5t-17 -87.5t-4 -97.5z" />
<glyph unicode="&#x11e;" horiz-adv-x="1329" d="M137 729q0 80 0.5 115t3 97.5t7.5 93t15 77t25.5 76t38 63.5t52.5 64q155 155 383 155q113 0 207 -35t159 -97.5t106.5 -143.5t57.5 -176h-223q-28 121 -106.5 187.5t-200.5 66.5q-64 0 -120.5 -24t-95.5 -66q-54 -59 -71 -146t-17 -307t17 -308.5t71 -146.5 q82 -88 216 -88q148 0 237 103q74 85 74 229v82h-311v188h532v-223q0 -143 -30 -239.5t-101 -171.5q-157 -166 -401 -166q-228 0 -383 155q-30 30 -52.5 64t-38 63.5t-25.5 76t-15 77t-7.5 93t-3 97.5t-0.5 115zM324 1919h147q9 -70 61 -107.5t130 -37.5t129.5 37.5 t60.5 107.5h147q-9 -149 -98 -223t-239 -74t-239.5 74t-98.5 223z" />
<glyph unicode="&#x11f;" horiz-adv-x="1124" d="M117 539q0 151 23.5 252t92.5 170q90 90 250 90q87 0 152 -27.5t121 -95.5v110h202v-1032q0 -194 -120 -316t-324 -122q-119 0 -202 31t-165 106l134 133q53 -49 102.5 -70.5t122.5 -21.5q124 0 184 75t60 189v133q-55 -65 -120 -91.5t-149 -26.5q-156 0 -248 92 q-69 69 -92.5 170t-23.5 252zM201 1511h147q9 -70 60.5 -106.5t130.5 -36.5q42 0 81 14t70 47.5t37 81.5h147q-9 -149 -97 -223t-238 -74q-151 0 -240 74t-98 223zM326 539q0 -55 4 -97.5t17 -87.5t35.5 -74t62.5 -48t94 -19t93.5 19t62 48t35.5 74.5t16.5 87t3.5 97.5 t-3.5 97.5t-16.5 87t-35.5 74t-62 47.5t-93.5 19t-94 -19t-62.5 -47.5t-35.5 -73.5t-17 -87.5t-4 -97.5z" />
<glyph unicode="&#x120;" horiz-adv-x="1329" d="M137 729q0 80 0.5 115t3 97.5t7.5 93t15 77t25.5 76t38 63.5t52.5 64q155 155 383 155q113 0 207 -35t159 -97.5t106.5 -143.5t57.5 -176h-223q-28 121 -106.5 187.5t-200.5 66.5q-64 0 -120.5 -24t-95.5 -66q-54 -59 -71 -146t-17 -307t17 -308.5t71 -146.5 q82 -88 216 -88q148 0 237 103q74 85 74 229v82h-311v188h532v-223q0 -143 -30 -239.5t-101 -171.5q-157 -166 -401 -166q-228 0 -383 155q-30 30 -52.5 64t-38 63.5t-25.5 76t-15 77t-7.5 93t-3 97.5t-0.5 115zM559 1624v199h199v-199h-199z" />
<glyph unicode="&#x121;" horiz-adv-x="1124" d="M117 539q0 151 23.5 252t92.5 170q90 90 250 90q87 0 152 -27.5t121 -95.5v110h202v-1032q0 -194 -120 -316t-324 -122q-119 0 -202 31t-165 106l134 133q53 -49 102.5 -70.5t122.5 -21.5q124 0 184 75t60 189v133q-55 -65 -120 -91.5t-149 -26.5q-156 0 -248 92 q-69 69 -92.5 170t-23.5 252zM326 539q0 -55 4 -97.5t17 -87.5t35.5 -74t62.5 -48t94 -19t93.5 19t62 48t35.5 74.5t16.5 87t3.5 97.5t-3.5 97.5t-16.5 87t-35.5 74t-62 47.5t-93.5 19t-94 -19t-62.5 -47.5t-35.5 -73.5t-17 -87.5t-4 -97.5zM436 1251v199h199v-199h-199z " />
<glyph unicode="&#x122;" horiz-adv-x="1329" d="M137 729q0 80 0.5 115t3 97.5t7.5 93t15 77t25.5 76t38 63.5t52.5 64q155 155 383 155q113 0 207 -35t159 -97.5t106.5 -143.5t57.5 -176h-223q-28 121 -106.5 187.5t-200.5 66.5q-64 0 -120.5 -24t-95.5 -66q-54 -59 -71 -146t-17 -307t17 -308.5t71 -146.5 q82 -88 216 -88q148 0 237 103q74 85 74 229v82h-311v188h532v-223q0 -143 -30 -239.5t-101 -171.5q-157 -166 -401 -166q-228 0 -383 155q-30 30 -52.5 64t-38 63.5t-25.5 76t-15 77t-7.5 93t-3 97.5t-0.5 115zM494 -432l143 301h168l-105 -301h-206z" />
<glyph unicode="&#x123;" horiz-adv-x="1124" d="M117 539q0 151 23.5 252t92.5 170q90 90 250 90q87 0 152 -27.5t121 -95.5v110h202v-1032q0 -194 -120 -316t-324 -122q-119 0 -202 31t-165 106l134 133q53 -49 102.5 -70.5t122.5 -21.5q124 0 184 75t60 189v133q-55 -65 -120 -91.5t-149 -26.5q-156 0 -248 92 q-69 69 -92.5 170t-23.5 252zM326 539q0 -55 4 -97.5t17 -87.5t35.5 -74t62.5 -48t94 -19t93.5 19t62 48t35.5 74.5t16.5 87t3.5 97.5t-3.5 97.5t-16.5 87t-35.5 74t-62 47.5t-93.5 19t-94 -19t-62.5 -47.5t-35.5 -73.5t-17 -87.5t-4 -97.5zM453 1227l153 332h232l-228 -332 h-157z" />
<glyph unicode="&#x124;" horiz-adv-x="1415" d="M190 0v1458h222v-622h592v622h221v-1458h-221v637h-592v-637h-222zM354 1599l264 330h177l264 -330h-174l-178 199l-179 -199h-174z" />
<glyph unicode="&#x125;" horiz-adv-x="1159" d="M-80 1597l264 330h176l265 -330h-174l-179 199l-178 -199h-174zM166 0v1458h209v-524q108 117 268 117q170 0 265.5 -104.5t95.5 -276.5v-670h-209v637q0 113 -58 170t-151 57t-152 -57.5t-59 -169.5v-637h-209z" />
<glyph unicode="&#x126;" horiz-adv-x="1480" d="M78 1047v172h145v239h221v-239h592v239h221v-239h146v-172h-146v-1047h-221v637h-592v-637h-221v1047h-145zM444 836h592v211h-592v-211z" />
<glyph unicode="&#x127;" horiz-adv-x="1159" d="M53 1165v135h113v158h209v-158h211v-135h-211v-231q60 61 124 89t146 28q169 0 264 -105t95 -278v-668h-209v637q0 113 -58 170t-151 57q-92 0 -151.5 -58t-59.5 -169v-637h-209v1165h-113z" />
<glyph unicode="&#x12a;" horiz-adv-x="602" d="M-14 1628v150h632v-150h-632zM190 0v1458h222v-1458h-222z" />
<glyph unicode="&#x12b;" horiz-adv-x="540" d="M-45 1266v149h633v-149h-633zM166 0v1038h209v-1038h-209z" />
<glyph unicode="&#x12e;" horiz-adv-x="602" d="M47 -432l143 301h168l-104 -301h-207zM190 0v1458h222v-1458h-222z" />
<glyph unicode="&#x12f;" horiz-adv-x="540" d="M23 -432l143 301h168l-105 -301h-206zM160 1243v221h221v-221h-221zM166 0v1038h209v-1038h-209z" />
<glyph unicode="&#x130;" horiz-adv-x="602" d="M190 0v1458h222v-1458h-222zM205 1624v199h198v-199h-198z" />
<glyph unicode="&#x131;" horiz-adv-x="540" d="M166 0v1038h209v-1038h-209z" />
<glyph unicode="&#x134;" horiz-adv-x="1024" d="M27 129l147 145q44 -44 89 -66t118 -22q125 0 194.5 75t69.5 216v981h221v-997q0 -147 -66 -256t-174.5 -163t-244.5 -54q-113 0 -196 33t-158 108zM401 1599l265 330h176l264 -330h-174l-178 199l-179 -199h-174z" />
<glyph unicode="&#x135;" horiz-adv-x="540" d="M-82 1227l264 329h176l265 -329h-174l-179 198l-178 -198h-174zM-39 -246h92q61 0 87 29.5t26 91.5v1163h209v-1175q0 -124 -72 -205.5t-213 -81.5h-129v178z" />
<glyph unicode="&#x136;" horiz-adv-x="1347" d="M190 0v1458h222v-733l596 733h270l-473 -571l522 -887h-260l-410 719l-245 -295v-424h-222zM508 -432l143 301h168l-104 -301h-207z" />
<glyph unicode="&#x137;" horiz-adv-x="1122" d="M166 0v1458h209v-899l403 479h254l-360 -407l405 -631h-258l-291 479l-153 -174v-305h-209zM393 -432l144 301h168l-105 -301h-207z" />
<glyph unicode="&#x139;" horiz-adv-x="1175" d="M190 0v1458h222v-1259h702v-199h-924zM360 1599l154 332h231l-227 -332h-158z" />
<glyph unicode="&#x13a;" horiz-adv-x="636" d="M160 287v1171h209v-1159q0 -62 25.5 -91.5t86.5 -29.5h92v-178h-129q-141 0 -212.5 81t-71.5 206zM213 1599l154 332h231l-227 -332h-158z" />
<glyph unicode="&#x13b;" horiz-adv-x="1175" d="M190 0v1458h222v-1259h702v-199h-924zM418 -432l143 301h168l-104 -301h-207z" />
<glyph unicode="&#x13c;" horiz-adv-x="636" d="M152 -432l143 301h168l-105 -301h-206zM160 287v1171h209v-1159q0 -62 25.5 -91.5t86.5 -29.5h92v-178h-129q-141 0 -212.5 81t-71.5 206z" />
<glyph unicode="&#x13d;" horiz-adv-x="1175" d="M190 0v1458h222v-1259h702v-199h-924zM627 1133l75 325h193l-115 -325h-153z" />
<glyph unicode="&#x13e;" horiz-adv-x="636" d="M160 287v1171h209v-1159q0 -62 25.5 -91.5t86.5 -29.5h92v-178h-129q-141 0 -212.5 81t-71.5 206zM492 1169l75 326h193l-115 -326h-153z" />
<glyph unicode="&#x141;" horiz-adv-x="1202" d="M78 455v190l141 88v725h221v-586l289 183v-187l-289 -182v-487h701v-199h-922v545z" />
<glyph unicode="&#x142;" horiz-adv-x="667" d="M68 584v178l120 74v622h209v-495l144 88v-177l-144 -90v-485q0 -62 26 -91.5t87 -29.5h92v-178h-129q-141 0 -213 81.5t-72 205.5v370z" />
<glyph unicode="&#x143;" horiz-adv-x="1478" d="M190 0v1458h203l674 -1024v1024h221v-1458h-203l-673 1026v-1026h-222zM633 1599l153 332h232l-227 -332h-158z" />
<glyph unicode="&#x144;" horiz-adv-x="1163" d="M166 0v1038h205v-104q108 117 276 117q158 0 256 -95q105 -102 105 -292v-664h-209v633q0 116 -58 173.5t-151 57.5q-94 0 -154.5 -58.5t-60.5 -172.5v-633h-209zM475 1227l154 332h231l-227 -332h-158z" />
<glyph unicode="&#x145;" horiz-adv-x="1478" d="M190 0v1458h203l674 -1024v1024h221v-1458h-203l-673 1026v-1026h-222zM551 -432l143 301h168l-104 -301h-207z" />
<glyph unicode="&#x146;" horiz-adv-x="1163" d="M166 0v1038h205v-104q108 117 276 117q158 0 256 -95q105 -102 105 -292v-664h-209v633q0 116 -58 173.5t-151 57.5q-94 0 -154.5 -58.5t-60.5 -172.5v-633h-209zM412 -432l143 301h168l-105 -301h-206z" />
<glyph unicode="&#x147;" horiz-adv-x="1478" d="M190 0v1458h203l674 -1024v1024h221v-1458h-203l-673 1026v-1026h-222zM387 1929h174l178 -198l179 198h174l-265 -330h-176z" />
<glyph unicode="&#x148;" horiz-adv-x="1163" d="M166 0v1038h205v-104q108 117 276 117q158 0 256 -95q105 -102 105 -292v-664h-209v633q0 116 -58 173.5t-151 57.5q-94 0 -154.5 -58.5t-60.5 -172.5v-633h-209zM229 1556h174l179 -198l178 198h174l-264 -329h-176z" />
<glyph unicode="&#x14c;" horiz-adv-x="1323" d="M137 729q0 80 0.5 115t3 97.5t7.5 93t15 77t25.5 76t38 63.5t52.5 64q155 155 383 155q230 0 385 -155q34 -34 58.5 -69.5t39.5 -81t23.5 -81t12.5 -100t4.5 -105t0.5 -127.5v-22v-22q0 -86 -0.5 -127t-4.5 -105.5t-12.5 -100t-23.5 -81t-39.5 -81t-58.5 -69.5 q-155 -155 -385 -155q-228 0 -383 155q-30 30 -52.5 64t-38 63.5t-25.5 76t-15 77t-7.5 93t-3 97.5t-0.5 115zM344 1628v150h633v-150h-633zM358 729q0 -222 16 -308.5t70 -144.5q39 -42 96.5 -66t121.5 -24t121 24t96 66q54 58 70 144.5t16 308.5t-16 308.5t-70 144.5 q-39 42 -96 66t-121 24t-121.5 -24t-96.5 -66q-54 -58 -70 -144.5t-16 -308.5z" />
<glyph unicode="&#x14d;" horiz-adv-x="1099" d="M117 520q0 141 26.5 238.5t96.5 169.5q119 123 309 123q192 0 311 -123q70 -72 96.5 -169.5t26.5 -238.5q0 -142 -26.5 -239t-96.5 -170q-119 -123 -311 -123q-190 0 -309 123q-70 73 -96.5 170t-26.5 239zM231 1266v149h633v-149h-633zM326 520q0 -102 14 -171.5 t57 -112.5q62 -62 152 -62q91 0 153 62q43 43 57.5 113t14.5 171t-14.5 171.5t-57.5 113.5q-59 59 -153 59q-93 0 -152 -59q-43 -43 -57 -113t-14 -172z" />
<glyph unicode="&#x150;" horiz-adv-x="1323" d="M137 729q0 80 0.5 115t3 97.5t7.5 93t15 77t25.5 76t38 63.5t52.5 64q155 155 383 155q230 0 385 -155q34 -34 58.5 -69.5t39.5 -81t23.5 -81t12.5 -100t4.5 -105t0.5 -127.5v-22v-22q0 -86 -0.5 -127t-4.5 -105.5t-12.5 -100t-23.5 -81t-39.5 -81t-58.5 -69.5 q-155 -155 -385 -155q-228 0 -383 155q-30 30 -52.5 64t-38 63.5t-25.5 76t-15 77t-7.5 93t-3 97.5t-0.5 115zM358 729q0 -222 16 -308.5t70 -144.5q39 -42 96.5 -66t121.5 -24t121 24t96 66q54 58 70 144.5t16 308.5t-16 308.5t-70 144.5q-39 42 -96 66t-121 24t-121.5 -24 t-96.5 -66q-54 -58 -70 -144.5t-16 -308.5zM360 1599l156 330h229l-227 -330h-158zM739 1599l156 330h229l-227 -330h-158z" />
<glyph unicode="&#x151;" horiz-adv-x="1099" d="M117 520q0 141 26.5 238.5t96.5 169.5q119 123 309 123q192 0 311 -123q70 -72 96.5 -169.5t26.5 -238.5q0 -142 -26.5 -239t-96.5 -170q-119 -123 -311 -123q-190 0 -309 123q-70 73 -96.5 170t-26.5 239zM248 1227l155 329h230l-227 -329h-158zM326 520 q0 -102 14 -171.5t57 -112.5q62 -62 152 -62q91 0 153 62q43 43 57.5 113t14.5 171t-14.5 171.5t-57.5 113.5q-59 59 -153 59q-93 0 -152 -59q-43 -43 -57 -113t-14 -172zM627 1227l155 329h230l-228 -329h-157z" />
<glyph unicode="&#x152;" horiz-adv-x="2000" d="M137 729q0 89 1 133.5t4.5 111t12.5 105t24.5 85.5t40 83.5t59.5 71.5q151 151 378 151q194 0 308 -131v119h921v-196h-700v-431h596v-192h-596v-442h702v-197h-923v119q-57 -66 -139 -98.5t-169 -32.5q-227 0 -378 151q-35 35 -59.5 71.5t-40 83.5t-24.5 85.5t-12.5 105 t-4.5 111t-1 133.5zM360 729q0 -222 16 -308.5t70 -144.5q39 -42 95.5 -66t120.5 -24t121 24t96 66q54 58 70 144.5t16 308.5t-16 308.5t-70 144.5q-39 42 -96 66t-121 24t-120.5 -24t-95.5 -66q-54 -58 -70 -144.5t-16 -308.5z" />
<glyph unicode="&#x153;" horiz-adv-x="1765" d="M117 520q0 141 26.5 238.5t96.5 169.5q119 123 309 123q112 0 198.5 -44t137.5 -122q110 166 327 166q206 0 323.5 -137.5t117.5 -362.5v-92h-674q0 -135 69 -213t195 -78q85 0 139.5 24t112.5 82l133 -124q-85 -85 -171 -123.5t-216 -38.5q-242 0 -358 164 q-51 -77 -137.5 -120.5t-196.5 -43.5q-190 0 -309 123q-70 73 -96.5 170t-26.5 239zM326 520q0 -102 14 -171.5t57 -112.5q62 -62 152 -62q91 0 153 62q43 43 57.5 113t14.5 171t-14.5 171.5t-57.5 113.5q-59 59 -153 59q-93 0 -152 -59q-43 -43 -57 -113t-14 -172zM979 604 h467q-3 84 -27 141q-25 60 -80 96t-127 36t-125.5 -36t-78.5 -96q-27 -62 -29 -141z" />
<glyph unicode="&#x154;" horiz-adv-x="1341" d="M190 0v1458h566q205 0 328.5 -119t123.5 -307q0 -151 -80.5 -251.5t-209.5 -135.5l335 -645h-258l-307 614h-276v-614h-222zM412 803h327q112 0 180 60.5t68 166.5t-68 168t-180 62h-327v-457zM563 1599l154 332h231l-227 -332h-158z" />
<glyph unicode="&#x155;" horiz-adv-x="899" d="M166 0v1038h205v-112q40 56 114.5 90.5t161.5 34.5q149 0 248 -99l-158 -157q-38 38 -71 53.5t-84 15.5q-87 0 -147 -64t-60 -169v-631h-209zM344 1227l154 332h231l-227 -332h-158z" />
<glyph unicode="&#x156;" horiz-adv-x="1341" d="M190 0v1458h566q205 0 328.5 -119t123.5 -307q0 -151 -80.5 -251.5t-209.5 -135.5l335 -645h-258l-307 614h-276v-614h-222zM412 803h327q112 0 180 60.5t68 166.5t-68 168t-180 62h-327v-457zM481 -432l144 301h168l-105 -301h-207z" />
<glyph unicode="&#x157;" horiz-adv-x="899" d="M119 -432l143 301h168l-104 -301h-207zM166 0v1038h205v-112q40 56 114.5 90.5t161.5 34.5q149 0 248 -99l-158 -157q-38 38 -71 53.5t-84 15.5q-87 0 -147 -64t-60 -169v-631h-209z" />
<glyph unicode="&#x158;" horiz-adv-x="1341" d="M190 0v1458h566q205 0 328.5 -119t123.5 -307q0 -151 -80.5 -251.5t-209.5 -135.5l335 -645h-258l-307 614h-276v-614h-222zM317 1929h175l178 -198l178 198h174l-264 -330h-176zM412 803h327q112 0 180 60.5t68 166.5t-68 168t-180 62h-327v-457z" />
<glyph unicode="&#x159;" horiz-adv-x="899" d="M119 1556h174l178 -198l178 198h174l-264 -329h-176zM166 0v1038h205v-112q40 56 114.5 90.5t161.5 34.5q149 0 248 -99l-158 -157q-38 38 -71 53.5t-84 15.5q-87 0 -147 -64t-60 -169v-631h-209z" />
<glyph unicode="&#x15a;" horiz-adv-x="1208" d="M61 180l148 146q77 -77 166 -108.5t207 -31.5q142 0 221.5 59t79.5 165q0 99 -58 151q-28 27 -61.5 40t-97.5 22l-172 24q-178 24 -277 117q-106 100 -106 278q0 193 131 310.5t356 117.5q145 0 252.5 -39t200.5 -126l-142 -140q-118 113 -317 113q-125 0 -195.5 -63.5 t-70.5 -163.5q0 -87 55 -136q58 -51 164 -67l166 -25q99 -15 162 -40.5t110 -67.5q119 -104 119 -299q0 -198 -145.5 -313t-378.5 -115q-169 0 -292 44.5t-225 147.5zM498 1599l153 332h232l-228 -332h-157z" />
<glyph unicode="&#x15b;" horiz-adv-x="1021" d="M66 137l137 137q105 -108 299 -108q101 0 164 36.5t63 106.5q0 112 -139 123l-166 14q-307 25 -307 287q0 148 111 233t280 85q251 0 385 -117l-131 -133q-91 76 -256 76q-91 0 -140 -37t-49 -97q0 -105 144 -118l164 -15q150 -12 229.5 -85t79.5 -208 q0 -158 -119.5 -243.5t-312.5 -85.5q-140 0 -245 32t-191 117zM406 1227l153 332h232l-228 -332h-157z" />
<glyph unicode="&#x15c;" horiz-adv-x="1208" d="M61 180l148 146q77 -77 166 -108.5t207 -31.5q142 0 221.5 59t79.5 165q0 99 -58 151q-28 27 -61.5 40t-97.5 22l-172 24q-178 24 -277 117q-106 100 -106 278q0 193 131 310.5t356 117.5q145 0 252.5 -39t200.5 -126l-142 -140q-118 113 -317 113q-125 0 -195.5 -63.5 t-70.5 -163.5q0 -87 55 -136q58 -51 164 -67l166 -25q99 -15 162 -40.5t110 -67.5q119 -104 119 -299q0 -198 -145.5 -313t-378.5 -115q-169 0 -292 44.5t-225 147.5zM250 1599l264 330h176l264 -330h-174l-178 199l-178 -199h-174z" />
<glyph unicode="&#x15d;" horiz-adv-x="1021" d="M66 137l137 137q105 -108 299 -108q101 0 164 36.5t63 106.5q0 112 -139 123l-166 14q-307 25 -307 287q0 148 111 233t280 85q251 0 385 -117l-131 -133q-91 76 -256 76q-91 0 -140 -37t-49 -97q0 -105 144 -118l164 -15q150 -12 229.5 -85t79.5 -208 q0 -158 -119.5 -243.5t-312.5 -85.5q-140 0 -245 32t-191 117zM174 1227l264 329h176l265 -329h-174l-179 198l-178 -198h-174z" />
<glyph unicode="&#x15e;" horiz-adv-x="1208" d="M61 180l148 146q77 -77 166 -108.5t207 -31.5q142 0 221.5 59t79.5 165q0 99 -58 151q-28 27 -61.5 40t-97.5 22l-172 24q-178 24 -277 117q-106 100 -106 278q0 193 131 310.5t356 117.5q145 0 252.5 -39t200.5 -126l-142 -140q-118 113 -317 113q-125 0 -195.5 -63.5 t-70.5 -163.5q0 -87 55 -136q58 -51 164 -67l166 -25q99 -15 162 -40.5t110 -67.5q119 -104 119 -299q0 -198 -145.5 -313t-378.5 -115q-169 0 -292 44.5t-225 147.5zM434 -432l144 301h167l-104 -301h-207z" />
<glyph unicode="&#x15f;" horiz-adv-x="1021" d="M66 137l137 137q105 -108 299 -108q101 0 164 36.5t63 106.5q0 112 -139 123l-166 14q-307 25 -307 287q0 148 111 233t280 85q251 0 385 -117l-131 -133q-91 76 -256 76q-91 0 -140 -37t-49 -97q0 -105 144 -118l164 -15q150 -12 229.5 -85t79.5 -208 q0 -158 -119.5 -243.5t-312.5 -85.5q-140 0 -245 32t-191 117zM342 -432l143 301h168l-104 -301h-207z" />
<glyph unicode="&#x160;" horiz-adv-x="1208" d="M61 180l148 146q77 -77 166 -108.5t207 -31.5q142 0 221.5 59t79.5 165q0 99 -58 151q-28 27 -61.5 40t-97.5 22l-172 24q-178 24 -277 117q-106 100 -106 278q0 193 131 310.5t356 117.5q145 0 252.5 -39t200.5 -126l-142 -140q-118 113 -317 113q-125 0 -195.5 -63.5 t-70.5 -163.5q0 -87 55 -136q58 -51 164 -67l166 -25q99 -15 162 -40.5t110 -67.5q119 -104 119 -299q0 -198 -145.5 -313t-378.5 -115q-169 0 -292 44.5t-225 147.5zM246 1929h174l178 -198l178 198h174l-264 -330h-176z" />
<glyph unicode="&#x161;" horiz-adv-x="1021" d="M66 137l137 137q105 -108 299 -108q101 0 164 36.5t63 106.5q0 112 -139 123l-166 14q-307 25 -307 287q0 148 111 233t280 85q251 0 385 -117l-131 -133q-91 76 -256 76q-91 0 -140 -37t-49 -97q0 -105 144 -118l164 -15q150 -12 229.5 -85t79.5 -208 q0 -158 -119.5 -243.5t-312.5 -85.5q-140 0 -245 32t-191 117zM156 1556h174l178 -198l178 198h174l-264 -329h-176z" />
<glyph unicode="&#x162;" horiz-adv-x="1146" d="M61 1260v198h1024v-198h-401v-1260h-221v1260h-402zM401 -432l144 301h168l-105 -301h-207z" />
<glyph unicode="&#x163;" horiz-adv-x="700" d="M72 860v160h118v315h209v-315h201v-160h-201v-561q0 -121 115 -121h86v-178h-125q-138 0 -211.5 83.5t-73.5 205.5v571h-118zM166 -432l143 301h168l-104 -301h-207z" />
<glyph unicode="&#x164;" horiz-adv-x="1146" d="M61 1260v198h1024v-198h-401v-1260h-221v1260h-402zM221 1929h174l178 -198l179 198h174l-264 -330h-177z" />
<glyph unicode="&#x165;" horiz-adv-x="700" d="M72 860v160h118v315h209v-315h201v-160h-201v-561q0 -121 115 -121h86v-178h-125q-138 0 -211.5 83.5t-73.5 205.5v571h-118zM504 1169l76 326h192l-115 -326h-153z" />
<glyph unicode="&#x16a;" horiz-adv-x="1382" d="M168 492v966h221v-956q0 -146 82 -231t219 -85t220 85.5t83 230.5v956h221v-966q0 -148 -69 -263.5t-188 -178t-267 -62.5q-225 0 -373.5 140.5t-148.5 363.5zM373 1628v150h633v-150h-633z" />
<glyph unicode="&#x16b;" horiz-adv-x="1163" d="M156 375v663h209v-632q0 -116 57.5 -174t150.5 -58q94 0 154.5 59t60.5 173v632h209v-1038h-204v104q-107 -116 -277 -116q-159 0 -256 94q-104 101 -104 293zM262 1266v149h633v-149h-633z" />
<glyph unicode="&#x16c;" horiz-adv-x="1382" d="M168 492v966h221v-956q0 -146 82 -231t219 -85t220 85.5t83 230.5v956h221v-966q0 -148 -69 -263.5t-188 -178t-267 -62.5q-225 0 -373.5 140.5t-148.5 363.5zM352 1919h148q9 -70 60.5 -107.5t129.5 -37.5t130 37.5t61 107.5h147q-9 -149 -98.5 -223t-239.5 -74 t-239.5 74t-98.5 223z" />
<glyph unicode="&#x16d;" horiz-adv-x="1163" d="M156 375v663h209v-632q0 -116 57.5 -174t150.5 -58q94 0 154.5 59t60.5 173v632h209v-1038h-204v104q-107 -116 -277 -116q-159 0 -256 94q-104 101 -104 293zM236 1511h147q9 -70 60 -106.5t130 -36.5q67 0 124 36.5t65 106.5h147q-9 -149 -97.5 -223t-238.5 -74 q-151 0 -239.5 74t-97.5 223z" />
<glyph unicode="&#x16e;" horiz-adv-x="1382" d="M168 492v966h221v-956q0 -146 82 -231t219 -85t220 85.5t83 230.5v956h221v-966q0 -148 -69 -263.5t-188 -178t-267 -62.5q-225 0 -373.5 140.5t-148.5 363.5zM434 1808q0 106 75 181t181 75t181 -75t75 -181t-75 -181t-181 -75t-181 75t-75 181zM559 1808 q0 -54 38.5 -91.5t92.5 -37.5t92.5 37.5t38.5 91.5t-38.5 91.5t-92.5 37.5t-92.5 -37.5t-38.5 -91.5z" />
<glyph unicode="&#x16f;" horiz-adv-x="1163" d="M156 375v663h209v-632q0 -116 57.5 -174t150.5 -58q94 0 154.5 59t60.5 173v632h209v-1038h-204v104q-107 -116 -277 -116q-159 0 -256 94q-104 101 -104 293zM326 1436q0 106 75 181t181 75t181 -75t75 -181t-75 -181t-181 -75t-181 75t-75 181zM451 1436 q0 -54 38.5 -91.5t92.5 -37.5t92.5 37.5t38.5 91.5t-38.5 91.5t-92.5 37.5t-92.5 -37.5t-38.5 -91.5z" />
<glyph unicode="&#x170;" horiz-adv-x="1382" d="M168 492v966h221v-956q0 -146 82 -231t219 -85t220 85.5t83 230.5v956h221v-966q0 -148 -69 -263.5t-188 -178t-267 -62.5q-225 0 -373.5 140.5t-148.5 363.5zM389 1599l156 330h229l-227 -330h-158zM768 1599l156 330h229l-227 -330h-158z" />
<glyph unicode="&#x171;" horiz-adv-x="1163" d="M156 375v663h209v-632q0 -116 57.5 -174t150.5 -58q94 0 154.5 59t60.5 173v632h209v-1038h-204v104q-107 -116 -277 -116q-159 0 -256 94q-104 101 -104 293zM281 1227l155 329h230l-228 -329h-157zM659 1227l156 329h229l-227 -329h-158z" />
<glyph unicode="&#x172;" horiz-adv-x="1382" d="M168 492v966h221v-956q0 -146 82 -231t219 -85t220 85.5t83 230.5v956h221v-966q0 -148 -69 -263.5t-188 -178t-267 -62.5q-225 0 -373.5 140.5t-148.5 363.5zM702 -432l144 301h168l-105 -301h-207z" />
<glyph unicode="&#x173;" horiz-adv-x="1163" d="M156 375v663h209v-632q0 -116 57.5 -174t150.5 -58q94 0 154.5 59t60.5 173v632h209v-1038h-204v104q-107 -116 -277 -116q-159 0 -256 94q-104 101 -104 293zM649 -432l144 301h168l-105 -301h-207z" />
<glyph unicode="&#x178;" horiz-adv-x="1114" d="M10 1458h242l305 -641l305 641h242l-436 -858v-600h-222v600zM242 1610v221h188v-221h-188zM684 1610v221h188v-221h-188z" />
<glyph unicode="&#x179;" horiz-adv-x="1130" d="M98 0v190l674 1070h-645v198h905v-180l-678 -1079h678v-199h-934zM459 1599l153 332h232l-228 -332h-157z" />
<glyph unicode="&#x17a;" horiz-adv-x="960" d="M88 0v166l516 686h-487v186h745v-166l-520 -686h520v-186h-774zM375 1227l153 332h232l-228 -332h-157z" />
<glyph unicode="&#x17b;" horiz-adv-x="1130" d="M98 0v190l674 1070h-645v198h905v-180l-678 -1079h678v-199h-934zM463 1624v199h199v-199h-199z" />
<glyph unicode="&#x17c;" horiz-adv-x="960" d="M88 0v166l516 686h-487v186h745v-166l-520 -686h520v-186h-774zM381 1251v199h199v-199h-199z" />
<glyph unicode="&#x17d;" horiz-adv-x="1130" d="M98 0v190l674 1070h-645v198h905v-180l-678 -1079h678v-199h-934zM223 1929h174l178 -198l179 198h174l-264 -330h-177z" />
<glyph unicode="&#x17e;" horiz-adv-x="960" d="M88 0v166l516 686h-487v186h745v-166l-520 -686h520v-186h-774zM137 1556h174l178 -198l179 198h174l-264 -329h-177z" />
<glyph unicode="&#x192;" horiz-adv-x="849" d="M43 -420l186 1061h-168v160h197l68 379q22 122 108.5 205t224.5 83h129v-178h-120q-114 0 -136 -121l-65 -368h207v-160h-236l-186 -1061h-209z" />
<glyph unicode="&#x218;" horiz-adv-x="1208" d="M61 180l148 146q77 -77 166 -108.5t207 -31.5q142 0 221.5 59t79.5 165q0 99 -58 151q-28 27 -61.5 40t-97.5 22l-172 24q-178 24 -277 117q-106 100 -106 278q0 193 131 310.5t356 117.5q145 0 252.5 -39t200.5 -126l-142 -140q-118 113 -317 113q-125 0 -195.5 -63.5 t-70.5 -163.5q0 -87 55 -136q58 -51 164 -67l166 -25q99 -15 162 -40.5t110 -67.5q119 -104 119 -299q0 -198 -145.5 -313t-378.5 -115q-169 0 -292 44.5t-225 147.5zM434 -432l144 301h167l-104 -301h-207z" />
<glyph unicode="&#x219;" horiz-adv-x="1021" d="M66 137l137 137q105 -108 299 -108q101 0 164 36.5t63 106.5q0 112 -139 123l-166 14q-307 25 -307 287q0 148 111 233t280 85q251 0 385 -117l-131 -133q-91 76 -256 76q-91 0 -140 -37t-49 -97q0 -105 144 -118l164 -15q150 -12 229.5 -85t79.5 -208 q0 -158 -119.5 -243.5t-312.5 -85.5q-140 0 -245 32t-191 117zM344 -432l143 301h168l-104 -301h-207z" />
<glyph unicode="&#x21a;" horiz-adv-x="1146" d="M61 1260v198h1024v-198h-401v-1260h-221v1260h-402zM403 -432l144 301h168l-105 -301h-207z" />
<glyph unicode="&#x21b;" horiz-adv-x="700" d="M72 860v160h118v315h209v-315h201v-160h-201v-561q0 -121 115 -121h86v-178h-125q-138 0 -211.5 83.5t-73.5 205.5v571h-118zM182 -432l144 301h168l-105 -301h-207z" />
<glyph unicode="&#x237;" horiz-adv-x="540" d="M-39 -246h92q61 0 87 29.5t26 91.5v1163h209v-1175q0 -124 -72 -205.5t-213 -81.5h-129v178z" />
<glyph unicode="&#x2c6;" horiz-adv-x="1024" d="M160 1227l264 329h176l264 -329h-174l-178 198l-178 -198h-174z" />
<glyph unicode="&#x2c7;" horiz-adv-x="1024" d="M160 1556h174l178 -198l178 198h174l-264 -329h-176z" />
<glyph unicode="&#x2d8;" horiz-adv-x="1024" d="M174 1511h148q9 -70 60 -106.5t130 -36.5q42 0 81 14t70 47.5t37 81.5h148q-9 -149 -97.5 -223t-238.5 -74q-151 0 -240 74t-98 223z" />
<glyph unicode="&#x2d9;" horiz-adv-x="1024" d="M412 1251v199h198v-199h-198z" />
<glyph unicode="&#x2da;" horiz-adv-x="1024" d="M256 1436q0 106 75 181t181 75t181 -75t75 -181t-75 -181t-181 -75t-181 75t-75 181zM381 1436q0 -54 38.5 -91.5t92.5 -37.5t92.5 37.5t38.5 91.5t-38.5 91.5t-92.5 37.5t-92.5 -37.5t-38.5 -91.5z" />
<glyph unicode="&#x2db;" horiz-adv-x="1024" d="M485 -432l144 301h168l-105 -301h-207z" />
<glyph unicode="&#x2dc;" horiz-adv-x="1099" d="M195 1368q66 66 113 89.5t100 23.5q42 0 75.5 -11.5t77.5 -37.5q64 -39 113 -39q58 0 121 63l98 -96q-65 -65 -113.5 -89t-99.5 -24q-74 0 -154 47q-66 39 -114 39q-31 0 -55.5 -11t-63.5 -50z" />
<glyph unicode="&#x2dd;" horiz-adv-x="1024" d="M170 1227l156 329h229l-227 -329h-158zM549 1227l156 329h229l-227 -329h-158z" />
<glyph unicode="&#x384;" horiz-adv-x="491" d="M147 1159v299h209v-209z" />
<glyph unicode="&#x385;" horiz-adv-x="962" d="M102 1176v221h189v-221h-189zM377 1159v299h209v-209zM672 1176v221h188v-221h-188z" />
<glyph unicode="&#x386;" horiz-adv-x="1280" d="M-18 1159v299h208v-209zM16 0l535 1458h178l535 -1458h-236l-100 293h-576l-100 -293h-236zM418 481h448l-221 647z" />
<glyph unicode="&#x387;" horiz-adv-x="569" d="M160 788v250h250v-250h-250z" />
<glyph unicode="&#x388;" horiz-adv-x="1234" d="M-182 1159v299h209v-209zM190 0v1458h932v-198h-710v-426h606v-197h-606v-438h710v-199h-932z" />
<glyph unicode="&#x389;" horiz-adv-x="1415" d="M-182 1159v299h209v-209zM190 0v1458h222v-622h592v622h221v-1458h-221v637h-592v-637h-222z" />
<glyph unicode="&#x38a;" horiz-adv-x="602" d="M-182 1159v299h209v-209zM190 0v1458h222v-1458h-222z" />
<glyph unicode="&#x38c;" horiz-adv-x="1323" d="M-139 1159v299h209v-209zM137 729q0 80 0.5 115t3 97.5t7.5 93t15 77t25.5 76t38 63.5t52.5 64q155 155 383 155q230 0 385 -155q34 -34 58.5 -69.5t39.5 -81t23.5 -81t12.5 -100t4.5 -105t0.5 -127.5v-22v-22q0 -86 -0.5 -127t-4.5 -105.5t-12.5 -100t-23.5 -81 t-39.5 -81t-58.5 -69.5q-155 -155 -385 -155q-228 0 -383 155q-30 30 -52.5 64t-38 63.5t-25.5 76t-15 77t-7.5 93t-3 97.5t-0.5 115zM358 729q0 -222 16 -308.5t70 -144.5q39 -42 96.5 -66t121.5 -24t121 24t96 66q54 58 70 144.5t16 308.5t-16 308.5t-70 144.5 q-39 42 -96 66t-121 24t-121.5 -24t-96.5 -66q-54 -58 -70 -144.5t-16 -308.5z" />
<glyph unicode="&#x38e;" horiz-adv-x="1114" d="M-244 1159v299h209v-209zM10 1458h242l305 -641l305 641h242l-436 -858v-600h-222v600z" />
<glyph unicode="&#x38f;" horiz-adv-x="1325" d="M-141 1159v299h209v-209zM137 0v197h144q-60 55 -93 125q-23 51 -35 124t-14 130t-2 153q0 80 0.5 115t3 97.5t7.5 93t15 77t25.5 76t38 63.5t52.5 64q155 155 383 155q230 0 385 -155q34 -34 58.5 -69.5t39.5 -81t23.5 -81t12.5 -100t4.5 -105t0.5 -127.5v-22 q0 -101 -1.5 -154t-13 -127.5t-34.5 -125.5q-31 -67 -95 -125h144v-197h-424v178q99 49 147 123q32 49 44 142t12 276q0 223 -16.5 313t-69.5 148q-89 92 -217 92q-127 0 -216 -92q-53 -58 -69.5 -148t-16.5 -313q0 -186 11.5 -278t42.5 -140q48 -74 147 -123v-178h-424z " />
<glyph unicode="&#x390;" horiz-adv-x="636" d="M-102 1176v221h188v-221h-188zM160 287v751h209v-739q0 -62 25.5 -91.5t86.5 -29.5h92v-178h-129q-141 0 -212.5 81t-71.5 206zM172 1159v299h209v-209zM467 1176v221h188v-221h-188z" />
<glyph unicode="&#x391;" horiz-adv-x="1280" d="M16 0l535 1458h178l535 -1458h-236l-100 293h-576l-100 -293h-236zM418 481h448l-221 647z" />
<glyph unicode="&#x392;" horiz-adv-x="1357" d="M190 0v1458h568q203 0 321.5 -107.5t118.5 -291.5q0 -111 -58 -194t-139 -115q94 -38 157 -123.5t63 -214.5q0 -196 -121 -304t-320 -108h-590zM412 199h348q113 0 176 62t63 161t-63 160t-176 61h-348v-444zM412 842h327q108 0 173 55t65 154t-65 154t-173 55h-327v-418 z" />
<glyph unicode="&#x393;" horiz-adv-x="1159" d="M190 0v1458h912v-198h-690v-1260h-222z" />
<glyph unicode="&#x394;" horiz-adv-x="1267" d="M10 0l535 1458h178l532 -1458h-1245zM305 188h662l-330 940z" />
<glyph unicode="&#x395;" horiz-adv-x="1234" d="M190 0v1458h932v-198h-710v-426h606v-197h-606v-438h710v-199h-932z" />
<glyph unicode="&#x396;" horiz-adv-x="1130" d="M98 0v190l674 1070h-645v198h905v-180l-678 -1079h678v-199h-934z" />
<glyph unicode="&#x397;" horiz-adv-x="1415" d="M190 0v1458h222v-622h592v622h221v-1458h-221v637h-592v-637h-222z" />
<glyph unicode="&#x398;" horiz-adv-x="1323" d="M137 729q0 80 0.5 115t3 97.5t7.5 93t15 77t25.5 76t38 63.5t52.5 64q155 155 383 155q230 0 385 -155q34 -34 58.5 -69.5t39.5 -81t23.5 -81t12.5 -100t4.5 -105t0.5 -127.5v-22v-22q0 -86 -0.5 -127t-4.5 -105.5t-12.5 -100t-23.5 -81t-39.5 -81t-58.5 -69.5 q-155 -155 -385 -155q-228 0 -383 155q-30 30 -52.5 64t-38 63.5t-25.5 76t-15 77t-7.5 93t-3 97.5t-0.5 115zM358 629q3 -158 20.5 -230t65.5 -123q39 -42 96.5 -66t121.5 -24t121 24t96 66q48 51 65.5 123t20.5 230h-607zM358 825h607q-3 161 -20.5 233t-65.5 124 q-39 42 -96 66t-121 24t-121.5 -24t-96.5 -66q-48 -52 -65.5 -124t-20.5 -233z" />
<glyph unicode="&#x399;" horiz-adv-x="602" d="M190 0v1458h222v-1458h-222z" />
<glyph unicode="&#x39a;" horiz-adv-x="1347" d="M190 0v1458h222v-733l596 733h270l-473 -571l522 -887h-260l-410 719l-245 -295v-424h-222z" />
<glyph unicode="&#x39b;" horiz-adv-x="1210" d="M29 0l477 1458h199l477 -1458h-232l-340 1128l-348 -1128h-233z" />
<glyph unicode="&#x39c;" horiz-adv-x="1665" d="M190 0v1458h222l426 -907l417 907h222v-1458h-222v975l-335 -711h-164l-344 711v-975h-222z" />
<glyph unicode="&#x39d;" horiz-adv-x="1478" d="M190 0v1458h203l674 -1024v1024h221v-1458h-203l-673 1026v-1026h-222z" />
<glyph unicode="&#x39e;" horiz-adv-x="1208" d="M113 0v199h381v438h-277v197h277v426h-381v198h983v-198h-381v-426h276v-197h-276v-438h381v-199h-983z" />
<glyph unicode="&#x39f;" horiz-adv-x="1323" d="M137 729q0 80 0.5 115t3 97.5t7.5 93t15 77t25.5 76t38 63.5t52.5 64q155 155 383 155q230 0 385 -155q34 -34 58.5 -69.5t39.5 -81t23.5 -81t12.5 -100t4.5 -105t0.5 -127.5v-22v-22q0 -86 -0.5 -127t-4.5 -105.5t-12.5 -100t-23.5 -81t-39.5 -81t-58.5 -69.5 q-155 -155 -385 -155q-228 0 -383 155q-30 30 -52.5 64t-38 63.5t-25.5 76t-15 77t-7.5 93t-3 97.5t-0.5 115zM358 729q0 -222 16 -308.5t70 -144.5q39 -42 96.5 -66t121.5 -24t121 24t96 66q54 58 70 144.5t16 308.5t-16 308.5t-70 144.5q-39 42 -96 66t-121 24t-121.5 -24 t-96.5 -66q-54 -58 -70 -144.5t-16 -308.5z" />
<glyph unicode="&#x3a0;" horiz-adv-x="1400" d="M190 0v1458h1020v-1458h-221v1262h-577v-1262h-222z" />
<glyph unicode="&#x3a1;" horiz-adv-x="1288" d="M190 0v1458h553q211 0 339 -124.5t128 -317.5t-128 -318t-339 -125h-331v-573h-222zM412 774h319q117 0 187.5 64t70.5 178t-70.5 179t-187.5 65h-319v-486z" />
<glyph unicode="&#x3a3;" horiz-adv-x="1134" d="M98 0v184l346 596l-313 512v166h905v-198h-635l293 -474l-342 -587h678v-199h-932z" />
<glyph unicode="&#x3a4;" horiz-adv-x="1146" d="M61 1260v198h1024v-198h-401v-1260h-221v1260h-402z" />
<glyph unicode="&#x3a5;" horiz-adv-x="1114" d="M10 1458h242l305 -641l305 641h242l-436 -858v-600h-222v600z" />
<glyph unicode="&#x3a6;" horiz-adv-x="1548" d="M113 739q0 77 4 129.5t17 116t43 117t77 100.5q86 86 183.5 121t226.5 35v100h221v-100q129 0 226 -35t183 -121q47 -47 77 -101t43.5 -117t17.5 -115.5t4 -129.5t-4 -129.5t-17.5 -115.5t-43.5 -117t-77 -101q-86 -86 -183 -120.5t-226 -34.5v-121h-221v121 q-129 0 -226.5 34.5t-183.5 120.5q-47 47 -77 100.5t-43 117t-17 116t-4 129.5zM334 739q0 -59 1.5 -91t9 -80t26 -86t49.5 -72q83 -91 244 -91v840q-162 0 -244 -90q-31 -34 -49.5 -72t-26 -86.5t-9 -80.5t-1.5 -91zM885 319q160 0 243 91q31 34 49.5 72t26 86t9 80t1.5 91 t-1.5 91t-9 80.5t-26 86.5t-49.5 72q-82 90 -243 90v-840z" />
<glyph unicode="&#x3a7;" horiz-adv-x="1183" d="M20 0l451 748l-422 710h254l287 -522l289 522h254l-422 -710l452 -748h-256l-317 559l-316 -559h-254z" />
<glyph unicode="&#x3a8;" horiz-adv-x="1445" d="M102 739v719h222v-719q0 -80 14.5 -124.5t50.5 -82.5q39 -42 96 -66t121 -24h6v1016h222v-1016h6q64 0 121 24t96 66q36 38 50.5 82.5t14.5 124.5v719h221v-719q0 -114 -25.5 -192.5t-94.5 -147.5q-155 -155 -383 -155h-6v-244h-222v244h-6q-228 0 -383 155 q-69 69 -95 147.5t-26 192.5z" />
<glyph unicode="&#x3a9;" horiz-adv-x="1325" d="M137 0v197h144q-60 55 -93 125q-23 51 -35 124t-14 130t-2 153q0 80 0.5 115t3 97.5t7.5 93t15 77t25.5 76t38 63.5t52.5 64q155 155 383 155q230 0 385 -155q34 -34 58.5 -69.5t39.5 -81t23.5 -81t12.5 -100t4.5 -105t0.5 -127.5v-22q0 -101 -1.5 -154t-13 -127.5 t-34.5 -125.5q-31 -67 -95 -125h144v-197h-424v178q99 49 147 123q32 49 44 142t12 276q0 223 -16.5 313t-69.5 148q-89 92 -217 92q-127 0 -216 -92q-53 -58 -69.5 -148t-16.5 -313q0 -186 11.5 -278t42.5 -140q48 -74 147 -123v-178h-424z" />
<glyph unicode="&#x3aa;" horiz-adv-x="602" d="M-8 1610v221h188v-221h-188zM190 0v1458h222v-1458h-222zM434 1610v221h189v-221h-189z" />
<glyph unicode="&#x3ab;" horiz-adv-x="1114" d="M10 1458h242l305 -641l305 641h242l-436 -858v-600h-222v600zM242 1610v221h188v-221h-188zM684 1610v221h188v-221h-188z" />
<glyph unicode="&#x3ac;" horiz-adv-x="1132" d="M117 520q0 148 23 258t93 180q93 93 252 93q88 0 153 -26t120 -91v104h209v-1038h-205v111q-56 -68 -121 -95.5t-154 -27.5q-77 0 -144 24.5t-110 67.5q-70 70 -93 180.5t-23 259.5zM326 520q0 -61 4.5 -107.5t18 -93.5t36.5 -77t63 -49t95 -19t94.5 19t62.5 49 t36.5 77.5t17.5 93.5t4 107t-4 107t-17.5 93t-36.5 76.5t-62.5 48.5t-94.5 19t-95 -19t-63 -48.5t-36.5 -76.5t-18 -93t-4.5 -107zM451 1159v299h208v-209z" />
<glyph unicode="&#x3ad;" horiz-adv-x="1015" d="M111 295q0 91 45 151.5t112 88.5q-60 24 -101.5 81t-41.5 138q0 95 58 164.5t141.5 101t177.5 31.5q136 0 214.5 -27t184.5 -111l-123 -143q-85 65 -138 83.5t-124 18.5q-75 0 -129.5 -37.5t-54.5 -91.5q0 -58 48.5 -97.5t125.5 -39.5h190v-160h-180q-58 0 -99 -14.5 t-60 -37.5t-27 -44t-8 -41q0 -57 52.5 -98t139.5 -41q79 0 150 31.5t149 91.5l145 -127q-108 -93 -217.5 -134.5t-246.5 -41.5q-70 0 -136 18.5t-122.5 54t-90.5 95.5t-34 137zM418 1159v299h209v-209z" />
<glyph unicode="&#x3ae;" horiz-adv-x="1163" d="M166 0v1038h205v-104q108 117 276 117q158 0 256 -95q105 -102 105 -292v-664h-209v633q0 116 -58 173.5t-151 57.5q-94 0 -154.5 -58.5t-60.5 -172.5v-633h-209zM500 1159v299h209v-209z" />
<glyph unicode="&#x3af;" horiz-adv-x="636" d="M160 287v751h209v-739q0 -62 25.5 -91.5t86.5 -29.5h92v-178h-129q-141 0 -212.5 81t-71.5 206zM162 1159v299h209v-209z" />
<glyph unicode="&#x3b0;" horiz-adv-x="1110" d="M133 530v508h209v-508v-35v-39.5t1.5 -36.5t3.5 -40.5t7 -36t11.5 -37.5t17 -31t23.5 -30q38 -38 70 -54t79 -16t79.5 16t70.5 54q15 15 26 32t18 41.5t11 39t6 46.5t2.5 41t0 46.5t-0.5 39.5v508h209v-508q0 -67 -3 -110t-14 -103.5t-38 -111.5t-70 -94 q-123 -123 -297 -123t-297 123q-43 43 -70 94t-38 111.5t-14 103.5t-3 110zM178 1176v221h189v-221h-189zM453 1159v299h209v-209zM748 1176v221h188v-221h-188z" />
<glyph unicode="&#x3b1;" horiz-adv-x="1132" d="M117 520q0 148 23 258t93 180q93 93 252 93q88 0 153 -26t120 -91v104h209v-1038h-205v111q-56 -68 -121 -95.5t-154 -27.5q-77 0 -144 24.5t-110 67.5q-70 70 -93 180.5t-23 259.5zM326 520q0 -61 4.5 -107.5t18 -93.5t36.5 -77t63 -49t95 -19t94.5 19t62.5 49 t36.5 77.5t17.5 93.5t4 107t-4 107t-17.5 93t-36.5 76.5t-62.5 48.5t-94.5 19t-95 -19t-63 -48.5t-36.5 -76.5t-18 -93t-4.5 -107z" />
<glyph unicode="&#x3b2;" horiz-adv-x="1171" d="M166 0v1075q0 166 118 274.5t302 108.5q190 0 301.5 -93t111.5 -271q0 -101 -45.5 -175t-130.5 -112q54 -14 95.5 -38.5t79 -67t57.5 -112t20 -163.5q0 -115 -53.5 -215.5t-149 -161.5t-210.5 -61q-99 0 -168 32t-123 91v-111h-205zM373 432q0 -111 60.5 -185.5 t182.5 -74.5q127 0 191.5 77t64.5 183q0 79 -23 131t-68 77.5t-95 34.5t-121 9h-116v174h120q59 0 103 14.5t67.5 36t37.5 52.5t18 56.5t4 55.5q0 108 -57.5 159.5t-151.5 51.5q-109 0 -163 -66t-54 -180v-606z" />
<glyph unicode="&#x3b3;" horiz-adv-x="964" d="M16 1038h222l245 -747l244 747h221l-364 -1013v-445h-205v445z" />
<glyph unicode="&#x3b4;" horiz-adv-x="1101" d="M117 520q0 96 22.5 180.5t66.5 152.5t117.5 107t168.5 39q44 0 69 -4l-336 279v184h693v-184h-412l260 -221q219 -186 219 -500q0 -98 -12 -178t-43 -154t-80 -124t-127 -79.5t-180 -29.5q-112 0 -195.5 41.5t-133 115.5t-73.5 168t-24 207zM326 520q0 -54 4 -97 t17.5 -91.5t37 -80.5t65.5 -53.5t99 -21.5t98.5 19.5t65 50t37.5 78t18 91.5t4 103q0 72 -9 128t-31 105t-65 76t-104 27q-57 0 -100 -18.5t-68.5 -48.5t-41.5 -74.5t-21.5 -90.5t-5.5 -102z" />
<glyph unicode="&#x3b5;" horiz-adv-x="1015" d="M111 295q0 91 45 151.5t112 88.5q-60 24 -101.5 81t-41.5 138q0 95 58 164.5t141.5 101t177.5 31.5q136 0 214.5 -27t184.5 -111l-123 -143q-85 65 -138 83.5t-124 18.5q-75 0 -129.5 -37.5t-54.5 -91.5q0 -58 48.5 -97.5t125.5 -39.5h190v-160h-180q-58 0 -99 -14.5 t-60 -37.5t-27 -44t-8 -41q0 -57 52.5 -98t139.5 -41q79 0 150 31.5t149 91.5l145 -127q-108 -93 -217.5 -134.5t-246.5 -41.5q-70 0 -136 18.5t-122.5 54t-90.5 95.5t-34 137z" />
<glyph unicode="&#x3b6;" horiz-adv-x="1001" d="M98 324q0 83 39 166.5t102 151.5t132.5 120.5t140.5 89.5h-348v186h745v-178h-45q-270 -125 -406 -259t-136 -263q0 -83 53 -112t178 -29h98q146 0 223.5 -70.5t77.5 -200.5q0 -35 -8 -69.5t-30 -73t-56.5 -67t-92 -47.5t-130.5 -19v166q119 0 119 104q0 45 -31 62.5 t-94 17.5h-135q-193 0 -294.5 76.5t-101.5 247.5z" />
<glyph unicode="&#x3b7;" horiz-adv-x="1163" d="M166 0v1038h205v-104q108 117 276 117q158 0 256 -95q105 -102 105 -292v-664h-209v633q0 116 -58 173.5t-151 57.5q-94 0 -154.5 -58.5t-60.5 -172.5v-633h-209z" />
<glyph unicode="&#x3b8;" horiz-adv-x="1181" d="M141 700v29q0 209 11 296q28 209 141 327q111 118 299 118q190 0 301 -118q36 -37 62.5 -81.5t42 -98.5t25 -97t13 -110t4 -101.5t0.5 -104.5v-11v-10v-11q0 -209 -10 -294q-26 -214 -137 -329q-111 -118 -301 -118q-188 0 -299 118q-44 46 -74.5 106t-45.5 111.5 t-22.5 130t-8.5 122t-1 126.5zM350 686q0 -67 2.5 -119t11.5 -123t31 -127t56 -90q55 -55 141 -55q88 0 143 55q96 96 96 459h-481zM352 872h477q-8 271 -94 357q-55 55 -143 55q-86 0 -141 -55q-91 -91 -99 -357z" />
<glyph unicode="&#x3b9;" horiz-adv-x="636" d="M160 287v751h209v-739q0 -62 25.5 -91.5t86.5 -29.5h92v-178h-129q-141 0 -212.5 81t-71.5 206z" />
<glyph unicode="&#x3ba;" horiz-adv-x="1122" d="M166 0v1038h209v-479l403 479h254l-360 -407l405 -631h-258l-291 479l-153 -174v-305h-209z" />
<glyph unicode="&#x3bb;" horiz-adv-x="1021" d="M29 0l389 997l-56 203q-11 44 -45.5 67t-76.5 23h-62v178h72q226 0 291 -204l315 -992q15 -45 48.5 -69.5t74.5 -24.5h59v-178h-69q-226 0 -291 205l-166 522h-4l-258 -727h-221z" />
<glyph unicode="&#x3bc;" horiz-adv-x="1165" d="M156 -420v1458h209v-632q0 -116 58.5 -174t151.5 -58t153 59t60 173v632h209v-1038h-204v104q-107 -116 -275 -116q-93 0 -153 51v-459h-209z" />
<glyph unicode="&#x3bd;" horiz-adv-x="964" d="M16 1038h222l245 -731l244 731h221l-381 -1038h-170z" />
<glyph unicode="&#x3be;" horiz-adv-x="1056" d="M98 389q0 129 66.5 231.5t187.5 141.5q-87 32 -138.5 107.5t-51.5 183.5q0 182 123 298.5t313 116.5q114 0 215.5 -46.5t202.5 -157.5l-129 -129q-76 80 -143.5 117.5t-145.5 37.5q-103 0 -165 -66t-62 -171q0 -101 58 -155t165 -54h244v-180h-240q-12 0 -33.5 -4 t-54.5 -13t-64.5 -28.5t-60 -46.5t-46 -71t-17.5 -98q0 -91 59 -148.5t172 -57.5h119q146 0 223.5 -70.5t77.5 -200.5q0 -35 -8 -69.5t-30.5 -73t-56.5 -67t-92 -47.5t-131 -19v166q119 0 119 104q0 45 -31 62.5t-94 17.5h-135q-186 0 -301 106.5t-115 282.5z" />
<glyph unicode="&#x3bf;" horiz-adv-x="1099" d="M117 520q0 141 26.5 238.5t96.5 169.5q119 123 309 123q192 0 311 -123q70 -72 96.5 -169.5t26.5 -238.5q0 -142 -26.5 -239t-96.5 -170q-119 -123 -311 -123q-190 0 -309 123q-70 73 -96.5 170t-26.5 239zM326 520q0 -102 14 -171.5t57 -112.5q62 -62 152 -62 q91 0 153 62q43 43 57.5 113t14.5 171t-14.5 171.5t-57.5 113.5q-59 59 -153 59q-93 0 -152 -59q-43 -43 -57 -113t-14 -172z" />
<glyph unicode="&#x3c0;" horiz-adv-x="1210" d="M180 0v1038h850v-1038h-205v844h-438v-844h-207z" />
<glyph unicode="&#x3c1;" horiz-adv-x="1073" d="M117 -420v940q0 162 25 245.5t87 152.5q54 60 123 96.5t178 36.5q196 0 316 -133q61 -68 85.5 -154t24.5 -250q0 -80 -11.5 -152t-40.5 -141.5t-73.5 -120t-115.5 -81.5t-162 -31q-57 0 -108 25.5t-119 84.5v-518h-209zM326 520q0 -137 10 -184q9 -40 26 -66 q31 -47 69 -68.5t104 -21.5q213 0 213 338q0 114 -10.5 170.5t-39.5 97.5q-24 33 -69.5 54.5t-98.5 21.5q-98 0 -153 -76q-30 -42 -40.5 -96.5t-10.5 -169.5z" />
<glyph unicode="&#x3c2;" horiz-adv-x="993" d="M113 520q0 113 26 204t69.5 151t103.5 100.5t125.5 58t137.5 17.5q108 0 189 -34t154 -112l-144 -139q-50 54 -94 76t-105 22q-122 0 -192 -92q-33 -42 -47 -101t-14 -151q0 -145 66 -232t204 -93q150 -6 233.5 -74.5t83.5 -194.5q0 -35 -8 -69.5t-30 -73t-56.5 -67 t-92 -47.5t-130.5 -19v166q119 0 119 104q0 45 -31 62.5t-94 19.5q-73 1 -138.5 18t-127.5 55.5t-107 96.5t-72.5 147t-27.5 201z" />
<glyph unicode="&#x3c3;" horiz-adv-x="1148" d="M117 520q0 162 25 245.5t87 152.5q109 120 316 120h491v-186h-178q56 -31 89.5 -121t33.5 -211q0 -161 -26.5 -246t-90.5 -155q-119 -131 -319 -131q-194 0 -316 135q-59 66 -85.5 151.5t-26.5 245.5zM326 520q0 -111 11.5 -166.5t41.5 -97.5q25 -34 69.5 -57t96.5 -23 q53 0 99.5 21.5t70.5 54.5q31 44 45 101.5t14 164.5q0 108 -15 169.5t-46 105.5q-23 32 -68.5 50.5t-99.5 18.5q-52 0 -95 -20.5t-67 -53.5q-31 -43 -44 -101.5t-13 -166.5z" />
<glyph unicode="&#x3c4;" horiz-adv-x="802" d="M49 852v186h705v-186h-248v-852h-209v852h-248z" />
<glyph unicode="&#x3c5;" horiz-adv-x="1110" d="M133 530v508h209v-508v-35v-39.5t1.5 -36.5t3.5 -40.5t7 -36t11.5 -37.5t17 -31t23.5 -30q38 -38 70 -54t79 -16t79.5 16t70.5 54q15 15 26 32t18 41.5t11 39t6 46.5t2.5 41t0 46.5t-0.5 39.5v508h209v-508q0 -67 -3 -110t-14 -103.5t-38 -111.5t-70 -94 q-123 -123 -297 -123t-297 123q-43 43 -70 94t-38 111.5t-14 103.5t-3 110z" />
<glyph unicode="&#x3c6;" horiz-adv-x="1386" d="M117 520q0 190 74 316t235 198l66 -178q-96 -50 -130 -133t-34 -209q0 -72 11.5 -128t39.5 -104t81.5 -76t129.5 -32v864h213q251 0 359 -126t108 -382q0 -125 -24 -220.5t-77.5 -169.5t-146.5 -113t-223 -39v-408h-209v408q-101 2 -181.5 31.5t-134.5 78.5t-90 116.5 t-51.5 143.5t-15.5 162zM799 174q69 2 117.5 21.5t76 49t43 79t19.5 96.5t4 117q0 64 -5.5 108.5t-21.5 85.5t-44.5 65t-75.5 38t-113 14v-674z" />
<glyph unicode="&#x3c7;" horiz-adv-x="1030" d="M45 0l356 530l-342 508h252l205 -338l203 338h252l-340 -508l354 -530h-252l-217 354l-219 -354h-252z" />
<glyph unicode="&#x3c8;" horiz-adv-x="1390" d="M133 520v518h211v-518q0 -61 4 -104t18.5 -89.5t40 -75t71.5 -47t110 -18.5v850h213v-850q65 0 111 18t72 45.5t40.5 73.5t18.5 90t4 107v518h210v-518q0 -124 -22.5 -217t-73.5 -166t-141.5 -111t-218.5 -38v-408h-213v408q-127 0 -217 38t-141.5 111t-74 166.5 t-22.5 216.5z" />
<glyph unicode="&#x3c9;" horiz-adv-x="1536" d="M117 520q0 114 28 225t84 173q120 133 316 133v-197q-53 0 -98.5 -21.5t-69.5 -54.5q-30 -43 -40.5 -91.5t-10.5 -166.5q0 -184 41 -262q43 -84 131 -84q62 0 100 43.5t53 112.5q13 55 13 188v252h208v-252q0 -136 11 -188q15 -70 53 -113t102 -43q88 0 131 84 q41 78 41 262q0 118 -10.5 166.5t-40.5 91.5q-24 33 -69.5 54.5t-98.5 21.5v197q196 0 316 -133q56 -62 84 -173t28 -225q0 -238 -67 -362q-95 -170 -314 -170q-53 0 -95 12t-74 37t-54 51t-47 66q-25 -40 -47 -66t-54 -51t-74 -37t-95 -12q-219 0 -314 170q-67 124 -67 362 z" />
<glyph unicode="&#x3ca;" horiz-adv-x="636" d="M-43 1237v221h188v-221h-188zM160 287v751h209v-739q0 -62 25.5 -91.5t86.5 -29.5h92v-178h-129q-141 0 -212.5 81t-71.5 206zM399 1237v221h189v-221h-189z" />
<glyph unicode="&#x3cb;" horiz-adv-x="1110" d="M133 530v508h209v-508v-35v-39.5t1.5 -36.5t3.5 -40.5t7 -36t11.5 -37.5t17 -31t23.5 -30q38 -38 70 -54t79 -16t79.5 16t70.5 54q15 15 26 32t18 41.5t11 39t6 46.5t2.5 41t0 46.5t-0.5 39.5v508h209v-508q0 -67 -3 -110t-14 -103.5t-38 -111.5t-70 -94 q-123 -123 -297 -123t-297 123q-43 43 -70 94t-38 111.5t-14 103.5t-3 110zM250 1237v221h188v-221h-188zM692 1237v221h189v-221h-189z" />
<glyph unicode="&#x3cc;" horiz-adv-x="1099" d="M117 520q0 141 26.5 238.5t96.5 169.5q119 123 309 123q192 0 311 -123q70 -72 96.5 -169.5t26.5 -238.5q0 -142 -26.5 -239t-96.5 -170q-119 -123 -311 -123q-190 0 -309 123q-70 73 -96.5 170t-26.5 239zM326 520q0 -102 14 -171.5t57 -112.5q62 -62 152 -62 q91 0 153 62q43 43 57.5 113t14.5 171t-14.5 171.5t-57.5 113.5q-59 59 -153 59q-93 0 -152 -59q-43 -43 -57 -113t-14 -172zM449 1159v299h208v-209z" />
<glyph unicode="&#x3cd;" horiz-adv-x="1110" d="M133 530v508h209v-508v-35v-39.5t1.5 -36.5t3.5 -40.5t7 -36t11.5 -37.5t17 -31t23.5 -30q38 -38 70 -54t79 -16t79.5 16t70.5 54q15 15 26 32t18 41.5t11 39t6 46.5t2.5 41t0 46.5t-0.5 39.5v508h209v-508q0 -67 -3 -110t-14 -103.5t-38 -111.5t-70 -94 q-123 -123 -297 -123t-297 123q-43 43 -70 94t-38 111.5t-14 103.5t-3 110zM459 1159v299h209v-209z" />
<glyph unicode="&#x3ce;" horiz-adv-x="1536" d="M117 520q0 114 28 225t84 173q120 133 316 133v-197q-53 0 -98.5 -21.5t-69.5 -54.5q-30 -43 -40.5 -91.5t-10.5 -166.5q0 -184 41 -262q43 -84 131 -84q62 0 100 43.5t53 112.5q13 55 13 188v252h208v-252q0 -136 11 -188q15 -70 53 -113t102 -43q88 0 131 84 q41 78 41 262q0 118 -10.5 166.5t-40.5 91.5q-24 33 -69.5 54.5t-98.5 21.5v197q196 0 316 -133q56 -62 84 -173t28 -225q0 -238 -67 -362q-95 -170 -314 -170q-53 0 -95 12t-74 37t-54 51t-47 66q-25 -40 -47 -66t-54 -51t-74 -37t-95 -12q-219 0 -314 170q-67 124 -67 362 zM664 1159v299h208v-209z" />
<glyph unicode="&#x3d0;" horiz-adv-x="1171" d="M166 -420v1495q0 166 118 274.5t302 108.5q190 0 301.5 -93t111.5 -271q0 -101 -45.5 -175t-130.5 -112q54 -14 95.5 -38.5t79 -67t57.5 -112t20 -163.5q0 -115 -53.5 -215.5t-149 -161.5t-210.5 -61q-100 0 -167 30t-120 88v-526h-209zM375 432q0 -112 59.5 -186 t181.5 -74q127 0 191.5 77t64.5 183q0 79 -23 131t-68 77.5t-95 34.5t-121 9h-116v174h120q59 0 103 14.5t67.5 36t37.5 52.5t18 56.5t4 55.5q0 108 -57.5 159.5t-151.5 51.5q-108 0 -161.5 -66t-53.5 -180v-606z" />
<glyph unicode="&#x401;" horiz-adv-x="1234" d="M190 0v1458h934v-198h-712v-426h606v-197h-606v-438h712v-199h-934zM322 1610v221h188v-221h-188zM764 1610v221h188v-221h-188z" />
<glyph unicode="&#x402;" horiz-adv-x="1527" d="M57 1260v198h1022v-198h-463v-355h295q207 0 335 -120t128 -316v-33q0 -196 -128 -316t-335 -120h-84v193h66q120 0 189 65t69 178v33q0 113 -69 177.5t-189 64.5h-277v-711h-221v1260h-338z" />
<glyph unicode="&#x403;" horiz-adv-x="1157" d="M201 0v1458h897v-198h-676v-1260h-221zM510 1599l154 332h231l-227 -332h-158z" />
<glyph unicode="&#x404;" horiz-adv-x="1286" d="M137 729q0 92 0.5 133t4.5 109t12.5 104t24 84t40.5 84.5t60 71.5q155 155 383 155q205 0 344.5 -116t175.5 -328h-224q-26 114 -102 182t-194 68q-132 0 -218 -92q-50 -52 -67 -123.5t-19 -229.5h500v-196h-502q3 -164 20.5 -236.5t67.5 -124.5q86 -92 218 -92 q118 0 195.5 68t103.5 182h221q-36 -211 -176.5 -327.5t-343.5 -116.5q-228 0 -383 155q-35 35 -60 71.5t-40.5 84.5t-24 84t-12.5 104t-4.5 109t-0.5 133z" />
<glyph unicode="&#x405;" horiz-adv-x="1208" d="M61 180l148 146q77 -77 166 -108.5t207 -31.5q142 0 221.5 59t79.5 165q0 99 -58 151q-28 27 -61.5 40t-97.5 22l-172 24q-178 24 -277 117q-106 100 -106 278q0 193 131 310.5t356 117.5q145 0 252.5 -39t200.5 -126l-142 -140q-118 113 -317 113q-125 0 -195.5 -63.5 t-70.5 -163.5q0 -87 55 -136q58 -51 164 -67l166 -25q99 -15 162 -40.5t110 -67.5q119 -104 119 -299q0 -198 -145.5 -313t-378.5 -115q-169 0 -292 44.5t-225 147.5z" />
<glyph unicode="&#x406;" horiz-adv-x="602" d="M190 0v1458h222v-1458h-222z" />
<glyph unicode="&#x407;" horiz-adv-x="602" d="M-20 1620v221h188v-221h-188zM190 0v1458h222v-1458h-222zM422 1620v221h188v-221h-188z" />
<glyph unicode="&#x408;" horiz-adv-x="1036" d="M27 129l147 145q44 -44 89 -66t118 -22q125 0 194.5 75t69.5 216v981h221v-997q0 -147 -66 -256t-174.5 -163t-244.5 -54q-113 0 -196 33t-158 108z" />
<glyph unicode="&#x409;" horiz-adv-x="2078" d="M29 0v199h39q52 0 91.5 14.5t76 55.5t59.5 110t37 182t14 268v629h856v-573h340q208 0 334.5 -122.5t126.5 -320.5q0 -197 -127 -319.5t-334 -122.5h-561v1260h-420v-461q0 -183 -18 -318.5t-52 -227.5t-88.5 -148t-122.5 -80.5t-159 -24.5h-92zM1202 199h320 q122 0 191 64.5t69 178.5q0 113 -69.5 178.5t-190.5 65.5h-320v-487z" />
<glyph unicode="&#x40a;" horiz-adv-x="2099" d="M190 0v1458h222v-573h589v573h222v-573h340q208 0 334 -122.5t126 -320.5q0 -197 -127 -319.5t-333 -122.5h-562v686h-589v-686h-222zM1223 199h319q122 0 191 64.5t69 178.5q0 113 -69.5 178.5t-190.5 65.5h-319v-487z" />
<glyph unicode="&#x40b;" horiz-adv-x="1527" d="M57 1260v198h1022v-198h-463v-355h295q207 0 335 -120t128 -316v-469h-223v469q0 113 -69 177.5t-189 64.5h-277v-711h-221v1260h-338z" />
<glyph unicode="&#x40c;" horiz-adv-x="1277" d="M197 0v1458h221v-692l545 692h272l-561 -688l612 -770h-280l-588 762v-762h-221zM571 1599l154 332h231l-227 -332h-158z" />
<glyph unicode="&#x40e;" horiz-adv-x="1155" d="M14 1458h234l348 -780l313 780h234l-522 -1220q-102 -238 -308 -238h-151v199h104q65 0 105 28t65 88l51 119zM281 1819h165q6 -69 45 -104.5t105 -35.5t104.5 35.5t44.5 104.5h166q-7 -143 -93 -209t-222 -66t-222 66t-93 209z" />
<glyph unicode="&#x40f;" horiz-adv-x="1415" d="M190 0v1458h222v-1259h589v1259h222v-1458h-408v-328h-215v328h-410z" />
<glyph unicode="&#x410;" horiz-adv-x="1280" d="M16 0l535 1458h178l533 -1458h-232l-102 293h-576l-102 -293h-234zM416 481h452l-223 647z" />
<glyph unicode="&#x411;" horiz-adv-x="1341" d="M190 0v1458h938v-198h-716v-375h346q210 0 335.5 -122.5t125.5 -320.5q0 -199 -124.5 -320.5t-336.5 -121.5h-568zM412 199h331q120 0 187 64.5t67 178.5q0 113 -67.5 178.5t-186.5 65.5h-331v-487z" />
<glyph unicode="&#x412;" horiz-adv-x="1357" d="M190 0v1458h568q200 0 320 -107.5t120 -285.5q0 -221 -197 -317q110 -52 165 -134t55 -204q0 -189 -118.5 -299.5t-322.5 -110.5h-590zM412 199h346q110 0 174.5 60t64.5 163q0 101 -64.5 161t-174.5 60h-346v-444zM412 842h327q111 0 174.5 55.5t63.5 153.5t-63.5 153.5 t-174.5 55.5h-327v-418z" />
<glyph unicode="&#x413;" horiz-adv-x="1157" d="M201 0v1458h897v-198h-676v-1260h-221z" />
<glyph unicode="&#x414;" horiz-adv-x="1433" d="M47 199h127q178 276 178 829v430h840v-1259h172v-527h-217v328h-885v-328h-215v527zM422 199h549v1061h-406v-326q0 -466 -143 -735z" />
<glyph unicode="&#x415;" horiz-adv-x="1234" d="M190 0v1458h934v-198h-712v-426h606v-197h-606v-438h712v-199h-934z" />
<glyph unicode="&#x416;" horiz-adv-x="1884" d="M-8 0l596 770l-545 688h270l518 -692v692h224v-692l516 692h268l-541 -688l594 -770h-276l-561 762v-762h-224v762l-561 -762h-278z" />
<glyph unicode="&#x417;" horiz-adv-x="1251" d="M96 432h221q27 -114 104 -182t193 -68q124 0 200.5 65t76.5 173q0 114 -66 173.5t-192 59.5h-187v185h191q110 0 170.5 58.5t60.5 164.5q0 103 -67.5 160t-184.5 57q-116 0 -191.5 -68.5t-102.5 -183.5h-224q36 211 176.5 327.5t343.5 116.5q207 0 340.5 -108t133.5 -287 q0 -111 -52 -193t-149 -128q108 -43 165.5 -129.5t57.5 -212.5q0 -191 -142 -307.5t-362 -116.5q-199 0 -338.5 116.5t-175.5 327.5z" />
<glyph unicode="&#x418;" horiz-adv-x="1456" d="M190 0v1458h222v-1057l651 1057h203v-1458h-222v1059l-653 -1059h-201z" />
<glyph unicode="&#x419;" horiz-adv-x="1456" d="M190 0v1458h222v-1057l651 1057h203v-1458h-222v1059l-653 -1059h-201zM414 1819h166q6 -69 44.5 -104.5t104.5 -35.5t105 35.5t45 104.5h165q-7 -143 -93 -209t-222 -66t-222 66t-93 209z" />
<glyph unicode="&#x41a;" horiz-adv-x="1277" d="M197 0v1458h221v-692l545 692h272l-561 -688l612 -770h-280l-588 762v-762h-221z" />
<glyph unicode="&#x41b;" horiz-adv-x="1394" d="M29 0v199h39q52 0 91.5 14.5t76 55.5t59.5 110t37 182t14 268v629h856v-1458h-221v1260h-420v-461q0 -183 -18 -318.5t-52 -227.5t-88.5 -148t-122.5 -80.5t-159 -24.5h-92z" />
<glyph unicode="&#x41c;" horiz-adv-x="1665" d="M190 0v1458h220l426 -907l419 907h222v-1458h-224v975l-335 -711h-164l-342 711v-975h-222z" />
<glyph unicode="&#x41d;" horiz-adv-x="1413" d="M190 0v1458h222v-624h589v624h224v-1458h-224v637h-589v-637h-222z" />
<glyph unicode="&#x41e;" horiz-adv-x="1325" d="M137 700v97q0 199 28 315.5t114 202.5q155 155 383 155q230 0 385 -155q80 -81 110.5 -198t30.5 -286v-122q0 -91 -1 -139.5t-8.5 -120t-22 -117t-41.5 -96.5t-68 -93q-152 -155 -385 -155q-231 0 -383 155q-40 41 -68 93.5t-42.5 99.5t-21.5 117t-8.5 117.5t-1.5 129.5z M360 641q0 -138 15.5 -225t68.5 -140q90 -90 218 -90q133 0 217 90q59 62 72.5 155.5t13.5 311.5q0 192 -15 286t-71 153q-87 90 -217 90q-131 0 -218 -90q-30 -31 -47.5 -72t-25 -101.5t-9.5 -108t-2 -134.5v-125z" />
<glyph unicode="&#x41f;" horiz-adv-x="1413" d="M190 0v1458h1033v-1458h-222v1260h-589v-1260h-222z" />
<glyph unicode="&#x420;" horiz-adv-x="1288" d="M190 0v1458h553q207 0 337 -123t130 -319t-130 -319.5t-337 -123.5h-331v-573h-222zM412 772h317q120 0 190 65.5t70 178.5q0 114 -70 179t-190 65h-317v-488z" />
<glyph unicode="&#x421;" horiz-adv-x="1286" d="M137 729q0 80 0.5 115t3 97.5t7.5 93t15 77t25.5 76t38 63.5t52.5 64q155 155 383 155q204 0 343 -116.5t177 -331.5h-226q-27 115 -102 182.5t-192 67.5q-134 0 -216 -88q-54 -58 -71 -146.5t-17 -308.5t17 -308.5t71 -146.5q82 -88 216 -88q117 0 193 67.5t103 182.5 h224q-36 -214 -176.5 -331t-343.5 -117q-228 0 -383 155q-30 30 -52.5 64t-38 63.5t-25.5 76t-15 77t-7.5 93t-3 97.5t-0.5 115z" />
<glyph unicode="&#x422;" horiz-adv-x="1146" d="M61 1260v198h1024v-198h-401v-1260h-221v1260h-402z" />
<glyph unicode="&#x423;" horiz-adv-x="1155" d="M14 1458h234l348 -780l313 780h234l-522 -1220q-102 -238 -308 -238h-151v199h104q65 0 105 28t65 88l51 119z" />
<glyph unicode="&#x424;" horiz-adv-x="1630" d="M102 784q0 284 148 431.5t455 162.5v142h221v-142q307 -15 454.5 -162t147.5 -432q0 -293 -144 -446t-458 -166v-182h-221v182q-314 13 -458.5 166t-144.5 446zM324 774q0 -202 87 -304.5t294 -111.5v830q-108 -4 -182 -31.5t-117.5 -81.5t-62.5 -126.5t-19 -174.5z M926 358q207 9 294 111.5t87 304.5q0 102 -19 174.5t-62.5 126.5t-117.5 81.5t-182 31.5v-830z" />
<glyph unicode="&#x425;" horiz-adv-x="1183" d="M20 0l449 748l-420 710h254l287 -522l289 522h254l-422 -710l452 -748h-256l-317 559l-318 -559h-252z" />
<glyph unicode="&#x426;" horiz-adv-x="1464" d="M190 0v1458h222v-1259h589v1259h222v-1259h172v-527h-215v328h-990z" />
<glyph unicode="&#x427;" horiz-adv-x="1325" d="M143 883v575h224v-522q0 -213 223 -213q128 0 323 41v694h222v-1458h-222v571q-247 -47 -391 -47q-60 0 -114 12.5t-103 40t-84.5 68.5t-56.5 102t-21 136z" />
<glyph unicode="&#x428;" horiz-adv-x="2031" d="M190 0v1458h222v-1259h493v1259h223v-1259h492v1259h223v-1458h-1653z" />
<glyph unicode="&#x429;" horiz-adv-x="2080" d="M190 0v1458h222v-1259h493v1259h223v-1259h492v1259h223v-1259h170v-527h-217v328h-1606z" />
<glyph unicode="&#x42a;" horiz-adv-x="1488" d="M61 1260v198h553v-573h338q206 0 333.5 -123t127.5 -320t-128 -319.5t-333 -122.5h-561v1260h-330zM614 199h320q119 0 188.5 65t69.5 178q0 112 -69.5 178t-188.5 66h-320v-487z" />
<glyph unicode="&#x42b;" horiz-adv-x="1800" d="M190 0v1458h222v-573h338q208 0 335 -123t127 -320t-127.5 -319.5t-334.5 -122.5h-560zM412 199h319q121 0 189.5 64.5t68.5 178.5q0 113 -68.5 178.5t-189.5 65.5h-319v-487zM1389 0v1458h221v-1458h-221z" />
<glyph unicode="&#x42c;" horiz-adv-x="1288" d="M190 0v1458h222v-573h338q208 0 335 -123t127 -320t-127.5 -319.5t-334.5 -122.5h-560zM412 199h319q121 0 189.5 64.5t68.5 178.5q0 113 -68.5 178.5t-189.5 65.5h-319v-487z" />
<glyph unicode="&#x42d;" horiz-adv-x="1286" d="M102 432h222q27 -114 104.5 -182t194.5 -68q130 0 219 92q50 52 67.5 124.5t20.5 236.5h-502v196h500q-3 158 -20 229.5t-66 123.5q-89 92 -219 92q-116 0 -193 -68t-104 -182h-224q36 212 177 328t346 116q225 0 383 -155q34 -34 58.5 -69.5t39.5 -81.5t23.5 -81.5 t12.5 -100t4.5 -105t0.5 -126.5v-22v-22q0 -86 -0.5 -126.5t-4.5 -105t-12.5 -100t-23.5 -81.5t-39.5 -81.5t-58.5 -69.5q-158 -155 -383 -155q-204 0 -345.5 116.5t-177.5 327.5z" />
<glyph unicode="&#x42e;" horiz-adv-x="1861" d="M190 0v1458h222v-622h264q5 187 31.5 291t109.5 188q149 155 383 155q231 0 383 -155q80 -81 110.5 -190.5t30.5 -266.5v-129q0 -87 -1 -135.5t-5 -112t-13 -102.5t-24.5 -84t-39.5 -81t-58 -71q-152 -155 -383 -155t-383 155q-85 86 -112.5 195t-30.5 299h-262v-637 h-222zM897 676q0 -179 17.5 -261t68.5 -136q87 -93 217 -93t217 93q55 58 69.5 146.5t14.5 274.5v76q0 178 -17 265t-67 141q-84 90 -217 90q-136 0 -217 -90q-52 -57 -69 -150t-17 -274v-82z" />
<glyph unicode="&#x42f;" horiz-adv-x="1335" d="M90 0l318 614q-131 45 -206 150.5t-75 251.5q0 201 128.5 321.5t336.5 120.5h555v-1458h-223v573h-289l-283 -573h-262zM348 1018q0 -113 69 -179.5t189 -66.5h318v490h-318q-120 0 -189 -65t-69 -179z" />
<glyph unicode="&#x430;" horiz-adv-x="1085" d="M88 303q0 141 95 221t261 80h279v76q0 101 -55.5 146.5t-178.5 45.5q-86 0 -139 -26q-39 -18 -84 -74l-137 129q45 49 72 71t63 38q83 41 232 41q434 0 434 -357v-694h-205v94q-62 -62 -121 -83t-155 -21q-173 0 -267 81t-94 232zM291 309q0 -75 50 -111t155 -36 q121 0 174 49.5t53 163.5v82h-246q-186 0 -186 -148z" />
<glyph unicode="&#x431;" horiz-adv-x="1107" d="M133 662q0 235 12.5 355.5t44 192t99.5 129.5q33 28 70.5 49t90 35t89.5 22t110.5 13t108 6.5t123.5 4.5q20 1 30 1v-184q-30 -3 -110 -6.5t-131.5 -7.5t-116.5 -20.5t-107 -45.5q-71 -48 -97.5 -118.5t-26.5 -186.5q34 61 112 98t172 37q160 0 254 -88 q135 -126 135 -426q0 -155 -29.5 -252t-97.5 -166q-54 -56 -132 -86t-167 -30q-130 0 -228.5 56t-145.5 159q-62 132 -62 459zM340 518q0 -197 74 -280q59 -62 153 -62q98 0 154 62q65 77 65 276q0 208 -63 279q-59 65 -156 65q-101 0 -157 -65q-70 -80 -70 -275z" />
<glyph unicode="&#x432;" horiz-adv-x="1116" d="M166 0v1038h498q142 0 227.5 -76t85.5 -202q0 -155 -146 -223q162 -73 162 -244q0 -135 -83.5 -214t-229.5 -79h-514zM373 162h258q73 0 115 39.5t42 105.5q0 67 -41.5 105.5t-115.5 38.5h-258v-289zM373 612h245q75 0 114.5 34t39.5 99q0 62 -40.5 95.5t-113.5 33.5 h-245v-262z" />
<glyph unicode="&#x433;" horiz-adv-x="872" d="M174 0v1038h674v-182h-465v-856h-209z" />
<glyph unicode="&#x434;" horiz-adv-x="1163" d="M31 182h110q59 117 89 245.5t30 346.5v264h701v-856h143v-448h-201v266h-674v-266h-198v448zM360 182h392v674h-293v-166q0 -169 -25 -286t-74 -222z" />
<glyph unicode="&#x435;" horiz-adv-x="1103" d="M113 524q0 244 118 385.5t322 141.5q201 0 319.5 -135.5t118.5 -364.5v-94h-672q7 -291 273 -291q75 0 130.5 25.5t113.5 82.5l131 -124q-89 -88 -175 -125t-208 -37q-233 0 -352 136t-119 400zM319 604h467q-19 273 -233 273q-61 0 -106.5 -22t-72.5 -61t-40 -86.5 t-15 -103.5z" />
<glyph unicode="&#x436;" horiz-adv-x="1513" d="M0 0l422 551l-389 487h243l375 -495v495h211v-495l377 495h244l-389 -487l419 -551h-251l-400 539v-539h-211v539l-399 -539h-252z" />
<glyph unicode="&#x437;" horiz-adv-x="1001" d="M49 137l125 133q112 -104 283 -104q86 0 152.5 39.5t66.5 107.5q0 70 -48 105t-132 35h-156v157h154q76 0 120.5 37.5t44.5 102.5t-53.5 98t-148.5 33q-135 0 -250 -80l-117 133q153 117 402 117q158 0 265 -75t107 -206q0 -75 -40.5 -136.5t-110.5 -90.5 q76 -28 122 -92.5t46 -149.5q0 -92 -55 -164.5t-145 -110.5t-196 -38q-274 0 -436 149z" />
<glyph unicode="&#x438;" horiz-adv-x="1193" d="M166 0v1038h209v-704l444 704h209v-1038h-209v715l-444 -715h-209z" />
<glyph unicode="&#x439;" horiz-adv-x="1193" d="M166 0v1038h209v-704l444 704h209v-1038h-209v715l-444 -715h-209zM283 1460h166q12 -139 149 -139q138 0 150 139h165q-6 -143 -92.5 -209.5t-222.5 -66.5t-222 66.5t-93 209.5z" />
<glyph unicode="&#x43a;" horiz-adv-x="1056" d="M170 0v1038h211v-495l395 495h250l-414 -487l445 -551h-256l-420 539v-539h-211z" />
<glyph unicode="&#x43b;" horiz-adv-x="1138" d="M31 0v184h32q33 0 55.5 5t52 28.5t47 66.5t30 125t12.5 197v432h711v-1038h-209v856h-301v-301q0 -130 -15.5 -226.5t-42.5 -159t-69.5 -100.5t-91.5 -53.5t-113 -15.5h-98z" />
<glyph unicode="&#x43c;" horiz-adv-x="1366" d="M166 0v1038h207l311 -618l309 618h205v-1038h-209v666l-239 -476h-132l-243 476v-666h-209z" />
<glyph unicode="&#x43d;" horiz-adv-x="1163" d="M166 0v1038h209v-413h413v413h209v-1038h-209v442h-413v-442h-209z" />
<glyph unicode="&#x43e;" horiz-adv-x="1099" d="M117 520q0 152 28.5 245.5t94.5 162.5q120 123 309 123q191 0 311 -123q65 -68 93 -161.5t28 -242.5q0 -157 -27.5 -250.5t-93.5 -162.5q-120 -123 -311 -123q-189 0 -309 123q-66 69 -94.5 162.5t-28.5 246.5zM326 512q0 -196 67 -272q57 -66 156 -66q102 0 162 70 q63 76 63 272q0 105 -14 172t-51 109q-60 67 -160 67q-101 0 -160 -69q-63 -78 -63 -283z" />
<glyph unicode="&#x43f;" horiz-adv-x="1163" d="M166 0v1038h831v-1038h-209v856h-413v-856h-209z" />
<glyph unicode="&#x440;" horiz-adv-x="1132" d="M166 -420v1458h205v-108q66 68 122 94.5t146 26.5q140 0 231 -68t121 -201q23 -106 23 -266q0 -169 -27 -271t-88 -163q-94 -94 -258 -94q-89 0 -148 26.5t-118 91.5v-526h-209zM375 512q0 -180 50.5 -259t166.5 -79t165.5 80t49.5 266t-50 265t-167 79q-127 0 -176 -100 q-39 -79 -39 -252z" />
<glyph unicode="&#x441;" horiz-adv-x="993" d="M113 524q0 246 123.5 386.5t341.5 140.5q105 0 186 -35q43 -20 74.5 -42.5t79.5 -70.5l-142 -137q-52 52 -94.5 75t-106.5 23q-126 0 -189.5 -87.5t-63.5 -256.5q0 -346 253 -346q65 0 106 23t95 77l142 -139q-47 -47 -78.5 -69.5t-75.5 -42.5q-77 -35 -186 -35 q-220 0 -342.5 141.5t-122.5 394.5z" />
<glyph unicode="&#x442;" horiz-adv-x="901" d="M23 856v182h856v-182h-318v-856h-209v856h-329z" />
<glyph unicode="&#x443;" horiz-adv-x="964" d="M14 1038h224l247 -733l242 733h223l-458 -1245q-38 -106 -107.5 -155.5t-181.5 -49.5h-84v189h53q66 0 96.5 21.5t53.5 86.5l57 164z" />
<glyph unicode="&#x444;" horiz-adv-x="1445" d="M102 524q0 251 135 382t381 145v407h209v-407q246 -14 381 -145t135 -382q0 -253 -136.5 -387.5t-379.5 -146.5v-410h-209v410q-243 12 -379.5 146.5t-136.5 387.5zM311 522q0 -164 78 -253.5t229 -92.5v688q-307 -9 -307 -342zM827 176q151 3 229.5 92.5t78.5 253.5 q0 333 -308 342v-688z" />
<glyph unicode="&#x445;" horiz-adv-x="1030" d="M45 0l356 530l-342 508h252l205 -338l205 338h250l-342 -508l356 -530h-250l-219 354l-219 -354h-252z" />
<glyph unicode="&#x446;" horiz-adv-x="1202" d="M166 0v1038h209v-856h413v856h209v-856h148v-448h-201v266h-778z" />
<glyph unicode="&#x447;" horiz-adv-x="1099" d="M131 639v399h209v-348q0 -81 38.5 -117t113.5 -36q94 0 231 24v477h209v-1038h-209v383q-170 -33 -297 -33q-133 0 -214 75t-81 214z" />
<glyph unicode="&#x448;" horiz-adv-x="1662" d="M166 0v1038h209v-856h352v856h209v-856h350v856h209v-1038h-1329z" />
<glyph unicode="&#x449;" horiz-adv-x="1699" d="M166 0v1038h209v-856h352v856h209v-856h350v856h209v-856h147v-448h-198v266h-1278z" />
<glyph unicode="&#x44a;" horiz-adv-x="1183" d="M25 856v182h473v-391h272q152 0 245 -89t93 -234t-93 -234.5t-245 -89.5h-481v856h-264zM498 170h239q78 0 121 41t43 113q0 71 -43 111t-121 40h-239v-305z" />
<glyph unicode="&#x44b;" horiz-adv-x="1517" d="M166 0v1038h209v-391h272q151 0 244.5 -89t93.5 -234t-93.5 -234.5t-244.5 -89.5h-481zM375 170h237q78 0 122 41t44 113q0 71 -44 111t-122 40h-237v-305zM1128 0v1038h209v-1038h-209z" />
<glyph unicode="&#x44c;" horiz-adv-x="1060" d="M166 0v1038h209v-391h274q151 0 243.5 -89t92.5 -234t-92.5 -234.5t-243.5 -89.5h-483zM375 170h239q78 0 121 41t43 113q0 71 -43 111t-121 40h-239v-305z" />
<glyph unicode="&#x44d;" horiz-adv-x="993" d="M76 133l139 137q54 -54 98 -77t105 -23q121 0 184.5 78.5t69.5 208.5h-363v147h363q-13 122 -76.5 193t-179.5 71q-60 0 -104 -23.5t-97 -76.5l-139 135q81 79 156 113.5t182 34.5q221 0 344 -139.5t123 -387.5q0 -255 -122 -395.5t-345 -140.5q-108 0 -183 33t-155 112z " />
<glyph unicode="&#x44e;" horiz-adv-x="1540" d="M166 0v1038h209v-417h186q15 218 146 331q116 99 282 99q207 0 324 -138q57 -67 82.5 -159.5t25.5 -229.5q0 -156 -27.5 -250t-93.5 -163q-120 -123 -311 -123q-168 0 -280 98q-139 121 -148 356h-186v-442h-209zM766 522q0 -105 13.5 -168.5t45.5 -105.5q59 -74 164 -74 q104 0 164 76q61 75 61 270q0 106 -14.5 169t-48.5 104q-56 71 -162 71q-103 0 -162 -71q-33 -41 -47 -103.5t-14 -167.5z" />
<glyph unicode="&#x44f;" horiz-adv-x="1087" d="M86 0l225 426q-99 28 -157 106t-58 189q0 140 93 228.5t243 88.5h490v-1038h-209v387h-191l-196 -387h-240zM301 711q0 -73 44.5 -114.5t125.5 -41.5h244v315h-244q-81 0 -125.5 -42.5t-44.5 -116.5z" />
<glyph unicode="&#x451;" horiz-adv-x="1103" d="M113 524q0 244 118 385.5t322 141.5q201 0 319.5 -135.5t118.5 -364.5v-94h-672q7 -291 273 -291q75 0 130.5 25.5t113.5 82.5l131 -124q-89 -88 -175 -125t-208 -37q-233 0 -352 136t-119 400zM242 1237v221h188v-221h-188zM319 604h467q-19 273 -233 273 q-61 0 -106.5 -22t-72.5 -61t-40 -86.5t-15 -103.5zM684 1237v221h188v-221h-188z" />
<glyph unicode="&#x452;" horiz-adv-x="1159" d="M59 1102v160h107v196h209v-196h487v-160h-487v-238q63 63 126.5 91t149.5 28q163 0 258 -103.5t95 -279.5v-696q0 -69 -17.5 -126.5t-55 -104t-102.5 -73t-153 -26.5h-111v178h74q74 0 115 47.5t41 116.5v651q0 109 -52.5 168.5t-150.5 59.5q-99 0 -158 -61.5t-59 -166.5 v-567h-209v1102h-107z" />
<glyph unicode="&#x453;" horiz-adv-x="872" d="M174 0v1038h674v-182h-465v-856h-209zM346 1227l154 332h231l-227 -332h-158z" />
<glyph unicode="&#x454;" horiz-adv-x="993" d="M113 524q0 247 123.5 387t341.5 140q108 0 182.5 -34t157.5 -114l-140 -135q-54 54 -97.5 77t-105.5 23q-114 0 -177 -71t-74 -193h370v-147h-372q8 -130 70 -208.5t183 -78.5q63 0 106.5 23t96.5 77l140 -137q-80 -79 -155 -112t-185 -33q-221 0 -343 140.5t-122 395.5z " />
<glyph unicode="&#x455;" horiz-adv-x="1021" d="M66 137l137 137q105 -108 299 -108q101 0 164 36.5t63 106.5q0 112 -139 123l-166 14q-307 25 -307 287q0 148 111 233t280 85q251 0 385 -117l-131 -133q-91 76 -256 76q-91 0 -140 -37t-49 -97q0 -105 144 -118l164 -15q150 -12 229.5 -85t79.5 -208 q0 -158 -119.5 -243.5t-312.5 -85.5q-140 0 -245 32t-191 117z" />
<glyph unicode="&#x456;" horiz-adv-x="540" d="M158 1276v186h223v-186h-223zM166 0v1018h209v-1018h-209z" />
<glyph unicode="&#x457;" horiz-adv-x="540" d="M-45 1237v221h188v-221h-188zM166 0v1038h209v-1038h-209zM397 1237v221h189v-221h-189z" />
<glyph unicode="&#x458;" horiz-adv-x="540" d="M-39 -246h90q62 0 88.5 29.5t26.5 91.5v1143h209v-1155q0 -124 -72 -205.5t-213 -81.5h-129v178zM158 1276v186h223v-186h-223z" />
<glyph unicode="&#x459;" horiz-adv-x="1662" d="M31 0v184h32q33 0 55.5 5t52 28.5t47 66.5t30 125t12.5 197v432h715v-391h276q151 0 244.5 -89t93.5 -234t-93.5 -234.5t-244.5 -89.5h-483v856h-307v-301q0 -130 -15.5 -226.5t-42.5 -159t-69.5 -100.5t-91.5 -53.5t-113 -15.5h-98zM973 170h244q78 0 121.5 41t43.5 113 q0 71 -43.5 111t-121.5 40h-244v-305z" />
<glyph unicode="&#x45a;" horiz-adv-x="1683" d="M166 0v1038h209v-391h413v391h209v-391h275q152 0 245 -89t93 -234t-93.5 -234.5t-244.5 -89.5h-484v463h-413v-463h-209zM993 170h244q79 0 121.5 40.5t42.5 113.5q0 71 -42.5 111t-121.5 40h-244v-305z" />
<glyph unicode="&#x45b;" horiz-adv-x="1159" d="M59 1102v160h107v196h209v-196h487v-160h-487v-238q63 63 124.5 91t147.5 28q163 0 260 -104t97 -279v-600h-209v567q0 109 -54.5 168.5t-152.5 59.5q-100 0 -156.5 -61t-56.5 -167v-567h-209v1102h-107z" />
<glyph unicode="&#x45c;" horiz-adv-x="1056" d="M170 0v1038h211v-495l395 495h250l-414 -487l445 -551h-256l-420 539v-539h-211zM438 1227l154 332h231l-227 -332h-158z" />
<glyph unicode="&#x45e;" horiz-adv-x="964" d="M14 1038h224l247 -733l242 733h223l-458 -1245q-38 -106 -107.5 -155.5t-181.5 -49.5h-84v189h53q66 0 96.5 21.5t53.5 86.5l57 164zM197 1460h165q12 -139 150 -139t150 139h165q-6 -143 -92.5 -209.5t-222.5 -66.5t-222 66.5t-93 209.5z" />
<glyph unicode="&#x45f;" horiz-adv-x="1163" d="M166 0v1038h209v-856h413v856h209v-1038h-317v-266h-199v266h-315z" />
<glyph unicode="&#x490;" horiz-adv-x="1157" d="M201 0v1458h682v348h215v-546h-676v-1260h-221z" />
<glyph unicode="&#x491;" horiz-adv-x="872" d="M174 0v1038h473v287h201v-469h-465v-856h-209z" />
<glyph unicode="&#x2000;" horiz-adv-x="1032" />
<glyph unicode="&#x2001;" horiz-adv-x="2064" />
<glyph unicode="&#x2002;" horiz-adv-x="1032" />
<glyph unicode="&#x2003;" horiz-adv-x="2064" />
<glyph unicode="&#x2004;" horiz-adv-x="688" />
<glyph unicode="&#x2005;" horiz-adv-x="516" />
<glyph unicode="&#x2006;" horiz-adv-x="344" />
<glyph unicode="&#x2007;" horiz-adv-x="344" />
<glyph unicode="&#x2008;" horiz-adv-x="258" />
<glyph unicode="&#x2009;" horiz-adv-x="412" />
<glyph unicode="&#x200a;" horiz-adv-x="114" />
<glyph unicode="&#x2010;" horiz-adv-x="872" d="M137 471v195h598v-195h-598z" />
<glyph unicode="&#x2011;" horiz-adv-x="872" d="M137 471v195h598v-195h-598z" />
<glyph unicode="&#x2012;" horiz-adv-x="872" d="M137 471v195h598v-195h-598z" />
<glyph unicode="&#x2013;" d="M104 471v195h883v-195h-883z" />
<glyph unicode="&#x2014;" horiz-adv-x="1990" d="M137 473v199h1716v-199h-1716z" />
<glyph unicode="&#x2015;" horiz-adv-x="1990" d="M137 473v199h1716v-199h-1716z" />
<glyph unicode="&#x2018;" horiz-adv-x="548" d="M160 1245v213l229 191v-404h-229z" />
<glyph unicode="&#x2019;" horiz-adv-x="548" d="M160 1057v401h229v-215z" />
<glyph unicode="&#x201a;" horiz-adv-x="546" d="M160 -188v403h229v-215z" />
<glyph unicode="&#x201c;" horiz-adv-x="940" d="M160 1245v213l229 191v-404h-229zM551 1245v213l229 191v-404h-229z" />
<glyph unicode="&#x201d;" horiz-adv-x="940" d="M160 1057v401h229v-215zM551 1057v401h229v-215z" />
<glyph unicode="&#x201e;" horiz-adv-x="942" d="M160 -188v403h229v-215zM551 -188v403h229v-215z" />
<glyph unicode="&#x2020;" horiz-adv-x="1210" d="M133 874v187h367v397h209v-397h368v-187h-368v-874h-209v874h-367z" />
<glyph unicode="&#x2021;" horiz-adv-x="1210" d="M133 -23v189h367v708h-367v187h367v397h209v-397h368v-187h-368v-708h368v-189h-368v-397h-209v397h-367z" />
<glyph unicode="&#x2022;" horiz-adv-x="1048" d="M190 684q0 138 98 236t236 98t236 -98t98 -236t-98 -236t-236 -98t-236 98t-98 236z" />
<glyph unicode="&#x2026;" horiz-adv-x="1644" d="M160 0v240h239v-240h-239zM702 0v240h240v-240h-240zM1245 0v240h240v-240h-240z" />
<glyph unicode="&#x202f;" horiz-adv-x="412" />
<glyph unicode="&#x2030;" horiz-adv-x="2449" d="M119 985v207q0 129 81.5 205t205.5 76q123 0 204.5 -76t81.5 -205v-207q0 -128 -81 -203t-205 -75t-205.5 75t-81.5 203zM276 991q0 -145 130 -145q129 0 129 145v195q0 147 -129 147q-130 0 -130 -147v-195zM434 0l688 1458h166l-686 -1458h-168zM1032 266v207 q0 129 81.5 205t205.5 76t205.5 -76t81.5 -205v-207q0 -129 -81.5 -204.5t-205.5 -75.5t-205.5 75.5t-81.5 204.5zM1190 272q0 -147 129 -147t129 147v195q0 147 -129 147t-129 -147v-195zM1757 266v207q0 129 81.5 205t205.5 76t205.5 -76t81.5 -205v-207 q0 -129 -81.5 -204.5t-205.5 -75.5t-205.5 75.5t-81.5 204.5zM1915 272q0 -147 129 -147t129 147v195q0 147 -129 147t-129 -147v-195z" />
<glyph unicode="&#x2039;" horiz-adv-x="694" d="M76 557l471 469v-252l-219 -217l219 -219v-252z" />
<glyph unicode="&#x203a;" horiz-adv-x="694" d="M147 86v252l222 219l-222 217v252l474 -469z" />
<glyph unicode="&#x2044;" horiz-adv-x="403" d="M-225 0l686 1458h168l-686 -1458h-168z" />
<glyph unicode="&#x205f;" horiz-adv-x="516" />
<glyph unicode="&#x20ac;" horiz-adv-x="1394" d="M88 508v137h139v176h-139v137h145q8 122 37.5 205t98.5 152q155 155 381 155q205 0 345.5 -117.5t176.5 -330.5h-225q-27 115 -103.5 183.5t-193.5 68.5q-128 0 -215 -90q-38 -40 -55 -89t-23 -137h374v-137h-382v-176h382v-137h-374q6 -92 23 -142.5t55 -91.5 q87 -90 215 -90q118 0 195 68.5t104 183.5h223q-36 -213 -178 -330.5t-344 -117.5q-226 0 -381 155q-70 70 -99 154t-37 211h-145z" />
<glyph unicode="&#x2116;" horiz-adv-x="1957" d="M154 0v1458h188l598 -1048v1048h209v-1458h-188l-601 1051v-1051h-206zM1270 1100q0 102 18 169t66 115q80 84 209 84q65 0 120 -23.5t91 -60.5q84 -88 84 -284q0 -101 -18.5 -169.5t-65.5 -115.5q-36 -37 -91 -60.5t-120 -23.5q-129 0 -209 84q-47 47 -65.5 116.5 t-18.5 168.5zM1274 504v155h573v-155h-573zM1436 1104q0 -148 41 -189q34 -34 86 -34q55 0 86 34q26 25 33.5 70t7.5 119t-7.5 119.5t-33.5 70.5q-30 33 -86 33q-53 0 -86 -33q-41 -41 -41 -190z" />
<glyph unicode="&#x2122;" horiz-adv-x="1808" d="M84 1317v141h625v-141h-236v-733h-156v733h-233zM854 584v874h158l256 -497l258 497h157v-874h-157v571l-185 -367h-145l-184 367v-571h-158z" />
<glyph unicode="&#x2126;" horiz-adv-x="1325" d="M137 0v197h144q-60 55 -93 125q-23 51 -35 124t-14 130t-2 153q0 80 0.5 115t3 97.5t7.5 93t15 77t25.5 76t38 63.5t52.5 64q155 155 383 155q230 0 385 -155q34 -34 58.5 -69.5t39.5 -81t23.5 -81t12.5 -100t4.5 -105t0.5 -127.5v-22q0 -101 -1.5 -154t-13 -127.5 t-34.5 -125.5q-31 -67 -95 -125h144v-197h-424v178q99 49 147 123q32 49 44 142t12 276q0 223 -16.5 313t-69.5 148q-89 92 -217 92q-127 0 -216 -92q-53 -58 -69.5 -148t-16.5 -313q0 -186 11.5 -278t42.5 -140q48 -74 147 -123v-178h-424z" />
<glyph unicode="&#x2190;" horiz-adv-x="2103" d="M106 567l803 803h267l-707 -702h1526v-199h-1526l707 -702h-267z" />
<glyph unicode="&#x2191;" horiz-adv-x="2103" d="M248 444v267l801 802l802 -802v-267l-702 707v-1526h-199v1526z" />
<glyph unicode="&#x2192;" horiz-adv-x="2103" d="M109 471v197h1525l-706 704h266l803 -803l-803 -802h-266l706 704h-1525z" />
<glyph unicode="&#x2193;" horiz-adv-x="2103" d="M250 428v266l702 -706v1525h199v-1525l702 706v-266l-800 -803z" />
<glyph unicode="&#x2196;" horiz-adv-x="2103" d="M383 100v1135h1137l188 -188l-997 2l1077 -1078l-139 -139l-1080 1077l2 -997z" />
<glyph unicode="&#x2197;" horiz-adv-x="2103" d="M313 -29l1080 1080l-998 -4l189 188h1134v-1135l-186 -188l2 999l-1081 -1079z" />
<glyph unicode="&#x2198;" horiz-adv-x="2103" d="M328 1130l141 142l1079 -1079l-4 997l189 -191v-1132h-1135l-188 186l997 -2z" />
<glyph unicode="&#x2199;" horiz-adv-x="2103" d="M367 -133v1134l188 189v-997l1077 1079l140 -144l-1078 -1077l998 2l-189 -186h-1136z" />
<glyph unicode="&#x2202;" horiz-adv-x="1124" d="M125 510q0 144 25 239.5t92 165.5q113 117 288 117q145 0 220 -86v96q0 46 -13.5 88.5t-40.5 80t-76 59.5t-114 22q-74 0 -123.5 -21t-101.5 -69l-131 131q82 75 164 106t200 31q215 0 329.5 -126.5t114.5 -337.5v-496q0 -142 -24 -236.5t-92 -164.5q-114 -121 -299 -121 q-187 0 -301 121q-68 71 -92.5 165.5t-24.5 235.5zM334 510q0 -100 12.5 -167t52.5 -110q59 -59 144 -59q82 0 141 59q40 43 53 110.5t13 166.5t-13 166t-53 110q-60 60 -141 60q-84 0 -144 -60q-40 -43 -52.5 -109.5t-12.5 -166.5z" />
<glyph unicode="&#x2206;" horiz-adv-x="1267" d="M10 0l535 1458h178l532 -1458h-1245zM305 188h662l-330 940z" />
<glyph unicode="&#x220f;" horiz-adv-x="1413" d="M190 -420v1976h1035v-1976h-224v1780h-589v-1780h-222z" />
<glyph unicode="&#x2211;" horiz-adv-x="1130" d="M98 -240l400 832l-396 784v180h932v-198h-674l330 -666v-205l-336 -708h686v-199h-942v180z" />
<glyph unicode="&#x2212;" d="M104 471v195h883v-195h-883z" />
<glyph unicode="&#x2219;" horiz-adv-x="569" d="M160 444v250h250v-250h-250z" />
<glyph unicode="&#x221a;" horiz-adv-x="1187" d="M10 1038h228l202 -641l334 1061h352v-198h-186l-414 -1260h-172z" />
<glyph unicode="&#x221e;" horiz-adv-x="1699" d="M125 565q0 156 96 257.5t262 101.5q193 0 367 -205q88 104 175 154.5t192 50.5q166 0 262 -101.5t96 -257.5q0 -155 -96 -255.5t-262 -100.5q-104 0 -192 50t-175 153q-88 -103 -176 -154t-191 -51q-166 0 -262 101t-96 257zM326 561q0 -72 45 -117t114 -45q41 0 81.5 24 t68.5 52.5t76 85.5q-48 57 -76 85.5t-68.5 52.5t-81.5 24q-69 0 -114 -45t-45 -117zM989 561q50 -59 75.5 -86t66 -51.5t81.5 -24.5q69 0 115.5 45t46.5 117t-46.5 116t-115.5 44q-41 0 -81 -23.5t-66.5 -51t-75.5 -85.5z" />
<glyph unicode="&#x2224;" horiz-adv-x="569" d="M160 444v250h250v-250h-250z" />
<glyph unicode="&#x2227;" horiz-adv-x="569" d="M160 444v250h250v-250h-250z" />
<glyph unicode="&#x222b;" horiz-adv-x="886" d="M98 -236h90q146 0 146 152v1227q0 154 91.5 243t246.5 89h116v-179h-90q-147 0 -147 -151v-1227q0 -154 -90.5 -243t-245.5 -89h-117v178z" />
<glyph unicode="&#x2248;" horiz-adv-x="1175" d="M88 362q91 91 156 125.5t147 34.5q55 0 105 -16t122 -51q96 -49 164 -49q46 0 82.5 17.5t91.5 72.5l131 -131q-91 -91 -155.5 -125.5t-145.5 -34.5q-56 0 -107 16t-122 51q-98 50 -162 50q-46 0 -83.5 -18t-92.5 -73zM88 778q91 91 155 124.5t146 33.5q56 0 106 -16 t121 -50q96 -49 164 -49q47 0 83 16.5t91 71.5l133 -131q-90 -90 -155.5 -123.5t-147.5 -33.5q-96 0 -229 65q-96 49 -162 49q-47 0 -83 -16.5t-91 -71.5z" />
<glyph unicode="&#x2260;" horiz-adv-x="1169" d="M104 131l125 141h-125v195h283l180 203h-463v194h619l213 246l129 -104l-125 -142h125v-194h-283l-180 -203h463v-195h-621l-211 -245z" />
<glyph unicode="&#x2264;" d="M168 303v221l756 -362v-221zM168 682v184l756 365v-221l-502 -236l502 -235v-222z" />
<glyph unicode="&#x2265;" d="M168 -59v221l756 362v-221zM168 317v222l502 235l-502 236v221l756 -365v-184z" />
<glyph unicode="&#x22c5;" horiz-adv-x="569" d="M160 444v250h250v-250h-250z" />
<glyph unicode="&#x25ca;" horiz-adv-x="1314" d="M125 709l532 747l535 -747l-535 -748zM358 709l299 -426l299 426l-299 424z" />
<glyph unicode="&#x25fc;" horiz-adv-x="1034" d="M0 0v1034h1034v-1034h-1034z" />
<glyph horiz-adv-x="649" d="M176 240v979q0 75 9 130t38 107q8 14 17 27.5t16.5 24.5t20 25.5t19.5 22.5t23 24.5t21.5 22.5t24.5 24.5t24 23.5l141 -142q-7 -7 -23 -22.5t-22 -22l-18 -19.5t-19 -22t-15.5 -22t-16.5 -27q-31 -60 -31 -168v-954q0 -108 31 -168q9 -17 17.5 -30t23 -29.5t19.5 -22 t28 -28t26 -25.5l-141 -142q-5 5 -24 23.5t-24.5 24.5t-21.5 22.5t-23 24.5t-19.5 22.5t-20 25.5t-16.5 24.5t-17 27.5q-29 52 -38 107.5t-9 130.5z" />
<glyph horiz-adv-x="649" d="M119 -49l15 15l15.5 15.5l13.5 13.5t13 14t11.5 13.5t12 14.5t10.5 14.5t11 17t10 17.5q31 60 31 166v954q0 106 -31 166q-6 11 -12 21t-11 17t-13.5 17t-12.5 15t-14.5 16t-14 14.5l-17 17l-17.5 17.5l143 144q48 -48 66 -67t48.5 -56t49.5 -72q49 -87 49 -237v-979 q0 -151 -49 -238q-19 -35 -49.5 -72t-48.5 -56t-66 -67z" />
<glyph horiz-adv-x="872" d="M137 631v194h598v-194h-598z" />
<glyph horiz-adv-x="710" d="M176 -152v1762h447v-187h-238v-1388h238v-187h-447z" />
<glyph horiz-adv-x="710" d="M88 33h242v1392h-242v185h447v-1762h-447v185z" />
<glyph horiz-adv-x="833" d="M92 637v184h76q59 0 98 39q37 37 37 123v342q0 141 74 215q70 70 219 70h145v-187h-79q-52 0 -78.5 -5.5t-40.5 -22.5q-31 -31 -31 -131v-330q0 -48 -11 -83.5t-32.5 -58.5t-42 -36.5t-49.5 -26.5q29 -13 49.5 -26.5t42 -36.5t32.5 -58.5t11 -83.5v-329q0 -101 31 -132 q14 -17 40.5 -22.5t78.5 -5.5h79v-187h-145q-149 0 -219 70q-74 74 -74 215v342q0 86 -37 123q-39 39 -98 39h-76z" />
<glyph horiz-adv-x="833" d="M92 35h80q52 0 78.5 5.5t40.5 22.5q31 31 31 132v329q0 47 11.5 83t33 59t42 36.5t50.5 26.5q-30 13 -50.5 26.5t-42 36.5t-33 59t-11.5 83v330q0 100 -31 131q-14 17 -40.5 22.5t-78.5 5.5h-80v187h146q149 0 219 -70q39 -39 56 -89.5t17 -125.5v-342q0 -86 37 -123 q39 -39 101 -39h73v-184h-73q-62 0 -101 -39q-37 -37 -37 -123v-342q0 -75 -17 -125.5t-56 -89.5q-70 -70 -219 -70h-146v187z" />
<glyph horiz-adv-x="1212" d="M76 729l471 469v-252l-219 -217l219 -219v-252zM594 729l471 469v-252l-221 -217l221 -219v-252z" />
<glyph horiz-adv-x="872" d="M137 631v194h598v-194h-598z" />
<glyph horiz-adv-x="1212" d="M147 258v252l222 219l-222 217v252l474 -469zM666 258v252l219 219l-219 217v252l473 -469z" />
<glyph d="M104 631v194h883v-194h-883z" />
<glyph horiz-adv-x="1990" d="M137 629v198h1716v-198h-1716z" />
<glyph horiz-adv-x="694" d="M76 729l471 469v-252l-219 -217l219 -219v-252z" />
<glyph horiz-adv-x="694" d="M147 258v252l222 219l-222 217v252l474 -469z" />
<glyph horiz-adv-x="1099" d="M256 1559h231l154 -332h-158z" />
<glyph horiz-adv-x="1099" d="M233 1237v221h189v-221h-189zM676 1237v221h188v-221h-188z" />
<glyph horiz-adv-x="1024" d="M195 1266v149h632v-149h-632z" />
<glyph horiz-adv-x="1099" d="M442 1227l154 332h231l-227 -332h-158z" />
<glyph horiz-adv-x="1099" d="M197 1227l264 329h176l264 -329h-174l-178 198l-178 -198h-174z" />
<glyph horiz-adv-x="960" d="M137 1556h174l178 -198l179 198h174l-264 -329h-177z" />
<glyph horiz-adv-x="1024" d="M174 1511h148q9 -70 60 -106.5t130 -36.5q42 0 81 14t70 47.5t37 81.5h148q-9 -149 -97.5 -223t-238.5 -74q-151 0 -240 74t-98 223z" />
<glyph horiz-adv-x="1024" d="M412 1251v199h198v-199h-198z" />
<glyph horiz-adv-x="1085" d="M270 1436q0 106 75 181t181 75t181 -75t75 -181t-75 -181t-181 -75t-181 75t-75 181zM395 1436q0 -54 38.5 -91.5t92.5 -37.5t92.5 37.5t38.5 91.5t-38.5 91.5t-92.5 37.5t-92.5 -37.5t-38.5 -91.5z" />
<glyph horiz-adv-x="1099" d="M195 1368q66 66 113 89.5t100 23.5q42 0 75.5 -11.5t77.5 -37.5q64 -39 113 -39q58 0 121 63l98 -96q-65 -65 -113.5 -89t-99.5 -24q-74 0 -154 47q-66 39 -114 39q-31 0 -55.5 -11t-63.5 -50z" />
<glyph horiz-adv-x="1024" d="M170 1227l156 329h229l-227 -329h-158zM549 1227l156 329h229l-227 -329h-158z" />
<glyph horiz-adv-x="1024" d="M197 1460h165q12 -139 150 -139t150 139h165q-6 -143 -92.5 -209.5t-222.5 -66.5t-222 66.5t-93 209.5z" />
<glyph horiz-adv-x="1099" d="M233 1237v221h189v-221h-189z" />
<glyph d="M125 406v647q0 126 57 222.5t152 145.5t211 49t211.5 -49t153 -145.5t57.5 -222.5v-647q0 -126 -57.5 -222.5t-153 -146t-211.5 -49.5q-179 0 -299.5 114t-120.5 304zM334 412q0 -107 56.5 -172.5t154.5 -65.5q99 0 156 65.5t57 172.5v635q0 107 -57 172t-156 65 q-98 0 -154.5 -65t-56.5 -172v-635z" />
<glyph horiz-adv-x="827" d="M106 981v231l285 246h209v-1458h-209v1231z" />
<glyph horiz-adv-x="1042" d="M86 0v186l561 682q42 52 60 96t18 99q0 100 -56.5 160.5t-156.5 60.5q-92 0 -153.5 -55t-61.5 -170h-209q0 185 118.5 298t305.5 113q189 0 305.5 -111t116.5 -298q0 -91 -31.5 -157.5t-105.5 -158.5l-457 -559h594v-186h-848z" />
<glyph horiz-adv-x="1071" d="M72 395h209q6 -111 72.5 -166t164.5 -55q104 0 171 64.5t67 177.5t-62 176t-182 63h-35v183h35q111 0 166 59t55 162q0 106 -61 165.5t-154 59.5q-95 0 -153 -56t-66 -153h-209q9 182 129 290t299 108q187 0 305.5 -113.5t118.5 -294.5q0 -222 -182 -311 q205 -90 205 -344q0 -136 -61.5 -233.5t-161 -144t-224.5 -46.5q-90 0 -167.5 24.5t-139.5 72.5t-99 128t-40 184z" />
<glyph horiz-adv-x="1107" d="M78 219v195l514 1044h225l-512 -1044h363v340h202v-340h156v-195h-156v-219h-202v219h-590z" />
<glyph d="M121 377h209q25 -203 213 -203q94 0 151 57q42 42 56 105t14 151q0 55 -6 99t-21 83.5t-38.5 66t-61 42t-86.5 15.5q-84 0 -136 -36.5t-71 -94.5h-190v796h786v-186h-598v-385q81 84 242 84q168 0 262 -94q76 -76 101.5 -171.5t25.5 -218.5q0 -133 -24.5 -223t-98.5 -164 q-114 -114 -307 -114q-100 0 -181 31t-131 81q-96 96 -110 279z" />
<glyph horiz-adv-x="1038" d="M88 424q0 82 27.5 165.5t81.5 192.5l331 676h224l-314 -627q56 23 129 23q162 0 272.5 -117t110.5 -305q0 -200 -120 -322t-310 -122q-192 0 -312 118t-120 318zM297 428q0 -116 61 -185t160 -69t161 69t62 185q0 110 -60.5 181t-162.5 71q-100 0 -160.5 -67.5 t-60.5 -184.5z" />
<glyph horiz-adv-x="1026" d="M86 1042v416h868v-186l-487 -1272h-225l489 1272h-444v-230h-201z" />
<glyph horiz-adv-x="1124" d="M113 412q0 222 200 342q-78 47 -127 126t-49 187q0 180 121 291.5t303 111.5t304 -111.5t122 -291.5q0 -108 -49 -187t-127 -126q201 -120 201 -342q0 -193 -129 -308.5t-322 -115.5t-320.5 115.5t-127.5 308.5zM322 416q0 -102 69 -172t170 -70t170.5 70.5t69.5 171.5 q0 102 -69.5 172.5t-170.5 70.5t-170 -70.5t-69 -172.5zM346 1061q0 -97 60 -159t155 -62t156 62t61 159q0 96 -61 159.5t-156 63.5q-94 0 -154.5 -63.5t-60.5 -159.5z" />
<glyph horiz-adv-x="1038" d="M88 1026q0 200 120 322t310 122q192 0 312 -118t120 -318q0 -83 -27.5 -166.5t-80.5 -191.5l-332 -676h-223l313 627q-56 -23 -131 -23q-162 0 -271.5 117t-109.5 305zM297 1030q0 -110 59.5 -181t161.5 -71q100 0 161.5 67.5t61.5 184.5q0 116 -62 185t-161 69t-160 -69 t-61 -185z" />
<glyph horiz-adv-x="1093" d="M125 406v411q0 126 57.5 222.5t153 146t211.5 49.5t211.5 -49.5t153 -146t57.5 -222.5v-411q0 -126 -57.5 -222.5t-153 -146t-211.5 -49.5t-211.5 49.5t-153 146t-57.5 222.5zM334 412q0 -107 57 -172.5t156 -65.5t156 65.5t57 172.5v399q0 107 -57 172.5t-156 65.5 t-156 -65.5t-57 -172.5v-399z" />
<glyph horiz-adv-x="833" d="M106 745v232l287 246h209v-1223h-209v995z" />
<glyph horiz-adv-x="1081" d="M86 0v186l496 451q141 128 141 248q0 89 -59 147t-152 58q-89 0 -152 -58t-63 -158h-209q0 178 121.5 290t302.5 112q184 0 302 -109.5t118 -279.5q0 -55 -16 -105t-50 -98.5t-69 -87t-90 -90.5l-338 -320h596v-186h-879z" />
<glyph horiz-adv-x="1077" d="M72 158h209q6 -110 73.5 -165.5t165.5 -55.5q104 0 171 64.5t67 176.5q0 113 -62.5 176.5t-183.5 63.5h-35v182h35q110 0 165.5 59.5t55.5 163.5q0 106 -61 166t-154 60q-95 0 -153 -56t-66 -153h-209q9 182 129 288.5t299 106.5q187 0 305.5 -113.5t118.5 -294.5 q0 -223 -180 -311q205 -90 205 -342q0 -136 -61.5 -233.5t-161 -144t-224.5 -46.5q-90 0 -167.5 24t-140.5 72.5t-100 128.5t-40 183z" />
<glyph horiz-adv-x="1159" d="M78 61v195l518 1044h223l-518 -1044h401v360h201v-360h174v-195h-174v-313h-201v313h-624z" />
<glyph horiz-adv-x="1095" d="M125 141h209q25 -202 213 -202q96 0 153 57q41 41 54.5 103.5t13.5 152.5q0 69 -9.5 121.5t-32.5 95.5t-65.5 65.5t-103.5 22.5q-85 0 -137.5 -36.5t-71.5 -94.5h-188v797h784v-187h-596v-385q81 84 240 84q168 0 262 -94q76 -76 101.5 -171t25.5 -218q0 -133 -24.5 -223 t-98.5 -164q-115 -115 -307 -115q-99 0 -178.5 31t-130.5 82q-99 99 -113 278z" />
<glyph horiz-adv-x="1101" d="M94 446q0 106 30 204t95 214l350 627h224l-359 -621q66 35 168 35q177 0 291.5 -122.5t114.5 -325.5q0 -212 -127 -340.5t-330 -128.5q-204 0 -330.5 123t-126.5 335zM303 451q0 -129 68.5 -206t179.5 -77t179.5 77t68.5 206q0 123 -67 203.5t-181 80.5 q-111 0 -179.5 -77.5t-68.5 -206.5z" />
<glyph horiz-adv-x="1081" d="M92 807v416h918v-187l-566 -1282h-223l565 1282h-493v-229h-201z" />
<glyph horiz-adv-x="1124" d="M113 412q0 222 200 342q-78 48 -128 126.5t-50 186.5q0 180 122 291.5t304 111.5t304 -111.5t122 -291.5q0 -108 -49 -187t-127 -126q201 -120 201 -342q0 -193 -129 -308.5t-322 -115.5t-320.5 115.5t-127.5 308.5zM322 416q0 -102 69 -172t170 -70t171.5 70.5 t70.5 171.5t-70.5 172t-171.5 71t-170 -70.5t-69 -172.5zM344 1061q0 -97 61 -159t156 -62t156 62t61 159q0 96 -61 159.5t-156 63.5t-156 -63.5t-61 -159.5z" />
<glyph horiz-adv-x="1101" d="M94 766q0 212 127 340.5t330 128.5q204 0 330.5 -123.5t126.5 -335.5q0 -107 -29.5 -205t-93.5 -213l-353 -626h-223l359 620q-66 -35 -166 -35q-177 0 -292.5 123t-115.5 326zM303 772q0 -124 67 -204.5t181 -80.5q111 0 179.5 77.5t68.5 207.5q0 129 -68.5 206 t-179.5 77t-179.5 -77t-68.5 -206z" />
<glyph horiz-adv-x="679" d="M242 127q0 55 39 94t94 39t94 -39t39 -94t-39 -94t-94 -39t-94 39t-39 94zM248 1458h254l-47 -1024h-158z" />
<glyph horiz-adv-x="581" d="M141 143q0 61 44 104.5t106 43.5t105.5 -43.5t43.5 -104.5t-44 -105t-105 -44q-62 0 -106 44t-44 105z" />
<glyph horiz-adv-x="634" d="M195 143q0 61 43.5 104.5t105.5 43.5t105 -43.5t43 -104.5q0 -62 -43.5 -105.5t-104.5 -43.5q-62 0 -105.5 44t-43.5 105zM195 711q0 61 43.5 105t105.5 44q61 0 104.5 -43.5t43.5 -105.5t-43.5 -106t-104.5 -44t-105 44t-44 106z" />
<glyph horiz-adv-x="620" d="M195 711q0 61 43.5 105t105.5 44q61 0 104.5 -43.5t43.5 -105.5t-43.5 -106t-104.5 -44t-105 44t-44 106zM225 238h238v-361l-238 -194v555z" />
<glyph horiz-adv-x="1046" d="M145 1077q0 172 116.5 282.5t291.5 110.5q173 0 291.5 -107.5t118.5 -283.5q0 -68 -25.5 -127t-73.5 -125l-157 -221q-37 -50 -37 -110v-62h-209v72q0 62 16 107.5t53 95.5l160 215q64 85 64 155q0 87 -56.5 146t-144.5 59q-92 0 -145.5 -60t-53.5 -147h-209zM432 127 q0 56 38 94.5t93 38.5t94 -39t39 -94t-39 -94t-94 -39t-93 38.5t-38 94.5z" />
<glyph horiz-adv-x="1966" d="M137 510q0 151 46 289.5t130.5 249.5t198 194t255 127.5t294.5 44.5q232 0 412 -94t278 -262t98 -383q0 -121 -45.5 -232t-124.5 -194t-193.5 -132.5t-244.5 -49.5h-172l23 106q-107 -119 -242 -119q-132 0 -209.5 75.5t-77.5 205.5q0 58 23 184q28 140 64.5 228.5 t105.5 148.5q101 88 241 88q164 0 226 -121l20 109h189l-154 -776q124 5 218.5 74.5t142 175.5t47.5 229q0 263 -173.5 424.5t-451.5 161.5q-155 0 -294.5 -58.5t-239.5 -158.5t-159 -239.5t-59 -295.5q0 -225 92.5 -395.5t266 -264.5t405.5 -94h129l-28 -141h-130 q-199 0 -368.5 67.5t-287.5 185.5t-184.5 284t-66.5 358zM762 381q0 -80 39.5 -119t101.5 -39q82 0 141 56q71 68 105 243q16 94 16 137q0 80 -40.5 119t-102.5 39q-81 0 -137 -53q-73 -70 -107 -246q-16 -94 -16 -137z" />
<glyph horiz-adv-x="1175" d="M137 729q0 80 0.5 115t3 97.5t7.5 93t15 77t25.5 76t38 63.5t52.5 64q155 155 383 155q129 0 224 -43t183 -129l-147 -149q-64 64 -120 93.5t-140 29.5q-134 0 -216 -88q-54 -58 -70 -145.5t-16 -309.5t16 -309.5t70 -145.5q82 -88 216 -88q84 0 140 29.5t120 93.5 l147 -149q-88 -86 -183 -129t-224 -43q-228 0 -383 155q-30 30 -52.5 64t-38 63.5t-25.5 76t-15 77t-7.5 93t-3 97.5t-0.5 115z" />
<glyph horiz-adv-x="1312" d="M137 729q0 80 0.5 115t3 97.5t7.5 93t15 77t25.5 76t38 63.5t52.5 64q155 155 383 155q144 0 240.5 -44.5t199.5 -147.5l-150 -150q-77 77 -138 110.5t-152 33.5q-64 0 -121.5 -24t-96.5 -66q-54 -58 -70 -144.5t-16 -308.5t16 -309.5t70 -145.5q38 -41 96 -64.5 t122 -23.5q144 0 233 103q72 80 72 231v80h-305v188h526v-219q0 -144 -29.5 -241t-99.5 -172q-157 -168 -397 -168q-228 0 -383 155q-30 30 -52.5 64t-38 63.5t-25.5 76t-15 77t-7.5 93t-3 97.5t-0.5 115z" />
<glyph horiz-adv-x="540" d="M135 1376q0 56 39.5 95.5t95.5 39.5t96 -40t40 -95t-40 -95t-96 -40t-95.5 39.5t-39.5 95.5zM166 0v1038h209v-1038h-209z" />
<glyph horiz-adv-x="540" d="M-39 -246h92q61 0 87 29.5t26 91.5v1163h209v-1175q0 -124 -72 -205.5t-213 -81.5h-129v178zM135 1376q0 56 39.5 95.5t95.5 39.5t96 -40t40 -95t-40 -95t-96 -40t-95.5 39.5t-39.5 95.5z" />
<glyph horiz-adv-x="679" d="M209 911q0 55 38.5 94t94.5 39t94.5 -39t38.5 -94t-38.5 -93t-94.5 -38t-94.5 38t-38.5 93zM215 -420l47 1024h158l49 -1024h-254z" />
<glyph horiz-adv-x="1024" d="M172 1346q0 47 34 80.5t81 33.5t81.5 -33.5t34.5 -80.5t-34.5 -82t-81.5 -35t-81 35t-34 82zM621 1346q0 47 34.5 80.5t81.5 33.5t81 -33.5t34 -80.5t-34 -82t-81 -35t-81.5 35t-34.5 82z" />
<glyph horiz-adv-x="581" d="M141 565q0 61 44 104.5t106 43.5t105.5 -43.5t43.5 -104.5t-44 -105t-105 -44q-62 0 -106 44t-44 105z" />
<glyph horiz-adv-x="1024" d="M442 -70q99 0 160.5 -57.5t61.5 -144.5t-62 -145t-160 -58v113q41 0 68 26.5t27 63.5t-27 63.5t-68 26.5v112z" />
<glyph horiz-adv-x="1046" d="M113 -39q0 119 96 252l158 221q36 49 36 111v61h209v-74q0 -62 -15.5 -106.5t-53.5 -95.5l-160 -215q-61 -81 -61 -156q0 -88 55 -145.5t143 -57.5q92 0 145.5 59t53.5 146h209q0 -172 -116.5 -282.5t-291.5 -110.5q-172 0 -289.5 108t-117.5 285zM377 911q0 55 38.5 94 t94.5 39t94.5 -39t38.5 -94t-38.5 -93t-94.5 -38t-94.5 38t-38.5 93z" />
<glyph horiz-adv-x="1280" d="M16 0l535 1458h178l535 -1458h-236l-100 293h-576l-100 -293h-236zM291 1718q0 47 34 81t81 34t81.5 -34t34.5 -81t-34.5 -81.5t-81.5 -34.5t-81 34.5t-34 81.5zM418 481h448l-221 647zM739 1718q0 47 35 81t82 34t81 -34t34 -81t-34 -81.5t-81 -34.5t-82 34.5t-35 81.5z " />
<glyph horiz-adv-x="1175" d="M137 729q0 80 0.5 115t3 97.5t7.5 93t15 77t25.5 76t38 63.5t52.5 64q155 155 383 155q129 0 224 -43t183 -129l-147 -149q-64 64 -120 93.5t-140 29.5q-134 0 -216 -88q-54 -58 -70 -145.5t-16 -309.5t16 -309.5t70 -145.5q82 -88 216 -88q84 0 140 29.5t120 93.5 l147 -149q-88 -86 -183 -129t-224 -43q-228 0 -383 155q-30 30 -52.5 64t-38 63.5t-25.5 76t-15 77t-7.5 93t-3 97.5t-0.5 115zM543 -70q98 0 159.5 -57.5t61.5 -144.5q0 -88 -61.5 -145.5t-159.5 -57.5v113q41 0 67.5 26.5t26.5 63.5t-26.5 63.5t-67.5 26.5v112z" />
<glyph horiz-adv-x="1234" d="M190 0v1458h932v-198h-710v-426h606v-197h-606v-438h710v-199h-932zM297 1718q0 47 34 81t81 34t81.5 -34t34.5 -81t-34.5 -81.5t-81.5 -34.5t-81 34.5t-34 81.5zM745 1718q0 47 35 81t82 34t81 -34t34 -81t-34 -81.5t-81 -34.5t-82 34.5t-35 81.5z" />
<glyph horiz-adv-x="602" d="M-33 1718q0 47 34 81t81 34t82 -34t35 -81t-35 -81.5t-82 -34.5t-81 34.5t-34 81.5zM190 0v1458h222v-1458h-222zM416 1718q0 47 34.5 81t81.5 34t81 -34t34 -81t-34 -81.5t-81 -34.5t-81.5 34.5t-34.5 81.5z" />
<glyph horiz-adv-x="1323" d="M137 729q0 80 0.5 115t3 97.5t7.5 93t15 77t25.5 76t38 63.5t52.5 64q155 155 383 155q230 0 385 -155q34 -34 58.5 -69.5t39.5 -81t23.5 -81t12.5 -100t4.5 -105t0.5 -127.5v-22v-22q0 -86 -0.5 -127t-4.5 -105.5t-12.5 -100t-23.5 -81t-39.5 -81t-58.5 -69.5 q-155 -155 -385 -155q-228 0 -383 155q-30 30 -52.5 64t-38 63.5t-25.5 76t-15 77t-7.5 93t-3 97.5t-0.5 115zM322 1718q0 47 33.5 81t80.5 34t82 -34t35 -81t-35 -81.5t-82 -34.5t-80.5 34.5t-33.5 81.5zM358 729q0 -222 16 -308.5t70 -144.5q39 -42 96.5 -66t121.5 -24 t121 24t96 66q54 58 70 144.5t16 308.5t-16 308.5t-70 144.5q-39 42 -96 66t-121 24t-121.5 -24t-96.5 -66q-54 -58 -70 -144.5t-16 -308.5zM770 1718q0 47 35 81t82 34t80.5 -34t33.5 -81t-33.5 -81.5t-80.5 -34.5t-82 34.5t-35 81.5z" />
<glyph horiz-adv-x="1382" d="M168 492v966h221v-956q0 -146 82 -231t219 -85t220 85.5t83 230.5v956h221v-966q0 -148 -69 -263.5t-188 -178t-267 -62.5q-225 0 -373.5 140.5t-148.5 363.5zM350 1718q0 47 34 81t81 34t82 -34t35 -81t-35 -81.5t-82 -34.5t-81 34.5t-34 81.5zM799 1718q0 47 34.5 81 t81.5 34t81 -34t34 -81t-34 -81.5t-81 -34.5t-81.5 34.5t-34.5 81.5z" />
<glyph horiz-adv-x="1085" d="M88 305q0 135 92.5 217t265.5 82h275v74q0 100 -53.5 147t-173.5 47q-86 0 -135.5 -22t-92.5 -78l-137 129q72 84 156.5 117t216.5 33q428 0 428 -357v-694h-205v94q-58 -58 -119.5 -82t-156.5 -24q-185 0 -279 94q-82 85 -82 223zM184 1346q0 47 34 80.5t81 33.5 q48 0 82.5 -33.5t34.5 -80.5t-35 -82t-82 -35t-81 35t-34 82zM291 309q0 -147 190 -147q69 0 113 11t82 48q45 45 45 154v84h-244q-91 0 -138.5 -39.5t-47.5 -110.5zM633 1346q0 47 34.5 80.5t82.5 33.5q47 0 80.5 -33.5t33.5 -80.5q0 -48 -33.5 -82.5t-80.5 -34.5t-82 35 t-35 82z" />
<glyph horiz-adv-x="993" d="M113 520q0 113 26 204t69.5 151t103.5 100.5t125.5 58t137.5 17.5q108 0 189 -34t154 -112l-144 -139q-50 54 -94 76t-105 22q-122 0 -192 -92q-33 -42 -47 -101t-14 -151q0 -177 61 -254q70 -92 192 -92q61 0 105 22t94 76l144 -137q-73 -78 -154 -112.5t-189 -34.5 q-72 0 -137.5 17.5t-125.5 58t-103.5 100.5t-69.5 151.5t-26 204.5zM442 -70q99 0 160.5 -57.5t61.5 -144.5t-62 -145t-160 -58v113q41 0 68 26.5t27 63.5t-27 63.5t-68 26.5v112z" />
<glyph horiz-adv-x="1103" d="M113 524q0 244 118 385.5t322 141.5q201 0 319.5 -135.5t118.5 -364.5v-94h-672q7 -291 273 -291q75 0 130.5 25.5t113.5 82.5l131 -124q-89 -88 -175 -125t-208 -37q-233 0 -352 136t-119 400zM219 1346q0 47 34 80.5t81 33.5q48 0 82.5 -33.5t34.5 -80.5t-35 -82 t-82 -35t-81 35t-34 82zM319 604h467q-19 273 -233 273q-61 0 -106.5 -22t-72.5 -61t-40 -86.5t-15 -103.5zM668 1346q0 47 34.5 80.5t81.5 33.5t81 -33.5t34 -80.5t-34 -82t-81 -35t-81.5 35t-34.5 82z" />
<glyph horiz-adv-x="540" d="M-72 1346q0 47 34 80.5t81 33.5q48 0 82.5 -33.5t34.5 -80.5t-35 -82t-82 -35t-81 35t-34 82zM166 0v1038h209v-1038h-209zM377 1346q0 47 34.5 80.5t82.5 33.5q47 0 80.5 -33.5t33.5 -80.5q0 -48 -33.5 -82.5t-80.5 -34.5t-82 35t-35 82z" />
<glyph horiz-adv-x="1099" d="M117 520q0 141 26.5 238.5t96.5 169.5q119 123 309 123q192 0 311 -123q70 -72 96.5 -169.5t26.5 -238.5q0 -142 -26.5 -239t-96.5 -170q-119 -123 -311 -123q-190 0 -309 123q-70 73 -96.5 170t-26.5 239zM207 1346q0 47 34 80.5t81 33.5t81.5 -33.5t34.5 -80.5 t-34.5 -82t-81.5 -35t-81 35t-34 82zM326 520q0 -102 14 -171.5t57 -112.5q62 -62 152 -62q91 0 153 62q43 43 57.5 113t14.5 171t-14.5 171.5t-57.5 113.5q-59 59 -153 59q-93 0 -152 -59q-43 -43 -57 -113t-14 -172zM655 1346q0 47 34.5 80.5t82.5 33.5q47 0 81 -33.5 t34 -80.5t-34 -82t-81 -35t-82 35t-35 82z" />
<glyph d="M98 471v195h893v-195h-893zM397 172q0 62 43.5 106t104.5 44t105 -44t44 -106t-44 -105.5t-105 -43.5t-104.5 43.5t-43.5 105.5zM397 965q0 62 43.5 105.5t104.5 43.5t105 -44t44 -105t-43.5 -104.5t-105.5 -43.5q-61 0 -104.5 43.5t-43.5 104.5z" />
<glyph horiz-adv-x="1163" d="M156 375v663h209v-632q0 -116 57.5 -174t150.5 -58q94 0 154.5 59t60.5 173v632h209v-1038h-204v104q-107 -116 -277 -116q-159 0 -256 94q-104 101 -104 293zM236 1346q0 47 33.5 80.5t80.5 33.5q48 0 82.5 -33.5t34.5 -80.5t-35 -82t-82 -35t-80.5 34.5t-33.5 82.5z M684 1346q0 47 34.5 80.5t82.5 33.5q47 0 80.5 -33.5t33.5 -80.5q0 -48 -33.5 -82.5t-80.5 -34.5t-82 35t-35 82z" />
<glyph horiz-adv-x="958" d="M16 1038h222l247 -731l242 731h223l-458 -1245q-29 -82 -76 -129q-76 -76 -213 -76h-84v189h53q65 0 95.5 23t54.5 87l57 162zM137 1346q0 47 34 80.5t81 33.5q48 0 82.5 -33.5t34.5 -80.5t-35 -82t-82 -35t-81 35t-34 82zM586 1346q0 47 34.5 80.5t81.5 33.5t81 -33.5 t34 -80.5t-34 -82t-81 -35t-81.5 35t-34.5 82z" />
<glyph horiz-adv-x="1280" d="M16 0l535 1458h178l535 -1458h-236l-100 293h-576l-100 -293h-236zM418 481h448l-221 647zM1018 -272q0 87 61.5 144.5t159.5 57.5v-112q-41 0 -67.5 -26.5t-26.5 -63.5t26.5 -63.5t67.5 -26.5v-113q-98 0 -159.5 57.5t-61.5 145.5z" />
<glyph horiz-adv-x="1085" d="M88 305q0 135 92.5 217t265.5 82h275v74q0 100 -53.5 147t-173.5 47q-86 0 -135.5 -22t-92.5 -78l-137 129q72 84 156.5 117t216.5 33q428 0 428 -357v-694h-205v94q-58 -58 -119.5 -82t-156.5 -24q-185 0 -279 94q-82 85 -82 223zM291 309q0 -147 190 -147q69 0 113 11 t82 48q45 45 45 154v84h-244q-91 0 -138.5 -39.5t-47.5 -110.5zM684 -272q0 87 61.5 144.5t159.5 57.5v-112q-41 0 -67.5 -26.5t-26.5 -63.5t26.5 -63.5t67.5 -26.5v-113q-98 0 -159.5 57.5t-61.5 145.5z" />
<glyph horiz-adv-x="1175" d="M137 729q0 80 0.5 115t3 97.5t7.5 93t15 77t25.5 76t38 63.5t52.5 64q155 155 383 155q129 0 224 -43t183 -129l-147 -149q-64 64 -120 93.5t-140 29.5q-134 0 -216 -88q-54 -58 -70 -145.5t-16 -309.5t16 -309.5t70 -145.5q82 -88 216 -88q84 0 140 29.5t120 93.5 l147 -149q-88 -86 -183 -129t-224 -43q-228 0 -383 155q-30 30 -52.5 64t-38 63.5t-25.5 76t-15 77t-7.5 93t-3 97.5t-0.5 115zM516 1599l154 332h231l-227 -332h-158z" />
<glyph horiz-adv-x="1175" d="M137 729q0 80 0.5 115t3 97.5t7.5 93t15 77t25.5 76t38 63.5t52.5 64q155 155 383 155q129 0 224 -43t183 -129l-147 -149q-64 64 -120 93.5t-140 29.5q-134 0 -216 -88q-54 -58 -70 -145.5t-16 -309.5t16 -309.5t70 -145.5q82 -88 216 -88q84 0 140 29.5t120 93.5 l147 -149q-88 -86 -183 -129t-224 -43q-228 0 -383 155q-30 30 -52.5 64t-38 63.5t-25.5 76t-15 77t-7.5 93t-3 97.5t-0.5 115zM309 1599l264 330h177l264 -330h-174l-178 199l-179 -199h-174z" />
<glyph horiz-adv-x="1175" d="M137 729q0 80 0.5 115t3 97.5t7.5 93t15 77t25.5 76t38 63.5t52.5 64q155 155 383 155q129 0 224 -43t183 -129l-147 -149q-64 64 -120 93.5t-140 29.5q-134 0 -216 -88q-54 -58 -70 -145.5t-16 -309.5t16 -309.5t70 -145.5q82 -88 216 -88q84 0 140 29.5t120 93.5 l147 -149q-88 -86 -183 -129t-224 -43q-228 0 -383 155q-30 30 -52.5 64t-38 63.5t-25.5 76t-15 77t-7.5 93t-3 97.5t-0.5 115zM530 1720q0 47 35 82t82 35t82 -35t35 -82t-35 -81.5t-82 -34.5t-82 34.5t-35 81.5z" />
<glyph horiz-adv-x="1009" d="M113 520q0 113 26 204t69.5 151t103.5 100.5t125.5 58t137.5 17.5q108 0 189 -34t154 -112l-144 -139q-50 54 -94 76t-105 22q-122 0 -192 -92q-33 -42 -47 -101t-14 -151q0 -177 61 -254q70 -92 192 -92q61 0 105 22t94 76l144 -137q-73 -78 -154 -112.5t-189 -34.5 q-72 0 -137.5 17.5t-125.5 58t-103.5 100.5t-69.5 151.5t-26 204.5zM459 1358q0 49 33.5 83t80.5 34t82 -34t35 -81t-34.5 -82t-80.5 -35q-49 0 -82.5 34t-33.5 81z" />
<glyph horiz-adv-x="1175" d="M137 729q0 80 0.5 115t3 97.5t7.5 93t15 77t25.5 76t38 63.5t52.5 64q155 155 383 155q129 0 224 -43t183 -129l-147 -149q-64 64 -120 93.5t-140 29.5q-134 0 -216 -88q-54 -58 -70 -145.5t-16 -309.5t16 -309.5t70 -145.5q82 -88 216 -88q84 0 140 29.5t120 93.5 l147 -149q-88 -86 -183 -129t-224 -43q-228 0 -383 155q-30 30 -52.5 64t-38 63.5t-25.5 76t-15 77t-7.5 93t-3 97.5t-0.5 115zM309 1929h174l179 -198l178 198h174l-264 -330h-177z" />
<glyph horiz-adv-x="1132" d="M117 520q0 148 23 258t93 180q93 93 252 93q88 0 153 -26t120 -91v524h209v-1458h-205v111q-56 -68 -121 -95.5t-154 -27.5q-77 0 -144 24.5t-110 67.5q-70 70 -93 180.5t-23 259.5zM326 520q0 -61 4.5 -107.5t18 -93.5t36.5 -77t63 -49t95 -19t94.5 19t62.5 49 t36.5 77.5t17.5 93.5t4 107t-4 107t-17.5 93t-36.5 76.5t-62.5 48.5t-94.5 19t-95 -19t-63 -48.5t-36.5 -76.5t-18 -93t-4.5 -107zM1157 1098v405h186v-250q-10 -8 -80 -66t-106 -89z" />
<glyph horiz-adv-x="1232" d="M190 0v1458h932v-198h-710v-426h606v-197h-606v-438h710v-199h-932zM514 1720q0 47 35 82t82 35t82 -35t35 -82t-35 -81.5t-82 -34.5t-82 34.5t-35 81.5z" />
<glyph horiz-adv-x="1103" d="M113 520q0 249 119 390t321 141q206 0 323 -137.5t117 -362.5v-92h-674q0 -135 69.5 -213t195.5 -78q85 0 139.5 24t112.5 82l133 -124q-84 -84 -171.5 -123t-217.5 -39q-81 0 -149 17t-127.5 56.5t-101 100t-65.5 151.5t-24 207zM319 604h467q-3 81 -28 141t-79 96 t-126 36t-127 -36t-80 -96q-24 -57 -27 -141zM416 1376q0 56 40 95.5t95 39.5t94 -39.5t39 -93.5q0 -57 -38.5 -96t-94.5 -39t-95.5 39t-39.5 94z" />
<glyph horiz-adv-x="1234" d="M190 0v1458h932v-198h-710v-426h606v-197h-606v-438h710v-199h-932zM868 -272q0 87 61.5 144.5t160.5 57.5v-112q-41 0 -68 -26.5t-27 -63.5t27 -63.5t68 -26.5v-113q-98 0 -160 58t-62 145z" />
<glyph horiz-adv-x="1103" d="M113 520q0 249 119 390t321 141q206 0 323 -137.5t117 -362.5v-92h-674q0 -135 69.5 -213t195.5 -78q85 0 139.5 24t112.5 82l133 -124q-84 -84 -171.5 -123t-217.5 -39q-81 0 -149 17t-127.5 56.5t-101 100t-65.5 151.5t-24 207zM319 604h467q-3 81 -28 141t-79 96 t-126 36t-127 -36t-80 -96q-24 -57 -27 -141zM678 -272q0 87 61.5 144.5t159.5 57.5v-112q-41 0 -67.5 -26.5t-26.5 -63.5t26.5 -63.5t67.5 -26.5v-113q-98 0 -159.5 57.5t-61.5 145.5z" />
<glyph horiz-adv-x="1312" d="M137 729q0 80 0.5 115t3 97.5t7.5 93t15 77t25.5 76t38 63.5t52.5 64q155 155 383 155q144 0 240.5 -44.5t199.5 -147.5l-150 -150q-77 77 -138 110.5t-152 33.5q-64 0 -121.5 -24t-96.5 -66q-54 -58 -70 -144.5t-16 -308.5t16 -309.5t70 -145.5q38 -41 96 -64.5 t122 -23.5q144 0 233 103q72 80 72 231v80h-305v188h526v-219q0 -144 -29.5 -241t-99.5 -172q-157 -168 -397 -168q-228 0 -383 155q-30 30 -52.5 64t-38 63.5t-25.5 76t-15 77t-7.5 93t-3 97.5t-0.5 115zM309 1599l264 330h177l264 -330h-174l-178 199l-179 -199h-174z" />
<glyph horiz-adv-x="1312" d="M137 729q0 80 0.5 115t3 97.5t7.5 93t15 77t25.5 76t38 63.5t52.5 64q155 155 383 155q144 0 240.5 -44.5t199.5 -147.5l-150 -150q-77 77 -138 110.5t-152 33.5q-64 0 -121.5 -24t-96.5 -66q-54 -58 -70 -144.5t-16 -308.5t16 -309.5t70 -145.5q38 -41 96 -64.5 t122 -23.5q144 0 233 103q72 80 72 231v80h-305v188h526v-219q0 -144 -29.5 -241t-99.5 -172q-157 -168 -397 -168q-228 0 -383 155q-30 30 -52.5 64t-38 63.5t-25.5 76t-15 77t-7.5 93t-3 97.5t-0.5 115zM324 1919h147q9 -70 61 -107.5t130 -37.5t129.5 37.5t60.5 107.5 h147q-9 -149 -98 -223t-239 -74t-239.5 74t-98.5 223z" />
<glyph horiz-adv-x="1312" d="M137 729q0 80 0.5 115t3 97.5t7.5 93t15 77t25.5 76t38 63.5t52.5 64q155 155 383 155q144 0 240.5 -44.5t199.5 -147.5l-150 -150q-77 77 -138 110.5t-152 33.5q-64 0 -121.5 -24t-96.5 -66q-54 -58 -70 -144.5t-16 -308.5t16 -309.5t70 -145.5q38 -41 96 -64.5 t122 -23.5q144 0 233 103q72 80 72 231v80h-305v188h526v-219q0 -144 -29.5 -241t-99.5 -172q-157 -168 -397 -168q-228 0 -383 155q-30 30 -52.5 64t-38 63.5t-25.5 76t-15 77t-7.5 93t-3 97.5t-0.5 115zM543 1720q0 47 34.5 82t81.5 35t82 -35t35 -82t-35 -81.5t-82 -34.5 t-81.5 34.5t-34.5 81.5z" />
<glyph horiz-adv-x="1105" d="M117 539q0 151 23.5 252t92.5 170q90 90 250 90q87 0 152 -27.5t121 -95.5v110h202v-1032q0 -194 -120 -316t-324 -122q-119 0 -202 31t-165 106l134 133q53 -49 102.5 -70.5t122.5 -21.5q124 0 184 75t60 189v133q-55 -65 -120 -91.5t-149 -26.5q-156 0 -248 92 q-69 69 -92.5 170t-23.5 252zM326 539q0 -55 4 -97.5t17 -87.5t35.5 -74t62.5 -48t94 -19t93.5 19t62 48t35.5 74.5t16.5 87t3.5 97.5t-3.5 97.5t-16.5 87t-35.5 74t-62 47.5t-93.5 19t-94 -19t-62.5 -47.5t-35.5 -73.5t-17 -87.5t-4 -97.5zM424 1358q0 49 33.5 83t81.5 34 q47 0 81.5 -34t34.5 -81t-34 -82t-80 -35q-49 0 -83 34.5t-34 80.5z" />
<glyph horiz-adv-x="1312" d="M137 729q0 80 0.5 115t3 97.5t7.5 93t15 77t25.5 76t38 63.5t52.5 64q155 155 383 155q144 0 240.5 -44.5t199.5 -147.5l-150 -150q-77 77 -138 110.5t-152 33.5q-64 0 -121.5 -24t-96.5 -66q-54 -58 -70 -144.5t-16 -308.5t16 -309.5t70 -145.5q38 -41 96 -64.5 t122 -23.5q144 0 233 103q72 80 72 231v80h-305v188h526v-219q0 -144 -29.5 -241t-99.5 -172q-157 -168 -397 -168q-228 0 -383 155q-30 30 -52.5 64t-38 63.5t-25.5 76t-15 77t-7.5 93t-3 97.5t-0.5 115zM555 -70q98 0 159.5 -57.5t61.5 -144.5q0 -88 -61.5 -145.5 t-159.5 -57.5v113q41 0 67.5 26.5t26.5 63.5t-26.5 63.5t-67.5 26.5v112z" />
<glyph horiz-adv-x="1124" d="M117 539q0 151 23.5 252t92.5 170q90 90 250 90q87 0 152 -27.5t121 -95.5v110h202v-1032q0 -194 -120 -316t-324 -122q-119 0 -202 31t-165 106l134 133q53 -49 102.5 -70.5t122.5 -21.5q124 0 184 75t60 189v133q-55 -65 -120 -91.5t-149 -26.5q-156 0 -248 92 q-69 69 -92.5 170t-23.5 252zM326 539q0 -55 4 -97.5t17 -87.5t35.5 -74t62.5 -48t94 -19t93.5 19t62 48t35.5 74.5t16.5 87t3.5 97.5t-3.5 97.5t-16.5 87t-35.5 74t-62 47.5t-93.5 19t-94 -19t-62.5 -47.5t-35.5 -73.5t-17 -87.5t-4 -97.5zM444 1366q0 87 62 145t160 58 v-113q-41 0 -68 -26.5t-27 -63.5t27 -63.5t68 -26.5v-111q-99 0 -160.5 57t-61.5 144z" />
<glyph horiz-adv-x="602" d="M184 -272q0 87 61.5 144.5t160.5 57.5v-112q-41 0 -68 -26.5t-27 -63.5t27 -63.5t68 -26.5v-113q-98 0 -160 58t-62 145zM190 0v1458h222v-1458h-222z" />
<glyph horiz-adv-x="540" d="M135 1376q0 56 39.5 95.5t95.5 39.5t96 -40t40 -95t-40 -95t-96 -40t-95.5 39.5t-39.5 95.5zM150 -266q0 88 61.5 145.5t159.5 57.5v-113q-41 0 -68 -26.5t-27 -63.5t27 -63.5t68 -26.5v-113q-98 0 -159.5 57.5t-61.5 145.5zM166 0v1038h209v-1038h-209z" />
<glyph horiz-adv-x="602" d="M184 1720q0 47 35 82t82 35t82 -35t35 -82t-35 -81.5t-82 -34.5t-82 34.5t-35 81.5zM190 0v1458h222v-1458h-222z" />
<glyph horiz-adv-x="1347" d="M190 0v1458h222v-733l596 733h270l-473 -571l522 -887h-260l-410 719l-245 -295v-424h-222zM596 -70q98 0 159.5 -57.5t61.5 -144.5q0 -88 -61.5 -145.5t-159.5 -57.5v113q41 0 67.5 26.5t26.5 63.5t-26.5 63.5t-67.5 26.5v112z" />
<glyph horiz-adv-x="1122" d="M166 0v1458h209v-899l403 479h254l-360 -407l405 -631h-258l-291 479l-153 -174v-305h-209zM467 -70q98 0 159.5 -57.5t61.5 -144.5q0 -88 -61.5 -145.5t-159.5 -57.5v113q41 0 67.5 26.5t26.5 63.5t-26.5 63.5t-67.5 26.5v112z" />
<glyph horiz-adv-x="1175" d="M190 0v1458h222v-1259h702v-199h-924zM553 -70q98 0 159.5 -57.5t61.5 -144.5q0 -88 -61.5 -145.5t-159.5 -57.5v113q41 0 67.5 26.5t26.5 63.5t-26.5 63.5t-67.5 26.5v112z" />
<glyph horiz-adv-x="636" d="M160 287v1171h209v-1159q0 -62 25.5 -91.5t86.5 -29.5h92v-178h-129q-141 0 -212.5 81t-71.5 206zM270 -70q99 0 160.5 -57.5t61.5 -144.5t-62 -145t-160 -58v113q41 0 68 26.5t27 63.5t-27 63.5t-68 26.5v112z" />
<glyph horiz-adv-x="1175" d="M190 0v1458h222v-1259h702v-199h-924zM662 1053v405h186v-250q-10 -8 -80 -66t-106 -89z" />
<glyph horiz-adv-x="636" d="M160 287v1171h209v-1159q0 -62 25.5 -91.5t86.5 -29.5h92v-178h-129q-141 0 -212.5 81t-71.5 206zM559 1098v405h186v-250q-10 -8 -80 -66t-106 -89z" />
<glyph horiz-adv-x="1478" d="M190 0v1458h203l674 -1024v1024h221v-1458h-203l-673 1026v-1026h-222zM614 -70q99 0 160.5 -57.5t61.5 -144.5t-62 -145t-160 -58v113q41 0 68 26.5t27 63.5t-27 63.5t-68 26.5v112z" />
<glyph horiz-adv-x="1163" d="M166 0v1038h205v-104q108 117 276 117q158 0 256 -95q105 -102 105 -292v-664h-209v633q0 116 -58 173.5t-151 57.5q-94 0 -154.5 -58.5t-60.5 -172.5v-633h-209zM500 -70q98 0 159.5 -57.5t61.5 -144.5q0 -88 -61.5 -145.5t-159.5 -57.5v113q41 0 67.5 26.5t26.5 63.5 t-26.5 63.5t-67.5 26.5v112z" />
<glyph horiz-adv-x="1341" d="M190 0v1458h566q205 0 328.5 -119t123.5 -307q0 -151 -80.5 -251.5t-209.5 -135.5l335 -645h-258l-307 614h-276v-614h-222zM412 803h327q112 0 180 60.5t68 166.5t-68 168t-180 62h-327v-457zM553 -70q98 0 159.5 -57.5t61.5 -144.5q0 -88 -61.5 -145.5t-159.5 -57.5 v113q41 0 67.5 26.5t26.5 63.5t-26.5 63.5t-67.5 26.5v112z" />
<glyph horiz-adv-x="899" d="M166 0v1038h205v-112q40 56 114.5 90.5t161.5 34.5q149 0 248 -99l-158 -157q-38 38 -71 53.5t-84 15.5q-87 0 -147 -64t-60 -169v-631h-209zM188 -70q99 0 160.5 -57.5t61.5 -144.5t-62 -145t-160 -58v113q41 0 68 26.5t27 63.5t-27 63.5t-68 26.5v112z" />
<glyph horiz-adv-x="1208" d="M61 180l148 146q77 -77 166 -108.5t207 -31.5q142 0 221.5 59t79.5 165q0 99 -58 151q-28 27 -61.5 40t-97.5 22l-172 24q-178 24 -277 117q-106 100 -106 278q0 193 131 310.5t356 117.5q145 0 252.5 -39t200.5 -126l-142 -140q-118 113 -317 113q-125 0 -195.5 -63.5 t-70.5 -163.5q0 -87 55 -136q58 -51 164 -67l166 -25q99 -15 162 -40.5t110 -67.5q119 -104 119 -299q0 -198 -145.5 -313t-378.5 -115q-169 0 -292 44.5t-225 147.5zM504 -70q98 0 159.5 -57.5t61.5 -144.5q0 -88 -61.5 -145.5t-159.5 -57.5v113q41 0 67.5 26.5t26.5 63.5 t-26.5 63.5t-67.5 26.5v112z" />
<glyph horiz-adv-x="1021" d="M66 137l137 137q105 -108 299 -108q101 0 164 36.5t63 106.5q0 112 -139 123l-166 14q-307 25 -307 287q0 148 111 233t280 85q251 0 385 -117l-131 -133q-91 76 -256 76q-91 0 -140 -37t-49 -97q0 -105 144 -118l164 -15q150 -12 229.5 -85t79.5 -208 q0 -158 -119.5 -243.5t-312.5 -85.5q-140 0 -245 32t-191 117zM418 -70q98 0 159.5 -57.5t61.5 -144.5q0 -88 -61.5 -145.5t-159.5 -57.5v113q41 0 67.5 26.5t26.5 63.5t-26.5 63.5t-67.5 26.5v112z" />
<glyph horiz-adv-x="1146" d="M61 1260v198h1024v-198h-401v-1260h-221v1260h-402zM463 -70q98 0 159.5 -57.5t61.5 -144.5q0 -88 -61.5 -145.5t-159.5 -57.5v113q41 0 67.5 26.5t26.5 63.5t-26.5 63.5t-67.5 26.5v112z" />
<glyph horiz-adv-x="700" d="M72 860v160h118v315h209v-315h201v-160h-201v-561q0 -121 115 -121h86v-178h-125q-138 0 -211.5 83.5t-73.5 205.5v571h-118zM281 -70q98 0 159.5 -57.5t61.5 -144.5q0 -88 -61.5 -145.5t-159.5 -57.5v113q41 0 67.5 26.5t26.5 63.5t-26.5 63.5t-67.5 26.5v112z" />
<glyph horiz-adv-x="700" d="M72 860v160h118v315h209v-315h201v-160h-201v-561q0 -121 115 -121h86v-178h-125q-138 0 -211.5 83.5t-73.5 205.5v571h-118zM571 1098v405h187v-250q-17 -14 -84.5 -69t-102.5 -86z" />
<glyph horiz-adv-x="1382" d="M168 492v966h221v-956q0 -146 82 -231t219 -85t220 85.5t83 230.5v956h221v-966q0 -148 -69 -263.5t-188 -178t-267 -62.5q-225 0 -373.5 140.5t-148.5 363.5zM879 -272q0 87 61.5 144.5t159.5 57.5v-112q-41 0 -67.5 -26.5t-26.5 -63.5t26.5 -63.5t67.5 -26.5v-113 q-98 0 -159.5 57.5t-61.5 145.5z" />
<glyph horiz-adv-x="1163" d="M156 375v663h209v-632q0 -116 57.5 -174t150.5 -58q94 0 154.5 59t60.5 173v632h209v-1038h-204v104q-107 -116 -277 -116q-159 0 -256 94q-104 101 -104 293zM750 -272q0 87 61.5 144.5t159.5 57.5v-112q-41 0 -67.5 -26.5t-26.5 -63.5t26.5 -63.5t67.5 -26.5v-113 q-98 0 -159.5 57.5t-61.5 145.5z" />
<glyph horiz-adv-x="1114" d="M10 1458h242l305 -641l305 641h242l-436 -858v-600h-222v600zM215 1718q0 47 34 81t81 34t81.5 -34t34.5 -81t-34.5 -81.5t-81.5 -34.5t-81 34.5t-34 81.5zM664 1718q0 47 34.5 81t81.5 34t81 -34t34 -81t-34 -81.5t-81 -34.5t-81.5 34.5t-34.5 81.5z" />
<glyph horiz-adv-x="1130" d="M98 0v190l674 1070h-645v198h905v-180l-678 -1079h678v-199h-934zM494 1720q0 47 34.5 82t81.5 35t82 -35t35 -82t-35 -81.5t-82 -34.5t-81.5 34.5t-34.5 81.5z" />
<glyph horiz-adv-x="960" d="M88 0v166l516 686h-487v186h745v-166l-520 -686h520v-186h-774zM365 1358q0 49 33.5 83t80.5 34t82 -34t35 -81t-34.5 -82t-80.5 -35q-49 0 -82.5 34t-33.5 81z" />
<glyph horiz-adv-x="1208" d="M61 180l148 146q77 -77 166 -108.5t207 -31.5q142 0 221.5 59t79.5 165q0 99 -58 151q-28 27 -61.5 40t-97.5 22l-172 24q-178 24 -277 117q-106 100 -106 278q0 193 131 310.5t356 117.5q145 0 252.5 -39t200.5 -126l-142 -140q-118 113 -317 113q-125 0 -195.5 -63.5 t-70.5 -163.5q0 -87 55 -136q58 -51 164 -67l166 -25q99 -15 162 -40.5t110 -67.5q119 -104 119 -299q0 -198 -145.5 -313t-378.5 -115q-169 0 -292 44.5t-225 147.5zM506 -70q98 0 159.5 -57.5t61.5 -144.5q0 -88 -61.5 -145.5t-159.5 -57.5v113q41 0 67.5 26.5t26.5 63.5 t-26.5 63.5t-67.5 26.5v112z" />
<glyph horiz-adv-x="1021" d="M66 137l137 137q105 -108 299 -108q101 0 164 36.5t63 106.5q0 112 -139 123l-166 14q-307 25 -307 287q0 148 111 233t280 85q251 0 385 -117l-131 -133q-91 76 -256 76q-91 0 -140 -37t-49 -97q0 -105 144 -118l164 -15q150 -12 229.5 -85t79.5 -208 q0 -158 -119.5 -243.5t-312.5 -85.5q-140 0 -245 32t-191 117zM418 -70q98 0 159.5 -57.5t61.5 -144.5q0 -88 -61.5 -145.5t-159.5 -57.5v113q41 0 67.5 26.5t26.5 63.5t-26.5 63.5t-67.5 26.5v112z" />
<glyph horiz-adv-x="1146" d="M61 1260v198h1024v-198h-401v-1260h-221v1260h-402zM461 -70q98 0 159.5 -57.5t61.5 -144.5q0 -88 -61.5 -145.5t-159.5 -57.5v113q41 0 67.5 26.5t26.5 63.5t-26.5 63.5t-67.5 26.5v112z" />
<glyph horiz-adv-x="700" d="M72 860v160h118v315h209v-315h201v-160h-201v-561q0 -121 115 -121h86v-178h-125q-138 0 -211.5 83.5t-73.5 205.5v571h-118zM281 -70q98 0 159.5 -57.5t61.5 -144.5q0 -88 -61.5 -145.5t-159.5 -57.5v113q41 0 67.5 26.5t26.5 63.5t-26.5 63.5t-67.5 26.5v112z" />
<glyph horiz-adv-x="1024" d="M377 1376q0 56 39.5 95.5t95.5 39.5q55 0 94 -39.5t39 -93.5q0 -57 -38.5 -96t-94.5 -39t-95.5 39t-39.5 94z" />
<glyph horiz-adv-x="1024" d="M678 -272q0 87 61.5 144.5t159.5 57.5v-112q-41 0 -67.5 -26.5t-26.5 -63.5t26.5 -63.5t67.5 -26.5v-113q-98 0 -159.5 57.5t-61.5 145.5z" />
<glyph horiz-adv-x="1024" d="M406 1227l153 332h232l-228 -332h-157z" />
<glyph horiz-adv-x="983" d="M70 1325q0 47 33.5 81t80.5 34t82 -34t35 -81t-35 -82t-82 -35t-80.5 34.5t-33.5 82.5zM354 1227l154 332h231l-227 -332h-158zM682 1325q0 47 35 81t82 34t80.5 -34t33.5 -81q0 -48 -33.5 -82.5t-80.5 -34.5t-82 35t-35 82z" />
<glyph horiz-adv-x="1280" d="M-115 1126l154 332h231l-227 -332h-158zM16 0l535 1458h178l535 -1458h-236l-100 293h-576l-100 -293h-236zM418 481h448l-221 647z" />
<glyph horiz-adv-x="581" d="M141 565q0 61 44 104.5t106 43.5t105.5 -43.5t43.5 -104.5t-44 -105t-105 -44q-62 0 -106 44t-44 105z" />
<glyph horiz-adv-x="1234" d="M-319 1126l153 332h232l-228 -332h-157zM190 0v1458h932v-198h-710v-426h606v-197h-606v-438h710v-199h-932z" />
<glyph horiz-adv-x="1415" d="M-319 1126l153 332h232l-228 -332h-157zM190 0v1458h222v-622h592v622h221v-1458h-221v637h-592v-637h-222z" />
<glyph horiz-adv-x="602" d="M-319 1124l153 332h232l-228 -332h-157zM190 0v1458h222v-1458h-222z" />
<glyph horiz-adv-x="1323" d="M-258 1126l154 332h231l-227 -332h-158zM137 729q0 80 0.5 115t3 97.5t7.5 93t15 77t25.5 76t38 63.5t52.5 64q155 155 383 155q230 0 385 -155q34 -34 58.5 -69.5t39.5 -81t23.5 -81t12.5 -100t4.5 -105t0.5 -127.5v-22v-22q0 -86 -0.5 -127t-4.5 -105.5t-12.5 -100 t-23.5 -81t-39.5 -81t-58.5 -69.5q-155 -155 -385 -155q-228 0 -383 155q-30 30 -52.5 64t-38 63.5t-25.5 76t-15 77t-7.5 93t-3 97.5t-0.5 115zM358 729q0 -222 16 -308.5t70 -144.5q39 -42 96.5 -66t121.5 -24t121 24t96 66q54 58 70 144.5t16 308.5t-16 308.5t-70 144.5 q-39 42 -96 66t-121 24t-121.5 -24t-96.5 -66q-54 -58 -70 -144.5t-16 -308.5z" />
<glyph horiz-adv-x="1114" d="M-401 1126l153 332h232l-228 -332h-157zM10 1458h242l305 -641l305 641h242l-436 -858v-600h-222v600z" />
<glyph horiz-adv-x="1325" d="M-258 1126l154 332h231l-227 -332h-158zM137 0v197h144q-60 55 -93 125q-23 51 -35 124t-14 130t-2 153q0 80 0.5 115t3 97.5t7.5 93t15 77t25.5 76t38 63.5t52.5 64q155 155 383 155q230 0 385 -155q34 -34 58.5 -69.5t39.5 -81t23.5 -81t12.5 -100t4.5 -105t0.5 -127.5 v-22q0 -101 -1.5 -154t-13 -127.5t-34.5 -125.5q-31 -67 -95 -125h144v-197h-424v178q99 49 147 123q32 49 44 142t12 276q0 223 -16.5 313t-69.5 148q-89 92 -217 92q-127 0 -216 -92q-53 -58 -69.5 -148t-16.5 -313q0 -186 11.5 -278t42.5 -140q48 -74 147 -123v-178h-424 z" />
<glyph horiz-adv-x="636" d="M-115 1325q0 47 34 81t81 34t82 -34t35 -81t-35 -82t-82 -35t-81 35t-34 82zM160 287v751h209v-739q0 -62 25.5 -91.5t86.5 -29.5h92v-178h-129q-141 0 -212.5 81t-71.5 206zM170 1227l154 332h231l-227 -332h-158zM498 1325q0 47 34.5 81t81.5 34t81 -34t34 -81t-34 -82 t-81 -35t-81.5 35t-34.5 82z" />
<glyph horiz-adv-x="1167" d="M113 0v199h942v-199h-942zM113 1260v198h942v-198h-942zM217 637v197h733v-197h-733z" />
<glyph horiz-adv-x="602" d="M-33 1718q0 47 34 81t81 34t82 -34t35 -81t-35 -81.5t-82 -34.5t-81 34.5t-34 81.5zM190 0v1458h222v-1458h-222zM416 1718q0 47 34.5 81t81.5 34t81 -34t34 -81t-34 -81.5t-81 -34.5t-81.5 34.5t-34.5 81.5z" />
<glyph horiz-adv-x="1114" d="M10 1458h242l305 -641l305 641h242l-436 -858v-600h-222v600zM215 1718q0 47 34 81t81 34t81.5 -34t34.5 -81t-34.5 -81.5t-81.5 -34.5t-81 34.5t-34 81.5zM664 1718q0 47 34.5 81t81.5 34t81 -34t34 -81t-34 -81.5t-81 -34.5t-81.5 34.5t-34.5 81.5z" />
<glyph horiz-adv-x="1132" d="M117 520q0 148 23 258t93 180q93 93 252 93q88 0 153 -26t120 -91v104h209v-1038h-205v111q-56 -68 -121 -95.5t-154 -27.5q-77 0 -144 24.5t-110 67.5q-70 70 -93 180.5t-23 259.5zM326 520q0 -61 4.5 -107.5t18 -93.5t36.5 -77t63 -49t95 -19t94.5 19t62.5 49 t36.5 77.5t17.5 93.5t4 107t-4 107t-17.5 93t-36.5 76.5t-62.5 48.5t-94.5 19t-95 -19t-63 -48.5t-36.5 -76.5t-18 -93t-4.5 -107zM446 1227l154 332h231l-227 -332h-158z" />
<glyph horiz-adv-x="1015" d="M111 295q0 91 45 151.5t112 88.5q-60 24 -101.5 81t-41.5 138q0 95 58 164.5t141.5 101t177.5 31.5q136 0 214.5 -27t184.5 -111l-123 -143q-85 65 -138 83.5t-124 18.5q-75 0 -129.5 -37.5t-54.5 -91.5q0 -58 48.5 -97.5t125.5 -39.5h190v-160h-180q-58 0 -99 -14.5 t-60 -37.5t-27 -44t-8 -41q0 -57 52.5 -98t139.5 -41q79 0 150 31.5t149 91.5l145 -127q-108 -93 -217.5 -134.5t-246.5 -41.5q-70 0 -136 18.5t-122.5 54t-90.5 95.5t-34 137zM426 1227l154 332h231l-227 -332h-158z" />
<glyph horiz-adv-x="1163" d="M166 0v1038h205v-104q108 117 276 117q158 0 256 -95q105 -102 105 -292v-664h-209v633q0 116 -58 173.5t-151 57.5q-94 0 -154.5 -58.5t-60.5 -172.5v-633h-209zM487 1227l154 332h231l-227 -332h-158z" />
<glyph horiz-adv-x="636" d="M160 287v751h209v-739q0 -62 25.5 -91.5t86.5 -29.5h92v-178h-129q-141 0 -212.5 81t-71.5 206zM180 1227l154 332h231l-227 -332h-158z" />
<glyph horiz-adv-x="1110" d="M123 1325q0 47 34 81t81 34t81.5 -34t34.5 -81t-34.5 -82t-81.5 -35t-81 35t-34 82zM133 530v508h209v-508v-35v-39.5t1.5 -36.5t3.5 -40.5t7 -36t11.5 -37.5t17 -31t23.5 -30q38 -38 70 -54t79 -16t79.5 16t70.5 54q15 15 26 32t18 41.5t11 39t6 46.5t2.5 41t0 46.5 t-0.5 39.5v508h209v-508q0 -67 -3 -110t-14 -103.5t-38 -111.5t-70 -94q-123 -123 -297 -123t-297 123q-43 43 -70 94t-38 111.5t-14 103.5t-3 110zM408 1227l153 332h232l-228 -332h-157zM735 1325q0 47 35 81t82 34t81 -34t34 -81t-34 -82t-81 -35t-82 35t-35 82z" />
<glyph horiz-adv-x="1210" d="M180 0v1038h850v-1038h-205v844h-438v-844h-207z" />
<glyph horiz-adv-x="1394" d="M117 520q0 113 25 205.5t78.5 167.5t148 116.5t223.5 41.5v407h209v-407q105 0 187 -27.5t136 -75t89 -116t50 -145.5t15 -167q0 -114 -25 -206.5t-78.5 -167.5t-148.5 -116.5t-225 -41.5v-408h-209v408q-105 0 -187 28t-135.5 76t-88.5 116.5t-49.5 145t-14.5 166.5z M326 520q0 -52 6.5 -97t24.5 -92.5t46.5 -81t77 -54.5t111.5 -21v690q-266 0 -266 -344zM801 174q64 0 112.5 21t77.5 54t47 80.5t24.5 93t6.5 97.5q0 344 -268 344v-690z" />
<glyph horiz-adv-x="1390" d="M133 520v518h211v-518q0 -61 4 -104t18.5 -89.5t40 -75t71.5 -47t110 -18.5v1272h213v-1272q65 0 111 18t72 45.5t40.5 73.5t18.5 90t4 107v518h210v-518q0 -124 -22.5 -217t-73.5 -166t-141.5 -111t-218.5 -38v-408h-213v408q-127 0 -217 38t-141.5 111t-74 166.5 t-22.5 216.5z" />
<glyph horiz-adv-x="636" d="M-72 1346q0 47 34 80.5t81 33.5q48 0 82.5 -33.5t34.5 -80.5t-35 -82t-82 -35t-81 35t-34 82zM160 287v751h209v-739q0 -62 25.5 -91.5t86.5 -29.5h92v-178h-129q-141 0 -212.5 81t-71.5 206zM377 1346q0 47 34.5 80.5t82.5 33.5q47 0 80.5 -33.5t33.5 -80.5 q0 -48 -33.5 -82.5t-80.5 -34.5t-82 35t-35 82z" />
<glyph horiz-adv-x="1110" d="M133 530v508h209v-508v-35v-39.5t1.5 -36.5t3.5 -40.5t7 -36t11.5 -37.5t17 -31t23.5 -30q38 -38 70 -54t79 -16t79.5 16t70.5 54q15 15 26 32t18 41.5t11 39t6 46.5t2.5 41t0 46.5t-0.5 39.5v508h209v-508q0 -67 -3 -110t-14 -103.5t-38 -111.5t-70 -94 q-123 -123 -297 -123t-297 123q-43 43 -70 94t-38 111.5t-14 103.5t-3 110zM215 1346q0 47 34 80.5t81 33.5t81.5 -33.5t34.5 -80.5t-34.5 -82t-81.5 -35t-81 35t-34 82zM664 1346q0 47 34.5 80.5t81.5 33.5t81 -33.5t34 -80.5t-34 -82t-81 -35t-81.5 35t-34.5 82z" />
<glyph horiz-adv-x="1099" d="M117 520q0 141 26.5 238.5t96.5 169.5q119 123 309 123q192 0 311 -123q70 -72 96.5 -169.5t26.5 -238.5q0 -142 -26.5 -239t-96.5 -170q-119 -123 -311 -123q-190 0 -309 123q-70 73 -96.5 170t-26.5 239zM326 520q0 -102 14 -171.5t57 -112.5q62 -62 152 -62 q91 0 153 62q43 43 57.5 113t14.5 171t-14.5 171.5t-57.5 113.5q-59 59 -153 59q-93 0 -152 -59q-43 -43 -57 -113t-14 -172zM467 1227l154 332h231l-227 -332h-158z" />
<glyph horiz-adv-x="1110" d="M133 530v508h209v-508v-35v-39.5t1.5 -36.5t3.5 -40.5t7 -36t11.5 -37.5t17 -31t23.5 -30q38 -38 70 -54t79 -16t79.5 16t70.5 54q15 15 26 32t18 41.5t11 39t6 46.5t2.5 41t0 46.5t-0.5 39.5v508h209v-508q0 -67 -3 -110t-14 -103.5t-38 -111.5t-70 -94 q-123 -123 -297 -123t-297 123q-43 43 -70 94t-38 111.5t-14 103.5t-3 110zM467 1227l154 332h231l-227 -332h-158z" />
<glyph horiz-adv-x="1536" d="M117 520q0 114 28 225t84 173q120 133 316 133v-197q-53 0 -98.5 -21.5t-69.5 -54.5q-30 -43 -40.5 -91.5t-10.5 -166.5q0 -184 41 -262q43 -84 131 -84q62 0 100 43.5t53 112.5q13 55 13 188v252h208v-252q0 -136 11 -188q15 -70 53 -113t102 -43q88 0 131 84 q41 78 41 262q0 118 -10.5 166.5t-40.5 91.5q-24 33 -69.5 54.5t-98.5 21.5v197q196 0 316 -133q56 -62 84 -173t28 -225q0 -238 -67 -362q-95 -170 -314 -170q-53 0 -95 12t-74 37t-54 51t-47 66q-25 -40 -47 -66t-54 -51t-74 -37t-95 -12q-219 0 -314 170q-67 124 -67 362 zM692 1227l154 332h231l-227 -332h-158z" />
<glyph horiz-adv-x="1171" d="M166 0v1075q0 166 118 274.5t302 108.5q190 0 301.5 -93t111.5 -271q0 -101 -45.5 -175t-130.5 -112q54 -14 95.5 -38.5t79 -67t57.5 -112t20 -163.5q0 -115 -53.5 -215.5t-149 -161.5t-210.5 -61q-99 0 -168 32t-123 91v-111h-205zM373 432q0 -111 60.5 -185.5 t182.5 -74.5q127 0 191.5 77t64.5 183q0 79 -23 131t-68 77.5t-95 34.5t-121 9h-116v174h120q59 0 103 14.5t67.5 36t37.5 52.5t18 56.5t4 55.5q0 108 -57.5 159.5t-151.5 51.5q-109 0 -163 -66t-54 -180v-606z" />
<glyph horiz-adv-x="1234" d="M190 0v1458h934v-198h-712v-426h606v-197h-606v-438h712v-199h-934zM297 1718q0 47 34 81t81 34t81.5 -34t34.5 -81t-34.5 -81.5t-81.5 -34.5t-81 34.5t-34 81.5zM745 1718q0 47 35 81t82 34t81 -34t34 -81t-34 -81.5t-81 -34.5t-82 34.5t-35 81.5z" />
<glyph horiz-adv-x="1175" d="M137 715v98q0 206 30 313t112 189q155 155 385 155q119 0 202 -34q95 -38 203 -138l-147 -149q-63 63 -120.5 93t-135.5 30q-134 0 -215 -84q-24 -26 -41 -61.5t-26 -65t-14.5 -78t-6.5 -73.5t-3 -79h478v-194h-478q2 -148 20.5 -230t70.5 -137q81 -84 215 -84 q78 0 135.5 30t120.5 93l147 -149q-60 -55 -104.5 -85.5t-98.5 -51.5q-83 -35 -200 -35q-235 0 -387 155q-40 41 -67.5 91.5t-42 98t-22 118t-9 123t-1.5 141.5z" />
<glyph horiz-adv-x="602" d="M-45 1729q0 47 34 80.5t81 33.5t81.5 -33.5t34.5 -80.5t-34.5 -82t-81.5 -35t-81 35t-34 82zM190 0v1458h222v-1458h-222zM403 1729q0 47 34.5 80.5t82.5 33.5q47 0 81 -33.5t34 -80.5t-34 -82t-81 -35t-82 35t-35 82z" />
<glyph horiz-adv-x="2078" d="M25 0v199h36q35 0 60 4.5t53 20t47.5 43t40.5 73.5t34.5 112.5t26 160.5t20 215.5t11.5 279t4 350.5h844v-573h340q208 0 334.5 -122.5t126.5 -320.5q0 -197 -127 -319.5t-334 -122.5h-561v1260h-408q0 -204 -6.5 -366t-21 -289.5t-34.5 -221t-50.5 -161t-64.5 -110.5 t-82 -68t-98 -34.5t-116 -9.5h-75zM1202 199h320q122 0 191 64.5t69 178.5q0 113 -69.5 178.5t-190.5 65.5h-320v-487z" />
<glyph horiz-adv-x="1366" d="M188 0v1458h222v-624h176q77 0 126.5 52.5t84.5 137.5l67 164q25 61 40 93t42 72t55.5 59t72.5 32.5t102 13.5h79v-198h-47q-47 0 -72 -11t-37.5 -30.5t-33.5 -69.5l-92 -227q-44 -108 -148 -166q66 -16 109 -63.5t74 -121.5l106 -254q5 -11 15.5 -34t15 -30.5 t15.5 -21.5t22.5 -18.5t30 -9t44.5 -4.5h60v-199h-105q-84 0 -141 24.5t-96 79.5q-28 40 -82 164l-96 234q-55 133 -207 133h-180v-635h-222zM571 1599l154 332h231l-227 -332h-158z" />
<glyph horiz-adv-x="1433" d="M47 199h133q98 192 138 455t40 804h834v-1259h172v-527h-217v328h-885v-328h-215v527zM416 199h555v1061h-402q0 -426 -36.5 -661t-116.5 -400z" />
<glyph horiz-adv-x="1986" d="M51 0v199h60q26 0 44.5 4.5t30 9t22.5 18.5t15.5 21.5t15 30.5t15.5 34l106 254q31 74 74 121.5t109 63.5q-104 58 -148 166l-92 227q-21 50 -33.5 69.5t-37.5 30.5t-72 11h-47v198h80q42 0 76 -7t59.5 -17t48.5 -31t38 -38.5t32.5 -51t28 -57.5t28.5 -68l67 -164 q35 -85 84.5 -137.5t126.5 -52.5h101v624h221v-624h100q77 0 126.5 52.5t84.5 137.5l68 164q18 44 28.5 68t28 57.5t32.5 51t38 38.5t48.5 31t59.5 17t76 7h80v-198h-47q-67 0 -90.5 -20t-53.5 -91l-92 -227q-44 -109 -147 -166q66 -16 108.5 -63.5t73.5 -121.5l107 -254 q5 -11 15.5 -34t15 -30.5t15.5 -21.5t22.5 -18.5t30 -9t44.5 -4.5h59v-199h-104q-164 0 -238 104q-28 40 -82 164l-96 234q-55 133 -207 133h-104v-635h-221v635h-105q-152 0 -207 -133l-96 -234q-54 -124 -82 -164q-39 -55 -96 -79.5t-141 -24.5h-105z" />
<glyph horiz-adv-x="1206" d="M57 180l146 148q83 -76 168 -109t198 -33q118 0 196.5 63t78.5 169q0 114 -68 174.5t-190 60.5h-174v185h178q110 0 171.5 58.5t61.5 164.5q0 100 -71 157.5t-181 57.5q-196 0 -325 -115l-137 142q100 89 214.5 128t256.5 39q201 0 332.5 -108.5t131.5 -286.5 q0 -226 -200 -321q108 -43 165.5 -129.5t57.5 -212.5q0 -190 -140.5 -307t-353.5 -117q-166 0 -285.5 42t-230.5 150z" />
<glyph horiz-adv-x="1366" d="M188 0v1458h222v-624h176q77 0 126.5 52.5t84.5 137.5l67 164q25 61 40 93t42 72t55.5 59t72.5 32.5t102 13.5h79v-198h-47q-47 0 -72 -11t-37.5 -30.5t-33.5 -69.5l-92 -227q-44 -108 -148 -166q66 -16 109 -63.5t74 -121.5l106 -254q5 -11 15.5 -34t15 -30.5 t15.5 -21.5t22.5 -18.5t30 -9t44.5 -4.5h60v-199h-105q-84 0 -141 24.5t-96 79.5q-28 40 -82 164l-96 234q-55 133 -207 133h-180v-635h-222z" />
<glyph horiz-adv-x="1394" d="M25 0v199h36q35 0 60 4.5t53 20t47.5 43t40.5 73.5t34.5 112.5t26 160.5t20 215.5t11.5 279t4 350.5h844v-1458h-221v1260h-408q0 -204 -6.5 -366t-21 -289.5t-34.5 -221t-50.5 -161t-64.5 -110.5t-82 -68t-98 -34.5t-116 -9.5h-75z" />
<glyph horiz-adv-x="1175" d="M137 690v98q0 214 27.5 326.5t114.5 200.5q155 155 385 155q124 0 217 -40q83 -35 188 -132l-147 -149q-68 67 -124 95t-134 28q-133 0 -218 -88q-30 -32 -48.5 -76t-26 -107.5t-9.5 -113t-2 -137.5v-66q0 -190 17 -272.5t69 -137.5q82 -88 218 -88q78 0 134 28t124 95 l147 -149q-103 -95 -188 -131q-96 -41 -215 -41q-235 0 -387 155q-40 40 -67.5 90t-42 96t-22 113.5t-9 116.5t-1.5 131z" />
<glyph horiz-adv-x="1175" d="M106 160l142 145q122 -119 262 -119q134 0 219 88q50 53 67 131.5t19 231.5h-475v194h473q-4 125 -17 197.5t-53 128.5q-87 115 -233 115q-81 0 -136.5 -28.5t-123.5 -92.5l-141 149q60 55 103.5 85t98.5 51q90 34 201 34q233 0 375 -145q85 -85 118 -209t33 -323v-129 q0 -90 -3.5 -147t-16 -131t-43 -134t-78.5 -109q-75 -75 -176.5 -115t-210.5 -40q-118 0 -201 35q-97 39 -203 137z" />
<glyph horiz-adv-x="1337" d="M68 0v199h49q67 0 91 21t54 91l82 197q41 97 111 145q-136 15 -230 113.5t-94 265.5q0 189 124.5 307.5t328.5 118.5h565v-1458h-223v612h-168q-135 0 -191 -133l-104 -246q-33 -78 -67.5 -125.5t-92 -77.5t-137.5 -30h-98zM352 1030q0 -107 68 -170t178 -63h328v463 h-328q-110 0 -178 -62t-68 -168z" />
<glyph horiz-adv-x="1110" d="M135 623v79q0 101 4 166t18 144t46.5 140t83.5 108q50 46 120.5 74.5t124.5 38t135 18.5q14 1 21 2q37 5 57 19.5t21 47.5h176q0 -110 -42 -169.5t-132 -78.5q-18 -2 -76.5 -8t-87 -10.5t-74 -15t-79 -28t-60.5 -42.5q-43 -40 -66.5 -104t-25.5 -121q41 63 125 105 t176 42q206 0 302.5 -135t96.5 -381q0 -267 -106 -395q-109 -131 -326 -131q-153 0 -254.5 72t-142.5 198q-35 106 -35 365zM344 506q0 -192 68 -266q57 -66 153 -66q109 0 168 78q58 76 58 260q0 186 -58 262q-58 74 -168 74t-166 -78q-32 -42 -43.5 -104.5t-11.5 -159.5z " />
<glyph horiz-adv-x="1163" d="M31 182l119 2q59 141 84.5 327t25.5 527h701v-856h143v-448h-201v266h-674v-266h-198v448zM367 184l385 -2v674h-293q0 -421 -92 -672z" />
<glyph horiz-adv-x="1556" d="M51 0v182h45q54 0 75.5 20t43.5 77l47 127q43 113 141 141q-78 26 -110 112l-35 103q-21 61 -43 79.5t-82 18.5h-33v178h72q100 0 158 -41t92 -135l49 -139q16 -46 55 -76.5t90 -30.5h58v422h209v-422h55q53 0 92 30.5t55 76.5l50 139q34 94 91 135t158 41h70v-178h-31 q-60 0 -81.5 -18.5t-43.5 -79.5l-36 -103q-32 -85 -111 -112q53 -15 86 -48.5t55 -92.5l49 -127q22 -57 43.5 -77t73.5 -20h47v-182h-75q-112 0 -170.5 41t-98.5 145l-57 148q-42 110 -176 110h-45v-444h-209v444h-45q-136 0 -178 -110l-56 -148q-40 -103 -99 -144.5 t-169 -41.5h-76z" />
<glyph horiz-adv-x="1093" d="M168 0v1038h209v-417h98q54 0 93 28.5t55 73.5l49 139q32 94 90.5 135t159.5 41h69v-178h-30q-61 0 -83.5 -18.5t-43.5 -79.5l-35 -103q-32 -85 -111 -112q53 -15 86 -48.5t55 -92.5l50 -127q22 -58 43 -77.5t73 -19.5h47v-182h-75q-112 0 -172.5 41.5t-98.5 144.5 l-57 148q-42 110 -176 110h-86v-444h-209z" />
<glyph horiz-adv-x="1138" d="M27 0v182h32q33 0 53.5 4.5t45.5 22t39.5 52.5t29.5 96.5t23 152.5t13 222.5t5 305.5h703v-1038h-209v856h-295q0 -161 -8 -285.5t-21.5 -215t-37.5 -154t-51 -103t-67 -61.5t-80 -29.5t-96 -7.5h-79z" />
<glyph horiz-adv-x="1724" d="M117 520q0 148 23 258t93 180q93 93 252 93q88 0 153 -26t120 -91v524h209v-524q55 65 119.5 91t152.5 26q159 0 252 -93q70 -70 93.5 -180.5t23.5 -257.5q0 -148 -23.5 -259t-93.5 -181q-92 -92 -252 -92q-87 0 -152 26.5t-120 91.5v-526h-209v526q-55 -65 -120 -91.5 t-153 -26.5q-160 0 -252 92q-70 70 -93 180.5t-23 259.5zM328 520q0 -61 4.5 -107.5t18 -93.5t36.5 -77t63 -49t95 -19t94.5 19t62.5 49t36.5 77.5t17.5 93.5t4 107t-4 107t-17.5 93t-36.5 76.5t-62.5 48.5t-94.5 19t-95 -19t-63 -48.5t-36.5 -76.5t-18 -93t-4.5 -107z M967 520q0 -61 4.5 -107.5t18 -93.5t36.5 -77t63 -49t95 -19t94.5 19t62.5 49t36.5 77.5t17.5 93.5t4 107t-4 107t-17.5 93t-36.5 76.5t-62.5 48.5t-94.5 19t-95 -19t-63 -48.5t-36.5 -76.5t-18 -93t-4.5 -107z" />
<glyph horiz-adv-x="1097" d="M70 0v182h47q44 0 69.5 12.5t38.5 43.5l49 116q28 69 76 99q-103 12 -167 88t-64 184q0 137 92.5 225t245.5 88h475v-1038h-209v414h-84q-75 0 -111 -23t-65 -92l-47 -115q-40 -97 -95.5 -140.5t-158.5 -43.5h-92zM324 717q0 -70 42 -108t123 -38h236v297h-236 q-81 0 -123 -39.5t-42 -111.5z" />
<glyph horiz-adv-x="1103" d="M113 524q0 244 118 385.5t322 141.5q201 0 319.5 -135.5t118.5 -364.5v-94h-672q7 -291 273 -291q75 0 130.5 25.5t113.5 82.5l131 -124q-89 -88 -175 -125t-208 -37q-233 0 -352 136t-119 400zM219 1346q0 47 34 80.5t81 33.5q48 0 82.5 -33.5t34.5 -80.5t-35 -82 t-82 -35t-81 35t-34 82zM319 604h467q-19 273 -233 273q-61 0 -106.5 -22t-72.5 -61t-40 -86.5t-15 -103.5zM668 1346q0 47 34.5 80.5t81.5 33.5t81 -33.5t34 -80.5t-34 -82t-81 -35t-81.5 35t-34.5 82z" />
<glyph horiz-adv-x="540" d="M135 1374q0 56 39.5 95.5t93.5 39.5q57 0 96 -38.5t39 -94.5t-39 -95.5t-94 -39.5t-95 39.5t-40 93.5zM166 0v1018h209v-1018h-209z" />
<glyph horiz-adv-x="540" d="M-70 1346q0 47 34 80.5t81 33.5q48 0 82.5 -33.5t34.5 -80.5t-35 -82t-82 -35t-81 35t-34 82zM166 0v1038h209v-1038h-209zM379 1346q0 47 34.5 80.5t82.5 33.5q47 0 80.5 -33.5t33.5 -80.5q0 -48 -33.5 -82.5t-80.5 -34.5t-82 35t-35 82z" />
<glyph horiz-adv-x="540" d="M-39 -246h90q62 0 88.5 29.5t26.5 91.5v1143h209v-1155q0 -123 -72.5 -205t-212.5 -82h-129v178zM135 1374q0 56 39.5 95.5t93.5 39.5q57 0 96 -38.5t39 -94.5t-39 -95.5t-94 -39.5t-95 39.5t-40 93.5z" />
<glyph horiz-adv-x="1662" d="M27 0v182h32q33 0 53.5 4.5t45.5 22t39.5 52.5t29.5 96.5t23 152.5t13 222.5t5 305.5h707v-391h276q151 0 244.5 -89t93.5 -234t-93.5 -234.5t-244.5 -89.5h-483v856h-301q0 -161 -8 -285.5t-21.5 -215t-37.5 -154t-51 -103t-67 -61.5t-80 -29.5t-96 -7.5h-79zM973 170 h244q78 0 121.5 41t43.5 113q0 71 -43.5 111t-121.5 40h-244v-305z" />
<glyph horiz-adv-x="1093" d="M168 0v1038h209v-417h98q54 0 93 28.5t55 73.5l49 139q32 94 90.5 135t159.5 41h69v-178h-30q-61 0 -83.5 -18.5t-43.5 -79.5l-35 -103q-32 -85 -111 -112q53 -15 86 -48.5t55 -92.5l50 -127q22 -58 43 -77.5t73 -19.5h47v-182h-75q-112 0 -172.5 41.5t-98.5 144.5 l-57 148q-42 110 -176 110h-86v-444h-209zM436 1227l154 332h231l-227 -332h-158z" />
<glyph horiz-adv-x="1644" d="M141 143q0 61 44 104.5t106 43.5t105.5 -43.5t43.5 -104.5t-44 -105t-105 -44q-62 0 -106 44t-44 105zM674 143q0 62 43 105t104 43q62 0 106 -43.5t44 -104.5t-44 -105t-106 -44q-61 0 -104 43.5t-43 105.5zM1204 143q0 61 44 104.5t106 43.5t105.5 -43.5t43.5 -104.5 t-43.5 -105t-105.5 -44t-106 44t-44 105z" />
<glyph horiz-adv-x="1263" d="M88 508v137h139v176h-139v137h145q8 122 37.5 205t98.5 152q155 155 381 155q128 0 222.5 -44t184.5 -130l-145 -145q-64 64 -121 93.5t-141 29.5q-128 0 -215 -90q-38 -40 -55 -89t-23 -137h374v-137h-382v-176h382v-137h-374q6 -92 23 -142.5t55 -91.5q87 -90 215 -90 q84 0 141 29.5t121 93.5l145 -145q-90 -86 -184.5 -130t-222.5 -44q-226 0 -381 155q-70 70 -99 154t-37 211h-145z" />
<glyph horiz-adv-x="581" d="M141 565q0 61 44 104.5t106 43.5t105.5 -43.5t43.5 -104.5t-44 -105t-105 -44q-62 0 -106 44t-44 105z" />
<glyph horiz-adv-x="581" d="M141 565q0 61 44 104.5t106 43.5t105.5 -43.5t43.5 -104.5t-44 -105t-105 -44q-62 0 -106 44t-44 105z" />
<glyph horiz-adv-x="581" d="M141 565q0 61 44 104.5t106 43.5t105.5 -43.5t43.5 -104.5t-44 -105t-105 -44q-62 0 -106 44t-44 105z" />
<glyph horiz-adv-x="581" d="M141 565q0 61 44 104.5t106 43.5t105.5 -43.5t43.5 -104.5t-44 -105t-105 -44q-62 0 -106 44t-44 105z" />
<glyph horiz-adv-x="1191" d="M72 860v160h121v160q0 122 73 205t211 83h129v-178h-92q-113 0 -113 -121v-149h205v-160h-205v-860h-208v860h-121zM786 1376q0 56 39.5 95.5t94.5 39.5q56 0 95.5 -39.5t39.5 -95.5t-39.5 -95.5t-95.5 -39.5q-55 0 -94.5 39.5t-39.5 95.5zM815 0v1020h209v-1020h-209z " />
<glyph horiz-adv-x="1099" d="M209 1346q0 47 34 80.5t81 33.5t81.5 -33.5t34.5 -80.5t-34.5 -82t-81.5 -35t-81 35t-34 82z" />
<glyph horiz-adv-x="1323" d="M322 1718q0 47 33.5 81t80.5 34t82 -34t35 -81t-35 -81.5t-82 -34.5t-80.5 34.5t-33.5 81.5z" />
<glyph horiz-adv-x="1099" d="M209 1346q0 47 34 80.5t81 33.5t81.5 -33.5t34.5 -80.5t-34.5 -82t-81.5 -35t-81 35t-34 82zM657 1346q0 47 34.5 80.5t82.5 33.5q47 0 81 -33.5t34 -80.5t-34 -82t-81 -35t-82 35t-35 82z" />
<glyph horiz-adv-x="1323" d="M322 1718q0 47 33.5 81t80.5 34t82 -34t35 -81t-35 -81.5t-82 -34.5t-80.5 34.5t-33.5 81.5zM770 1718q0 47 35 81t82 34t80.5 -34t33.5 -81t-33.5 -81.5t-80.5 -34.5t-82 34.5t-35 81.5z" />
<glyph horiz-adv-x="1024" d="M434 1358q0 49 33.5 83t81.5 34q47 0 82 -34t35 -81t-34.5 -82t-80.5 -35q-49 0 -83 34.5t-34 80.5z" />
<glyph horiz-adv-x="1024" d="M442 1720q0 47 35 82t82 35t82 -35t35 -82t-35 -81.5t-82 -34.5t-82 34.5t-35 81.5z" />
<glyph d="M125 406v411q0 126 57.5 222.5t153 146t211.5 49.5t211.5 -49.5t153 -146t57.5 -222.5v-411q0 -126 -57.5 -222.5t-153 -146t-211.5 -49.5t-211.5 49.5t-153 146t-57.5 222.5zM334 412q0 -107 57 -172.5t156 -65.5t156 65.5t57 172.5v399q0 107 -57 172.5t-156 65.5 t-156 -65.5t-57 -172.5v-399z" />
<glyph d="M233 745v232l287 246h209v-1223h-209v995z" />
<glyph d="M113 0v186l495 451q142 129 142 248q0 89 -59 147t-152 58q-89 0 -152 -58t-63 -158h-209q0 178 121.5 290t302.5 112q184 0 301.5 -109.5t117.5 -279.5q0 -55 -16 -105t-50 -98.5t-69 -87t-90 -90.5l-338 -320h596v-186h-878z" />
<glyph d="M86 158h209q6 -110 73.5 -165.5t166.5 -55.5q104 0 170.5 64t66.5 177t-62.5 176.5t-183.5 63.5h-34v182h34q111 0 166.5 60t55.5 163q0 106 -61.5 166t-154.5 60q-95 0 -153 -56t-66 -153h-209q9 182 129 288.5t299 106.5q187 0 305.5 -113.5t118.5 -294.5 q0 -223 -180 -311q205 -90 205 -342q0 -103 -35 -184.5t-96.5 -133.5t-141.5 -79t-173 -27q-90 0 -168 24t-140.5 72.5t-100 128.5t-40.5 183z" />
<glyph d="M76 61v195l514 1044h225l-512 -1044h363v340h202v-340h156v-195h-156v-313h-202v313h-590z" />
<glyph d="M123 141h209q25 -202 213 -202q96 0 153 57q41 41 54.5 103.5t13.5 152.5q0 69 -9.5 121.5t-32.5 95.5t-65.5 65.5t-103.5 22.5q-85 0 -137.5 -36.5t-71.5 -94.5h-188v797h784v-187h-596v-385q81 84 240 84q168 0 262 -94q76 -76 101.5 -171t25.5 -218q0 -133 -24.5 -223 t-98.5 -164q-115 -115 -307 -115q-99 0 -178.5 31t-130.5 82q-99 99 -113 278z" />
<glyph d="M92 446q0 106 30 204t95 214l350 627h224l-359 -621q66 35 168 35q177 0 291.5 -122.5t114.5 -325.5q0 -212 -127 -340.5t-330 -128.5q-204 0 -330.5 123t-126.5 335zM301 451q0 -129 68.5 -206t179.5 -77t179.5 77t68.5 206q0 123 -67 203.5t-181 80.5 q-111 0 -179.5 -77.5t-68.5 -206.5z" />
<glyph d="M98 807v416h918v-187l-565 -1282h-224l566 1282h-494v-229h-201z" />
<glyph d="M96 412q0 222 201 342q-78 48 -128 126.5t-50 186.5q0 180 122 291.5t304 111.5t304 -111.5t122 -291.5q0 -108 -49 -187t-127 -126q200 -120 200 -342q0 -193 -128.5 -308.5t-321.5 -115.5t-321 115.5t-128 308.5zM305 416q0 -101 69.5 -171.5t170.5 -70.5t171 70.5 t70 171.5t-70 172t-171 71t-170.5 -70.5t-69.5 -172.5zM328 1061q0 -97 61 -159t156 -62t156 62t61 159q0 96 -61 159.5t-156 63.5t-156 -63.5t-61 -159.5z" />
<glyph d="M86 766q0 212 127 340.5t330 128.5q204 0 330 -123.5t126 -335.5q0 -107 -29 -205.5t-93 -212.5l-353 -626h-223l358 620q-66 -35 -165 -35q-177 0 -292.5 123t-115.5 326zM295 772q0 -124 67 -204.5t181 -80.5q111 0 179.5 77.5t68.5 207.5q0 129 -68.5 206t-179.5 77 t-179.5 -77t-68.5 -206z" />
<glyph horiz-adv-x="1323" d="M383 1931h231l154 -332h-158z" />
<glyph horiz-adv-x="1323" d="M346 1610v221h189v-221h-189zM788 1610v221h189v-221h-189z" />
<glyph horiz-adv-x="1024" d="M195 1628v150h632v-150h-632z" />
<glyph horiz-adv-x="1323" d="M555 1599l154 332h231l-227 -332h-158z" />
<glyph horiz-adv-x="1323" d="M309 1599l264 330h177l264 -330h-174l-178 199l-179 -199h-174z" />
<glyph horiz-adv-x="1130" d="M223 1929h174l178 -198l179 198h174l-264 -330h-177z" />
<glyph horiz-adv-x="1024" d="M174 1919h148q9 -70 60.5 -107.5t129.5 -37.5t129.5 37.5t60.5 107.5h148q-9 -149 -98.5 -223t-239.5 -74t-239.5 74t-98.5 223z" />
<glyph horiz-adv-x="1024" d="M412 1624v199h198v-199h-198z" />
<glyph horiz-adv-x="1024" d="M256 1792q0 106 75 181t181 75t181 -75t75 -181t-75 -181t-181 -75t-181 75t-75 181zM381 1792q0 -54 38.5 -91.5t92.5 -37.5t92.5 37.5t38.5 91.5t-38.5 91.5t-92.5 37.5t-92.5 -37.5t-38.5 -91.5z" />
<glyph horiz-adv-x="1323" d="M309 1741q66 66 113 89t100 23q72 0 154 -49q64 -39 112 -39q57 0 121 64l99 -96q-65 -65 -113.5 -89t-99.5 -24q-74 0 -154 47q-66 39 -115 39q-31 0 -55 -11t-63 -50z" />
<glyph horiz-adv-x="1024" d="M170 1599l156 330h229l-227 -330h-158zM549 1599l156 330h229l-227 -330h-158z" />
<glyph horiz-adv-x="1024" d="M197 1819h165q6 -69 45 -104.5t105 -35.5t105 35.5t45 104.5h165q-7 -143 -93 -209t-222 -66t-222 66t-93 209z" />
<glyph horiz-adv-x="1323" d="M346 1610v221h189v-221h-189z" />
<glyph horiz-adv-x="1099" d="M1090 1169l75 326h193l-115 -326h-153z" />
<glyph horiz-adv-x="557" d="M63 -432l144 301h168l-105 -301h-207z" />
<glyph horiz-adv-x="557" d="M168 1227l154 332h231l-227 -332h-158z" />
<glyph horiz-adv-x="557" d="M63 -432l144 301h168l-105 -301h-207z" />
<glyph horiz-adv-x="557" d="M174 -70q98 0 159.5 -57.5t61.5 -144.5q0 -88 -61.5 -145.5t-159.5 -57.5v113q41 0 67.5 26.5t26.5 63.5t-26.5 63.5t-67.5 26.5v112z" />
<glyph horiz-adv-x="557" d="M174 -70q98 0 159.5 -57.5t61.5 -144.5q0 -88 -61.5 -145.5t-159.5 -57.5v113q41 0 67.5 26.5t26.5 63.5t-26.5 63.5t-67.5 26.5v112z" />
<glyph horiz-adv-x="557" d="M180 1366q0 88 61.5 145.5t159.5 57.5v-113q-41 0 -67.5 -26.5t-26.5 -63.5t26.5 -63.5t67.5 -26.5v-111q-99 0 -160 57t-61 144z" />
<glyph horiz-adv-x="1146" d="M61 1260v198h1024v-198h-401v-1260h-221v1260h-402zM461 -70q98 0 159.5 -57.5t61.5 -144.5q0 -88 -61.5 -145.5t-159.5 -57.5v113q41 0 67.5 26.5t26.5 63.5t-26.5 63.5t-67.5 26.5v112z" />
<glyph horiz-adv-x="700" d="M72 860v160h118v315h209v-315h201v-160h-201v-561q0 -121 115 -121h86v-178h-125q-138 0 -211.5 83.5t-73.5 205.5v571h-118zM281 -70q98 0 159.5 -57.5t61.5 -144.5q0 -88 -61.5 -145.5t-159.5 -57.5v113q41 0 67.5 26.5t26.5 63.5t-26.5 63.5t-67.5 26.5v112z" />
<glyph horiz-adv-x="1099" d="M1157 1098v405h186v-250q-10 -8 -80 -66t-106 -89z" />
</font>
</defs>
</svg>
